<mxfile host="app.diagrams.net" agent="Mozilla/5.0 (Windows NT 10.0; Win64; x64) AppleWebKit/537.36 (KHTML, like Gecko) Chrome/141.0.0.0 Safari/537.36" version="28.2.5">
  <diagram name="Page-1" id="m313SGisHMsDHwt4YvHy">
    <mxGraphModel dx="4553" dy="2563" grid="1" gridSize="10" guides="1" tooltips="1" connect="1" arrows="1" fold="1" page="1" pageScale="1" pageWidth="850" pageHeight="1100" math="0" shadow="0">
      <root>
        <mxCell id="0" />
        <mxCell id="1" parent="0" />
        <mxCell id="uU7pM81MEspVorwHv3w6-1" value="&lt;font style=&quot;font-size: 48px;&quot;&gt;&lt;b style=&quot;&quot;&gt;Azure secure FileSharing&lt;/b&gt;&lt;/font&gt;&lt;div&gt;&lt;font style=&quot;font-size: 48px;&quot;&gt;&lt;b style=&quot;&quot;&gt;&amp;nbsp;Architecture overview&lt;/b&gt;&lt;/font&gt;&lt;/div&gt;" style="text;html=1;align=center;verticalAlign=middle;whiteSpace=wrap;rounded=0;" vertex="1" parent="1">
          <mxGeometry x="-815" y="20" width="630" height="30" as="geometry" />
        </mxCell>
        <mxCell id="uU7pM81MEspVorwHv3w6-207" style="edgeStyle=orthogonalEdgeStyle;rounded=0;orthogonalLoop=1;jettySize=auto;html=1;entryX=0.362;entryY=0.011;entryDx=0;entryDy=0;entryPerimeter=0;" edge="1" parent="1" source="uU7pM81MEspVorwHv3w6-74" target="uU7pM81MEspVorwHv3w6-199">
          <mxGeometry relative="1" as="geometry">
            <mxPoint x="290" y="705" as="targetPoint" />
          </mxGeometry>
        </mxCell>
        <mxCell id="uU7pM81MEspVorwHv3w6-74" value="" style="shape=image;verticalLabelPosition=bottom;labelBackgroundColor=default;verticalAlign=top;aspect=fixed;imageAspect=0;editableCssRules=.*;image=data:image/svg+xml,PHN2ZyB4bWxuczp4bGluaz0iaHR0cDovL3d3dy53My5vcmcvMTk5OS94bGluayIgeG1sbnM9Imh0dHA6Ly93d3cudzMub3JnLzIwMDAvc3ZnIiBwcmVzZXJ2ZUFzcGVjdFJhdGlvPSJ4TWlkWU1pZCIgdmVyc2lvbj0iMS4xIiB2aWV3Qm94PSIwIDAgNTExLjk5NzU1ODU5Mzc1IDEyMi44NjQ2Njk3OTk4MDQ2OSIgaGVpZ2h0PSIxOTEuOTc2MDQ2NTYyMTk0ODIiIHdpZHRoPSI3OTkuOTk2MTg1MzAyNzM0NCI+JiN4YTsgICAgPGc+JiN4YTsgICAgICAgIDxwYXRoIGZpbGw9IiMwMDAwMDAiIGQ9Ik0yMDcuNzg0NjM3LDQ1LjM5ODQ5NiBDMjIzLjA2MDgxMSw0NS4zOTg0OTYgMjI2LjQ4MDU0NCw1NC4zMDYxODQ3IDIyNi40ODA1NDQsNjQuNTg1ODYyMiBMMjI2LjQ4MDU0NCw3NC44MjQ1ODQ4IEwxOTkuODU5ODY1LDc0LjgyNDU4NDggTDE5OS44NTk4NjUsNzcuMjgxODc4MiBDMTk5Ljk2MjI1Miw4Mi45NzQ2MDggMjAyLjAwOTk5Nyw4NS4yMjcxMjcgMjA5LjI1OTAxMyw4NS4yMjcxMjcgQzIxNC4yMDM3MDksODUuMjAyMjYxMiAyMTkuMTE3Mjk1LDg0LjQ0MzEzOTggMjIzLjgzODk1NCw4Mi45NzQ2MDggTDIyNS43MDI0MDEsOTEuOTg0NjgzOSBDMjIwLjA4MTM4NCw5NC4wMTEwMjk1IDIxNC4xNDg3NzcsOTUuMDM2NzYwOCAyMDguMTczNzA4LDk1LjAxNTY3NDMgQzE5My4yMDQ2OTYsOTUuMDE1Njc0MyAxODguMDAzNDI0LDg4LjA3MzQ5MTggMTg4LjAwMzQyNCw3Ni41ODU2NDUxIEwxODguMDAzNDI0LDYzLjk5MjAxNjMgQzE4OC4wMDM0MjQsNTMuOTE3MTEzMiAxOTIuNTA4NDYyLDQ1LjM5ODQ5NiAyMDcuNzg0NjM3LDQ1LjM5ODQ5NiBaIE0zMDguMTY1MDczLDQ1LjM3ODAxODYgQzMyMy4xMzQwODUsNDUuMzc4MDE4NiAzMjcuNTU3MjE0LDUwLjY2MTE5OTQgMzI3LjU1NzIxNCw2Mi41OTk1NSBMMzI3LjUxNjI1OSw5NC4wMzI0Mjg0IEwzMTcuNzI4MDQsOTQuMDMyNDI4NCBMMzE2Ljg0NzUxLDkwLjc5Njk5MjEgQzMxMi42MjQ1MDIsOTMuNTQ1NDQ1NCAzMDcuNjk1MjY4LDk1LjAxMDcwMDkgMzAyLjY1NjY0LDk1LjAxNTM0NTggQzI5My45NTM3MjYsOTUuMDE1MzQ1OCAyOTAuMjI2ODMxLDg5LjAzNTkzMTggMjkwLjIyNjgzMSw4MC44MjQ0NzYyIEMyOTAuMjI2ODMxLDcxLjEzODY0NDcgMjk0LjQ0NTE4NSw2Ny40MTE3NDk2IDMwNC4xMzEwMTYsNjcuNDExNzQ5NiBMMzE1LjU3NzkwOCw2Ny40MTE3NDk2IEwzMTUuNTc3OTA4LDYyLjQxNTI1MyBDMzE1LjU3NzkwOCw1Ny4xMzIwNzIxIDMxNC4xMDM1MzIsNTUuMjY4NjI0NiAzMDYuNDY1NDQ1LDU1LjI2ODYyNDYgQzMwMi4wMjE4MzksNTUuMzE3NzcwNSAyOTcuNTk4NzExLDU1LjgxMzMyNDcgMjkzLjI1NzQ5Myw1Ni43NDMwMDA3IEwyOTEuNzgzMTE3LDQ3LjYzMDUzNzYgQzI5Ny4xMTk2MSw0Ni4xNTYwMjY3IDMwMi42Mjg2NTYsNDUuMzk4NTMyOSAzMDguMTY1MDczLDQ1LjM3ODAxODYgWiBNMzg3LjUxNTE3Myw0NS4zNzgwMTg2IEM0MDMuODU2MTc0LDQ1LjM3ODAxODYgNDA4LjI1ODg5Niw1NC4zODgwOTQ1IDQwOC4yNTg4OTYsNjQuMTc2MzEzMyBMNDA4LjI1ODg5Niw3Ni4yMTcwNTExIEM0MDguMjc5MzAzLDg2LjAwNTI2OTkgNDAzLjg1NjE3NCw5NS4wMTUzNDU4IDM4Ny41MTUxNzMsOTUuMDE1MzQ1OCBDMzcxLjEzMzIxNyw5NS4wMTUzNDU4IDM2Ni43NzE1MjEsODYuMDA1MjY5OSAzNjYuNzcxNTIxLDc2LjIxNzA1MTEgTDM2Ni43NzE1MjEsNjQuMTc2MzEzMyBDMzY2Ljc3MTUyMSw1NC4zODgwOTQ1IDM3MS4xNzQxNzIsNDUuMzc4MDE4NiAzODcuNTE1MTczLDQ1LjM3ODAxODYgWiBNMTk4LjAxNjg5NSwyOC44MzIyNDI5IEwxOTguMDE2ODk1LDM5LjcwNTc2NjMgTDE3OS43OTE5NjksMzkuNzA1NzY2MyBMMTc5Ljc5MTk2OSw5NC4wMzI0Mjg0IEwxNjcuNTA1NTAyLDk0LjAzMjQyODQgTDE2Ny40NjQ1NDcsMzkuNzA1NzY2MyBMMTQ5LjI2MDA5OCwzOS43MDU3NjYzIEwxNDkuMjYwMDk4LDI4LjgzMjI0MjkgTDE5OC4wMTY4OTUsMjguODMyMjQyOSBaIE0zNTUuMjIyMjQyLDI0LjkyMDgyOTggQzM1OC42ODE3NTIsMjQuOTA5MjQwNSAzNjIuMTI2NjEsMjUuMzcwODUxNSAzNjUuNDYwOTY1LDI2LjI5MzAzOTYgTDM2NC4yMTE4NCwzNS40ODc0MTI1IEMzNjEuOTU2NDczLDM1LjAwMjI5NjcgMzU5LjY1ODYyLDM0Ljc0MTY0NDcgMzU3LjM1MTg5NiwzNC43MDkyNjk2IEMzNTIuNjYyNTYxLDM0LjcwOTI2OTYgMzUxLjk2NjMyOCwzNi43NTcwMTQyIDM1MS45NjYzMjgsNDAuMzgxNTIyIEwzNTEuOTY2MzI4LDQ2LjM2MDkzNiBMMzY0LjEwOTQ1Myw0Ni4zNjA5MzYgTDM2My40MzM2OTgsNTUuODYyNDcwNSBMMzUxLjk4NjgwNiw1NS44NjI0NzA1IEwzNTEuOTg2ODA2LDk0LjAzMjQyODQgTDM0MC4wNDg0NTUsOTQuMDMyNDI4NCBMMzQwLjA0ODQ1NSw1NS44NjI0NzA1IEwzMzIuNDEwMzY4LDU1Ljg2MjQ3MDUgTDMzMi40MTAzNjgsNDYuMzYwOTM2IEwzNDAuMDQ4NDU1LDQ2LjM2MDkzNiBMMzQwLjA0ODQ1NSwzOS43MDU3NjYzIEMzNDAuMDQ4NDU1LDI5LjgxNTE2MDIgMzQ0LjY1NTg4LDI0LjkyMDgyOTggMzU1LjIyMjI0MiwyNC45MjA4Mjk4IFogTTQ4Mi4wMzkwNiw1MC40NzY5MDI0IEM0ODcuOTk2Njc2LDQ3LjQyNDgzODUgNDk0LjUzOTYyMSw0NS42ODYxMDUxIDUwMS4yMjY0MjYsNDUuMzc4MDE4NiBDNTA5LjE1MTE5OCw0NS4zNzgwMTg2IDUxMS45OTc1NjMsNTAuOTQ3ODgzNyA1MTEuOTk3NTYzLDU5LjQ2NjUwMDkgTDUxMS45OTc1NjMsOTQuMDMyNDI4NCBMNTAwLjA1OTIxMiw5NC4wMzI0Mjg0IEw1MDAuMDU5MjEyLDYwLjc1NjU3OTkgQzUwMC4wNTkyMTIsNTguMjE3Mzc2NyA0OTguOTczOTA3LDU2Ljk0Nzc3NTEgNDk2LjI1MDQwNyw1Ni45NDc3NzUxIEM0OTEuODY2ODUyLDU3LjQzMTExMTggNDg3LjYzMjg5NCw1OC44MjYxNTU2IDQ4My44MjA1OTgsNjEuMDQzMjY0MiBMNDgzLjgyMDU5OCw5NC4wMzI0Mjg0IEw0NzEuODAwMzM4LDk0LjAzMjQyODQgTDQ3MS44MDAzMzgsNjAuNzU2NTc5OSBDNDcxLjgwMDMzOCw1OC4yMTczNzY3IDQ3MC43MTUwMzMsNTYuOTQ3Nzc1MSA0NjcuOTkxNTMzLDU2Ljk0Nzc3NTEgQzQ2My42MTU1MDMsNTcuNDY3OTAyMiA0NTkuMzkxMDA2LDU4Ljg2MDM2ODUgNDU1LjU2MTcyNCw2MS4wNDMyNjQyIEw0NTUuNTYxNzI0LDk0LjAzMjQyODQgTDQ0My42MjMzNzMsOTQuMDMyNDI4NCBMNDQzLjYyMzM3Myw0Ni4zNjA5MzYgTDQ1Mi43MzU4MzYsNDYuMzYwOTM2IEw0NTMuOTAzMDUxLDUwLjQ1NjQyNSBDNDU5Ljg1MzYyMiw0Ny40NDYxOTA2IDQ2Ni4zNjg5MjIsNDUuNzE2MjE4IDQ3My4wMjg5ODQsNDUuMzc4MDE4NiBDNDc2LjgwMjk3Nyw0NS4wMjE3MTEgNDgwLjQwMDg2NSw0Ny4wNTcxNjkxIDQ4Mi4wMzkwNiw1MC40NzY5MDI0IFogTTI1Ny4xNzYyMzQsNDUuMzc4MDE4NiBMMjU4LjQwNDg4MSw1Ni4zNTM5MjkyIEMyNTQuMDA3NDc5LDU4LjMzODQ4NzggMjQ5Ljc2OTcyNyw2MC42NTkzMjQ2IDI0NS43MjkzNDMsNjMuMjk1NzgzMSBMMjQ1LjcyOTM0Myw5NC4wMTE5NTEgTDIzMy43OTA5OTIsOTQuMDExOTUxIEwyMzMuNzkwOTkyLDQ2LjM2MDkzNiBMMjQzLjg2NTg5NSw0Ni4zNjA5MzYgTDI0NC42NDQwMzgsNTEuNjQ0MTE2OCBDMjQ4LjUyODU1Nyw0OS4wMTQ4NTA3IDI1Mi43NDIxMSw0Ni45MDgwNzM4IDI1Ny4xNzYyMzQsNDUuMzc4MDE4NiBaIE0yODYuMzc3MDcxLDQ1LjM3ODAxODYgTDI4Ny41NjQ3NjMsNTYuMzUzOTI5MiBDMjgzLjE4MTE5OSw1OC4zMzk5NTQyIDI3OC45NTcxNyw2MC42NjA3NzM5IDI3NC45MzAxNzksNjMuMjk1NzgzMSBMMjc0LjkzMDE3OSw5NC4wMTE5NTEgTDI2Mi45OTE4MjksOTQuMDExOTUxIEwyNjIuOTkxODI5LDQ2LjM2MDkzNiBMMjczLjA2NjczMiw0Ni4zNjA5MzYgTDI3My44NDQ4NzUsNTEuNjQ0MTE2OCBDMjc3LjcyOTM5Myw0OS4wMTQ4NTA3IDI4MS45NDI5NDcsNDYuOTA4MDczOCAyODYuMzc3MDcxLDQ1LjM3ODAxODYgWiBNNDM3LjgwNzc3OSw0NS4zNzgwMTg2IEw0MzguOTk1NDcsNTYuMzUzOTI5MiBDNDM0LjYxMTkwNiw1OC4zMzk5NTQyIDQzMC4zODc4NzgsNjAuNjYwNzczOSA0MjYuMzYwODg3LDYzLjI5NTc4MzEgTDQyNi4zNjA4ODcsOTQuMDExOTUxIEw0MTQuNDIyNTM2LDk0LjAxMTk1MSBMNDE0LjQyMjUzNiw0Ni4zNjA5MzYgTDQyNC40OTc0MzksNDYuMzYwOTM2IEw0MjUuMjc1NTgyLDUxLjY0NDExNjggQzQyOS4xNTk4Niw0OS4wMTQ0Mzk3IDQzMy4zNzM0Nyw0Ni45MDc2MzUgNDM3LjgwNzc3OSw0NS4zNzgwMTg2IFogTTMxNS41Nzc5MDgsNzYuMDEyMjc2NiBMMzA2Ljc3MjYwNyw3Ni4wMTIyNzY2IEMzMDIuODYxNDE1LDc2LjAxMjI3NjYgMzAxLjc3NjExLDc3LjA5NzU4MTIgMzAxLjc3NjExLDgwLjcwMTYxMTYgQzMwMS43NzYxMSw4NC4zMDU2NDE5IDMwMi44NjE0MTUsODUuNDkzMzMzNyAzMDYuNTY3ODMyLDg1LjQ5MzMzMzcgQzMwOS43MzAwNTUsODUuNDQ1MDI1OCAzMTIuODI5MDA2LDg0LjU5OTg1NzUgMzE1LjU3NzkwOCw4My4wMzYwNDAzIEwzMTUuNTc3OTA4LDc2LjAxMjI3NjYgWiBNMzg3LjUxNTE3Myw1NS41NTUzMDg5IEMzODEuMTQ2Njg4LDU1LjU1NTMwODkgMzc4LjcwOTg3Miw1OC40MDE2NzM3IDM3OC43MDk4NzIsNjMuNzQ2Mjg2OSBMMzc4LjcwOTg3Miw3Ni41NjUxNjc2IEMzNzguNzA5ODcyLDgxLjk1MDczNTcgMzgxLjE2NzE2NSw4NC43NTYxNDU3IDM4Ny41MTUxNzMsODQuNzU2MTQ1NyBDMzkzLjg2MzE4MSw4NC43NTYxNDU3IDM5Ni4zMjA0NzUsODEuOTA5NzgwOCAzOTYuMzIwNDc1LDc2LjU2NTE2NzYgTDM5Ni4zMjA0NzUsNjMuNzg3MjQxOCBDMzk2LjMyMDQ3NSw1OC40MDE2NzM3IDM5My44ODM2NTksNTUuNTU1MzA4OSAzODcuNTE1MTczLDU1LjU1NTMwODkgWiBNMjA3Ljg4NzAyNCw1NS4xNjYyMzc0IEMyMDIuMDA5OTk3LDU1LjE2NjIzNzQgMTk5Ljk2MjI1Miw1OC4yOTkyODY1IDE5OS45NjIyNTIsNjIuODA0MzI0NSBMMTk5Ljk2MjI1Miw2NS4yMjA2NjMgTDIxNS4xMzYwMzksNjUuMjIwNjYzIEwyMTUuMTM2MDM5LDYyLjgwNDMyNDUgQzIxNS4xMzYwMzksNTguMjk5Mjg2NSAyMTMuNzY0MDUxLDU1LjE2NjIzNzQgMjA3Ljg4NzAyNCw1NS4xNjYyMzc0IFoiPiYjeGE7JiN4YTs8L3BhdGg+JiN4YTsgICAgICAgIDxnPiYjeGE7ICAgICAgICAgICAgPHBvbHlnb24gcG9pbnRzPSI3NC41Mzc5MDA2IDc5LjgyMTA4MTQgMTA4LjEyMDkxMSA2MC40NDk0MTgzIDEwOC4xMjA5MTEgMjEuNjQ0NjU5NiA3NC41Mzc5MDA2IDQxLjA1NzI3NzYiIGZpbGw9IiM0MDQwQjIiPiYjeGE7JiN4YTs8L3BvbHlnb24+JiN4YTsgICAgICAgICAgICA8cGF0aCBmaWxsPSIjNUM0RUU1IiBkPSJNMzcuMjY4OTUwMywyMS42NDQ2NTk2IEw3MC44NTE5NjA0LDQxLjA1NzI3NzYgTDcwLjg1MTk2MDQsNzkuODIxMDgxNCBMMzcuMjY4OTUwMyw2MC40Mjg5NDA4IE0wLDM4Ljc4NDI4MTIgTDMzLjU4MzAxMDEsNTguMTc2NDIxOCBMMzMuNTgzMDEwMSwxOS4zOTIxNDA2IEwwLDAgTTM3LjI2ODk1MDMsMTAzLjQ3MjUzMSBMNzAuODUxOTYwNCwxMjIuODY0NjcxIEw3MC44NTE5NjA0LDg0LjA4MDM5IEwzNy4yNjg5NTAzLDY0LjY4ODI0OTQiPiYjeGE7JiN4YTs8L3BhdGg+JiN4YTsgICAgICAgIDwvZz4mI3hhOyAgICA8L2c+JiN4YTs8L3N2Zz4=;" vertex="1" parent="1">
          <mxGeometry x="387.5" y="660" width="375" height="90" as="geometry" />
        </mxCell>
        <mxCell id="uU7pM81MEspVorwHv3w6-201" style="edgeStyle=orthogonalEdgeStyle;rounded=0;orthogonalLoop=1;jettySize=auto;html=1;entryX=0.5;entryY=0;entryDx=0;entryDy=0;" edge="1" parent="1" source="uU7pM81MEspVorwHv3w6-78" target="uU7pM81MEspVorwHv3w6-74">
          <mxGeometry relative="1" as="geometry" />
        </mxCell>
        <mxCell id="uU7pM81MEspVorwHv3w6-78" value="" style="rounded=1;whiteSpace=wrap;html=1;fillColor=#CCFFE6;" vertex="1" parent="1">
          <mxGeometry x="350" y="294.75" width="450" height="200" as="geometry" />
        </mxCell>
        <mxCell id="uU7pM81MEspVorwHv3w6-79" value="" style="shape=image;verticalLabelPosition=bottom;labelBackgroundColor=default;verticalAlign=top;aspect=fixed;imageAspect=0;editableCssRules=.*;image=data:image/svg+xml,PHN2ZyB4bWxucz0iaHR0cDovL3d3dy53My5vcmcvMjAwMC9zdmciIHZpZXdCb3g9IjAuMTA1MzEzMDcwMTE4NDI3MjggMC4wOTg5OTk5NzcxMTE4MTY0IDE3Ljc4ODY4Njc1MjMxOTMzNiAxNy44MDIwMDE5NTMxMjUiIHdpZHRoPSIxNy43ODg2ODY3NTIzMTkzMzYiIGhlaWdodD0iMTcuODAyMDAxOTUzMTI1Ij48ZGVmcz48bGluZWFyR3JhZGllbnQgZ3JhZGllbnRVbml0cz0idXNlclNwYWNlT25Vc2UiIGdyYWRpZW50VHJhbnNmb3JtPSJtYXRyaXgoMSwgMCwgMCwgLTEsIDYxNy4xMjYsIC0yMDUuNzU4KSIgeTI9Ii0yMTEuMjE4IiB4Mj0iLTYwOS4yNiIgeTE9Ii0yMjQuMTMiIHgxPSItNjA5LjI2IiBpZD0iYThjNDIyYjMtMmJlMy00MDhjLTkzMDItM2E0NjIxYmJmZDY0Ij48c3RvcCBzdG9wLWNvbG9yPSIjNWU5NjI0IiBvZmZzZXQ9IjAiLz48c3RvcCBzdG9wLWNvbG9yPSIjYjRlYzM2IiBvZmZzZXQ9IjEiLz48L2xpbmVhckdyYWRpZW50PjxsaW5lYXJHcmFkaWVudCBncmFkaWVudFVuaXRzPSJ1c2VyU3BhY2VPblVzZSIgZ3JhZGllbnRUcmFuc2Zvcm09Im1hdHJpeCgxLCAwLCAwLCAtMSwgNjE3LjEyNiwgLTIwNS43NTgpIiB5Mj0iLTIwMy4yMTgiIHgyPSItNjA5LjIyMyIgeTE9Ii0yMTQuOTc4IiB4MT0iLTYwOS4yMjMiIGlkPSJiMmYxOWUwNi0zOGExLTRmOGUtOGYzMC03NjE3YzFlOGVjNDUiPjxzdG9wIHN0b3AtY29sb3I9IiM1ZTk2MjQiIG9mZnNldD0iMCIvPjxzdG9wIHN0b3AtY29sb3I9IiNiNGVjMzYiIG9mZnNldD0iMSIvPjwvbGluZWFyR3JhZGllbnQ+PC9kZWZzPjxnIGlkPSJiNjA5NWViZi0zZmJlLTQ5OWMtOGNiNy1jZWJjZjE4NDhjODciPjxnPjxwYXRoIGZpbGw9InVybCgjYThjNDIyYjMtMmJlMy00MDhjLTkzMDItM2E0NjIxYmJmZDY0KSIgZD0iTTE0LjIzOSwxNy4yMjFhMS4zNjMsMS4zNjMsMCwwLDAsMS4zODMtMS4zNDF2LS4wMzFhLjk0My45NDMsMCwwLDAsMC0uMTY4QzE1LjA3NywxMS4zMzUsMTIuNjA2LDcuOCw3Ljg3Miw3LjhzLTcuMjQ2LDMtNy43Niw3LjlhMS40LDEuNCwwLDAsMCwxLjI0NywxLjUyOVoiLz48cGF0aCBvcGFjaXR5PSIwLjgiIGZpbGw9IiNmZmYiIGQ9Ik03Ljk1Niw4LjgyMmE0LjM2NCw0LjM2NCwwLDAsMS0yLjM2Ny0uNjkxbDIuMjgzLDYuMTA1TDEwLjIsOC4xNzNBNC40LDQuNCwwLDAsMSw3Ljk1Niw4LjgyMloiLz48Y2lyY2xlIGZpbGw9InVybCgjYjJmMTllMDYtMzhhMS00ZjhlLThmMzAtNzYxN2MxZThlYzQ1KSIgcj0iNC4zNjciIGN5PSI0LjQ2NiIgY3g9IjcuOTA0Ii8+PHBvbHlnb24gZmlsbD0iI2VmNzEwMCIgcG9pbnRzPSIxNy44OTQgMTEuMjMxIDE3Ljg5NCAxNS42NzEgMTQuMDgyIDE3LjkwMSAxNC4wODIgMTMuNDYxIDE3Ljg5NCAxMS4yMzEiLz48cG9seWdvbiBmaWxsPSIjZjc4ZDFlIiBwb2ludHM9IjE3Ljg5NCAxMS4yMzEgMTQuMDgyIDEzLjQ2MSAxMC4yNyAxMS4yMzEgMTQuMDgyIDkgMTcuODk0IDExLjIzMSIvPjxwb2x5Z29uIGZpbGw9IiNmYWEyMWQiIHBvaW50cz0iMTQuMDgyIDEzLjQ2MSAxNC4wODIgMTcuOTAxIDEwLjI3IDE1LjY3MSAxMC4yNyAxMS4yMzEgMTQuMDgyIDEzLjQ2MSIvPjxwb2x5Z29uIGZpbGw9IiNmZmIzNGQiIHBvaW50cz0iMTAuMjcgMTUuNjcxIDE0LjA4MiAxMy40NjEgMTQuMDgyIDE3LjkwMSAxMC4yNyAxNS42NzEiLz48cG9seWdvbiBmaWxsPSIjZjc4ZDFlIiBwb2ludHM9IjE3Ljg5NCAxNS42NzEgMTQuMDgyIDEzLjQ2MSAxNC4wODIgMTcuOTAxIDE3Ljg5NCAxNS42NzEiLz48L2c+PC9nPjwvc3ZnPg==;direction=east;" vertex="1" parent="1">
          <mxGeometry x="434.37" y="314.25" width="120" height="120" as="geometry" />
        </mxCell>
        <mxCell id="uU7pM81MEspVorwHv3w6-80" value="&lt;span style=&quot;font-size: 36px;&quot;&gt;Service Principle&lt;/span&gt;" style="text;html=1;align=center;verticalAlign=middle;whiteSpace=wrap;rounded=0;" vertex="1" parent="1">
          <mxGeometry x="370" y="449.5" width="328.75" height="30" as="geometry" />
        </mxCell>
        <mxCell id="uU7pM81MEspVorwHv3w6-81" value="&lt;span style=&quot;font-size: 22px;&quot;&gt;&lt;b&gt;Contributor&lt;/b&gt;&lt;/span&gt;" style="text;html=1;align=center;verticalAlign=middle;whiteSpace=wrap;rounded=0;" vertex="1" parent="1">
          <mxGeometry x="580" y="324.25" width="128.33" height="30" as="geometry" />
        </mxCell>
        <mxCell id="uU7pM81MEspVorwHv3w6-82" value="&lt;span style=&quot;font-size: 22px;&quot;&gt;&lt;b&gt;User Administrator&lt;/b&gt;&lt;/span&gt;" style="text;html=1;align=center;verticalAlign=middle;whiteSpace=wrap;rounded=0;" vertex="1" parent="1">
          <mxGeometry x="580" y="374" width="210" height="30" as="geometry" />
        </mxCell>
        <mxCell id="uU7pM81MEspVorwHv3w6-161" value="" style="rounded=0;whiteSpace=wrap;html=1;direction=south;strokeColor=#000000;fillColor=#FCFFE9;" vertex="1" parent="1">
          <mxGeometry x="-800" y="140" width="930" height="1450" as="geometry" />
        </mxCell>
        <mxCell id="uU7pM81MEspVorwHv3w6-162" value="" style="shape=image;verticalLabelPosition=bottom;labelBackgroundColor=default;verticalAlign=top;aspect=fixed;imageAspect=0;editableCssRules=.*;image=data:image/svg+xml,PHN2ZyB4bWxucz0iaHR0cDovL3d3dy53My5vcmcvMjAwMC9zdmciIHZpZXdCb3g9IjAuNSAyLjE3MDAwMDA3NjI5Mzk0NTMgMTcgMTMuNjY5OTk5MTIyNjE5NjI5IiBoZWlnaHQ9IjEzLjY2OTk5OTEyMjYxOTYyOSIgd2lkdGg9IjE3IiBpZD0iYTcxYjliOTgtNzQ5Ny00OTE0LThmZmQtNDQyNmVkNmZmM2RjIj48ZGVmcz48bGluZWFyR3JhZGllbnQgZ3JhZGllbnRVbml0cz0idXNlclNwYWNlT25Vc2UiIHkyPSI1Ljc5IiB4Mj0iOSIgeTE9IjE1LjgzIiB4MT0iOSIgaWQ9ImJmNzQyYmQyLTUxMGMtNGVkMC04Yzk2LTE0ZGY3MzQ5ZGQzNCI+PHN0b3Agc3RvcC1jb2xvcj0iIzMyYmVkZCIgb2Zmc2V0PSIwIi8+PHN0b3Agc3RvcC1jb2xvcj0iIzMyY2FlYSIgb2Zmc2V0PSIwLjE4Ii8+PHN0b3Agc3RvcC1jb2xvcj0iIzMyZDJmMiIgb2Zmc2V0PSIwLjQxIi8+PHN0b3Agc3RvcC1jb2xvcj0iIzMyZDRmNSIgb2Zmc2V0PSIwLjc4Ii8+PC9saW5lYXJHcmFkaWVudD48L2RlZnM+PHRpdGxlPkljb24tc3RvcmFnZS04NzwvdGl0bGU+PHBhdGggZmlsbD0idXJsKCNiZjc0MmJkMi01MTBjLTRlZDAtOGM5Ni0xNGRmNzM0OWRkMzQpIiBkPSJNLjUsNS43OWgxN2EwLDAsMCwwLDEsMCwwdjkuNDhhLjU3LjU3LDAsMCwxLS41Ny41N0gxLjA3YS41Ny41NywwLDAsMS0uNTctLjU3VjUuNzlBMCwwLDAsMCwxLC41LDUuNzlaIi8+PHBhdGggZmlsbD0iIzE5OGFiMyIgZD0iTTEuMDcsMi4xN0gxNi45M2EuNTcuNTcsMCwwLDEsLjU3LjU3VjUuNzlhMCwwLDAsMCwxLDAsMEguNWEwLDAsMCwwLDEsMCwwVjIuNzNBLjU3LjU3LDAsMCwxLDEuMDcsMi4xN1oiLz48cGF0aCBmaWxsPSIjZmZmIiBkPSJNMi44MSw2Ljg5SDE1LjE4YS4yNy4yNywwLDAsMSwuMjYuMjd2MS40YS4yNy4yNywwLDAsMS0uMjYuMjdIMi44MWEuMjcuMjcsMCwwLDEtLjI2LS4yN1Y3LjE2QS4yNy4yNywwLDAsMSwyLjgxLDYuODlaIi8+PHBhdGggZmlsbD0iIzljZWJmZiIgZD0iTTIuODIsOS42OEgxNS4xOWEuMjcuMjcsMCwwLDEsLjI2LjI3djEuNDFhLjI3LjI3LDAsMCwxLS4yNi4yN0gyLjgyYS4yNy4yNywwLDAsMS0uMjYtLjI3VjEwQS4yNy4yNywwLDAsMSwyLjgyLDkuNjhaIi8+PHBhdGggZmlsbD0iIzUwZTZmZiIgZD0iTTIuODIsMTIuNUgxNS4xOWEuMjcuMjcsMCwwLDEsLjI2LjI3djEuNDFhLjI3LjI3LDAsMCwxLS4yNi4yN0gyLjgyYS4yNy4yNywwLDAsMS0uMjYtLjI3VjEyLjc3QS4yNy4yNywwLDAsMSwyLjgyLDEyLjVaIi8+PC9zdmc+;" vertex="1" parent="1">
          <mxGeometry x="-430" y="770" width="160" height="131.77" as="geometry" />
        </mxCell>
        <mxCell id="uU7pM81MEspVorwHv3w6-163" value="" style="rounded=1;whiteSpace=wrap;html=1;fillColor=#CCFFE6;" vertex="1" parent="1">
          <mxGeometry x="-562.5" y="980" width="425" height="200" as="geometry" />
        </mxCell>
        <mxCell id="uU7pM81MEspVorwHv3w6-164" value="" style="shape=image;verticalLabelPosition=bottom;labelBackgroundColor=default;verticalAlign=top;aspect=fixed;imageAspect=0;image=data:image/png,iVBORw0KGgoAAAANSUhEUgAAAgAAAAIACAYAAAD0eNT6AAAAAXNSR0IArs4c6QAAElNJREFUeJzt3X3sXXV9wPHP+T22YAstLUgpiqCoEIo8bDJBlAed4BMTZW6LMZtuZlnC5kTLFCfG6ARj0MxlbplZTAYbmCljiok6dMI2nUgttOpA1GGB0kJ5KqWP9+yPyaKZ0P7u99zfOfd8Xq+E/+793m9yyj3v3/ec870RAAAAAAAAAAAAAAAAAAAAAAAAAAAAAAAAAAAAAAAAAAAAAAAAAAAAAAAAAAAAAAAAAAAAAAAAAAAAAAAAAAAAAAAAAAAAAAAAAAAAAAAAAAAAAAAAAAAAAAAAAAAAAAAAAAAAAAAAAAAAAAAAAAAAAAAAAAAAAAAAAAAA86Ga909cvf60iFgRVb0sIg6KqCfnfQ4A0LpqT0Q8EHV1f0TcE5cde9O8fvq8fMrq754e1eB3oq5fG1V14Lx8JgCMlfrBiPhcVFN/E3/2/P8Y9aeNNgBWrz82qsFfRFQvGennAECv1NfHIC6Ky4/73qg+YWJUA8fqdVdEVa9z8geAuarOjYnqu7F63WUj+4TGR3z7+qUxW18bES9ufGwAyOeGqBe+Li476uEmB202AC6+dUnUE9+KKo5qdFwAyO32iMEp8eFVDzY1YHOXAC6tpyKqLzj5A0Djjo6Y+Oe4tG7svN1cADy+/tMR1a80Nh4A8LNOje3r/6qpwZq5BLD6tldGVX2+kbEAgKcw8bL48DFfKR6lialEVB9sZhwA4CnVez7QxDDlAfCu9b8cVRzfwFwAgL2pqlPind89sXSY8gCo6vOLxwAA9t1k/brSIZq4BPDGBsYAAPZVXR4AZTcBvuO/lsX0rs2lkwAA5mjHAfvFFYc/Puzby1YAJnavLHo/ADCchY8W7btTGAD14UXvBwCGU8czSt5eFgBVfVjR+wGA4QzK/ggvvAmwWlj2fgBgKHVddA4e3c8BAwCdJQAAICEBAAAJCQAASEgAAEBCAgAAEhIAAJCQAACAhAQAACQkAAAgIQEAAAkJAABISAAAQEICAAASEgAAkJAAAICEBAAAJCQAACAhAQAACQkAAEhIAABAQgIAABISAACQkAAAgIQEAAAkJAAAICEBAAAJCQAASEgAAEBCAgAAEhIAAJCQAACAhAQAACQkAAAgIQEAAAkJAABISAAAQEICAAASEgAAkJAAAICEBAAAJCQAACAhAQAACQkAAEhIAABAQgIAABISAACQkAAAgIQEAAAkJAAAICEBAAAJCQAASEgAAEBCAgAAEhIAAJCQAACAhAQAACQkAAAgIQEAAAkJAABISAAAQEICAAASEgAAkJAAAICEBAAAJCQAACAhAQAACQkAAEhIAABAQgIAABISAACQ0FTJm5/z8pVTe3bsXNvUZACAfTM5OzN9x+XDv78oAJ528MzSKqaPLxkDAJi7uo7rS97vEgAAJCQAACAhAQAACQkAAEhIAABAQgIAABISAACQkAAAgIQEAAAkJAAAICEBAAAJCQAASEgAAEBCAgAAEhIAAJCQAACAhAQAACQkAAAgIQEAAAkJAABISAAAQEICAAASEgAAkJAAAICEBAAAJCQAACAhAQAACQkAAEhIAABAQgIAABISAACQ0FTbE2D+PWvrnXH0o+vjsG0/iaqu254OEbFjckHcvd/hsXbJybFl5qC2pwMkIAASOe6hW+Lide+NIx77YdtT4Sl8buWvx18f/fZ4ZPqAtqcC9JhLAEmct+Hq+OQ3f8vJfwz82oar46obz4mX3vfltqcC9JgASGDFtrviwu99qO1pMAdLdj0YH/zOhfH+tX8ci3c93PZ0gB4SAAm88b8/HbODnW1PgyGcvfGLcdWN58Rpm25oeypAzwiABI7fcnPbU6DAkl0PxmVr/iAuXfsOqwFAYwRAzy3csy2evfX2tqdBA1628fq48sZz40Wbv9b2VIAeEAA9t2invxj7ZOmuLfGRW34/3rf2nbFo9yNtTwcYYwIAxtDLN34+rrrx3Dhl89fbngowpgQAjKmlOx+Ij97ytnjvrautBgBzJgBgzL3i3uusBgBzJgCgB55YDbjkNqsBwL6xFTCN2LlnNrbWy6OaWfyUr1uwbEUsOuq4eZrVCOx6LAY//noM7v9+2zP5hc6557p44f3/Fu9fdXncfNCL2p4O0GECgGKPbZ+Ju9fdERF37NPrV7zpilh2zh+NdlKjdPp7YtcX/zD2fO/atmfyCy3d+UB8/Oa3xPWHnRdXPO+S2Da1f9tTAjrIJQCK7ZxZOafXP3xzN0+cczF53G+0PYW9Ovfua+Oqm86Jkx/497anAnSQAKBYNfvUy/59VC2eW/S0ZfmOzfHxm98Sf7LuPbHf7sfang7QIQKAYnW9p+0ptKBuewJz8qq7P2s1APg5AgCSeGI14OJ1l1gNAAQAZPPqu//RagAgACCjJ1YDVq//01i4Z1vb0wFaIAAgsdds+ExcedMr44Qt/9n2VIB5JgAguUO2b4xPfOvN8c7177MaAIkIACAiIs7bcI3VAEhEAFBserB1Tq+fWXbEiGYyfwY/+WbbUxiJQ7ZvjD//1pvjovWXWg2AnrMVcN9V1cg/YuHOO+PA554Uu3YN9vra6SWHxkEnnRmDDd8Y+bxGpX5sc+y+8UNtT6NItfCgqA56zpP++zg/7opfvfPiuGn5WXHb0hPjvtmnx47JBfM8S+bDT3YO4r5d47WvBc0QABSbnJqIgxdt3sdXPxBx07rYOdIZ8WSmTr0oJo85P6pFK/b62qUR8Zqf/ke/7dyxNb65aVO8e+uhsW0gBrIQAJDAxPLnx/RrPxXV4sPangodNDP7tHjx4U+Lf3n84XjXXY/Hjbvzbe+dkXsA+q5W89lVy4+J6Tdc7eTPXs0sPCAuP3wmFozZVtcMRwBAj1XLj4mZC66JasEBbU+FMTGz39L4y8V3tT0N5oEAgJ76v5P/7KK2p8KYOW7l89qeAvNAAEAPOflToqqqOKDK+CufuQiAvpuHxwDpFid/mrBi90NtT4EREwB95ybAVJz8aUy99309GG8CAHrCyR+Yi8J9AAbhaZGuc4AycPKncXVtBbHnrADAmKsOWeXkD8yZnQBhjFWHrIqZN/xDVDP7tz0VYMxYAYAx5eQPlBAAMIac/IFSAgDGjJM/0AQBAGPEyR9oigCAMeHkDzRJAMAYcPIHmiYAoOOc/IFRaGAfADtFdZvjM86qQ0+MmfP/zsmflvj+6LayH3srCwC/FdF9/v8dW9WhJ8bM6/8+qukFbU+FrHx/dFvh8XEJADrIyR8YNQEAHTP53FfF7OuvdPKnXWWry4wBvwUAHVEtOTImT/rdmFr1m21PBUhAACRTLVoRk0eeGdUhq6I68JltT4eIiGoyJpYfE+FGP2AeCYAsJqZi6uS3xdQpF0ZMWVoG9sINgL0nAJKYPusDMXmcpWUA/pebABOYeObpTv4A/BwBkMDUyb/X9hQA6JjCSwB2Auq+OqqnH9/2JICxU4cbAbqu7PiU3wPg30enHTg1GdXs4ranAYwj3++95hJAz01VdvMA4P8TAACQkAAAgIQEAAAkJAAAICEBAAAJCQAASKiB3wLwoGi3OT7AMGwE1H1lj3lbAQCAhAQAACRUdgnATwF0nxU8YBiuAHRf4fGxAgAACQkAAEhIAABAQgIAABISAACQkAAAgIQKdwL0HGD3eY4HGIbnALuv7PhYAQCAhAQAACRUvhNg2W8RMGpW8IBhuALQe1YAACAhAQAACQkAAEhIAABAQgIAABJqYCMgjwF0m9t4gWF4DKD7ys6/VgAAICEBAAAJCQAASEgAAEBChTcBhntEus7xAYbhHsDeswIAAAkJAABISAAAQEICAAASKr8J0F0iAD3kLsDuKzs+VgAAICEBAAAJCQAASEgAAEBCZTcB+jXg7nMPDzAM9wB2X+H51woAACQkAAAgIQEAAAkJAABIqHAnQHcBdp+7eIBh+f7oNjsBAgBzJAAAICEBAAAJCQAASEgAAEBChU8BhJtEu87xAYZhK+DuKzw+VgAAICEBAAAJlV8CsEbUcY4PMAzXAPrOCgAAJCQAACAhAQAACQkAAEhIAABAQgIAABIqewxwEBFVMxMBoEM8Bdh9hedfKwAAkJAAAICECncCdA0AoJ9cA+i+suNjBQAAEhIAAJCQAACAhAQAACQkAAAgIQEAAAkJAABIqHAfgPCYaNc5PsAwbAPQfYXHxwoAACRUvgIgETvO8QGGYQmg76wAAEBCAgAAEhIAAJCQAACAhAQAACQkAAAgIQEAAAmV7QMwiIiqmYkA0DG2Aei2wuNTuBGQAug+/wcDw/L90W1lx8clAABISAAAQEICAAASEgAAkJAAAICEBAAAJCQAACAhAQAACQkAAEiocCfAiKjtFNVtjg8whLoO3x/9ZgUAABISAACQkAAAgIQEAAAkJAAAICEBAAAJCQAASEgAAEBChRsBDSKiamQijIqNPIBh2Aio+8qOT1kAOP8D9Jfzf7cVHh+XAAAgIQEAAAkJAABISAAAQEICAAASEgAAkJAAAICEBAAAJFS4E2CEnSK6zvEBhmEnwL6zAgAACZWvAAhEgP7x3d57VgAAICEBAAAJCQAASEgAAEBCAgAAEhIAAJCQAACAhAr3AfCgKEA/2Qmw+8qOjxUAAEiobAVgEBFVMxMBoEP88d99hcfICgAAJCQAACAhAQAACQkAAEhIAABAQgIAABIq3AgowrMiXef4AMPy/dFnVgAAICEBAAAJCQAASKj8HgCXiAD6x3d771kBAICEBAAAJCQAACAhAQAACQkAAEio8CmAQTOzYITcygsMow7fH11XdnysAABAQgIAABISAACQUNk9AC4PAfST7/fuKzxGVgAAICEBAAAJCQAASEgAAEBCAgAAEircCTDCraIAfWQnwL6zAgAACQkAAEhIAABAQgIAABIqvwnQPSLdVrU9AWAs+W7vPSsAPberVgDA3O3y10PvCYCe+0G9OOrtD7U9DWCM1DsejR/EgW1PgxETAD1XVxOx9YEftz0NYIw8svmOtqfAPCi8B2DQzCwYqWt/vCHedNgL2p4GMCY+e9d9EbGs7WkwYlYAEvjYYFXcf/tX2p4GMAbu+/6X4hN7jm17GswDAZDEb29YEptvu7btaQAdtvm2a+Ot9/rLP4sGfguAcXDP9PJ4xUPL48Nf+9s4dcnCmN1/SVQLDmh7WkDL6u0PxfZtD8VNWx6Pd0+e5ayQiEOdzMWTZ0U8EnHw/Zti5Y67254O0LINs4fFppljIibbngnzTQAktWnm4Ng0c3Db0wCgJWUB4CEAAGhH4W6NbgIEgIQEAAAkJAAAIKEGbgL0k1EAMP/KfrDJCgAAJCQAACAhAQAACQkAAEhIAABAQgIAABIqfwzQU4AAMHasAABAQgIAABIqvATg5wABoB1l1+CtAABAQgIAABISAACQkAAAgIQEAAAkJAAAIKGyxwA9BQgA7SjcidcKAAAk1MBGQFUjEwEA5qLs/GsFAAASEgAAkFBRAFQxsb2piQAAc1J0Di4KgEE92FzyfgBgSFVsKnl72QpAVRV9OAAwnDpiY8n7y1YApupbS94PAAxnENM3l7y/KADWvvio26Ou7yoZAwCYo7q+89YzVm4oGaL4KYC6qr5UOgYAsO/qKr5cOkbhRkARVVSfirp+a+k4AMC+qj5ZPEIT0zjhhju/UEWc28RYAMCTq6O+bs2Zz35t6TiNbAQ0mJy8pIlxAICnNlFNrm5knCYGWfuSI9ZEHR9rYiwA4MnUH/n2Gc/6fhMjNfdLPl+tp06s7/xGRHVSY2MCAD9Vf+OWM446Napq0MRozf0WwBnV7mpq6tURcW9jYwIAUdf1PTsHE+c1dfKPaPjHgL59+hH31jPTJ0fEuibHBYC06npNzM780rqzj7yvyWEb/zXANac9455q8cIX1lH/U9NjA0AqdXxmy8Tki9ac9ox7mh66uXsAfoETbvjha6p6cGlU1Qmj/BwA6Jf621FVl95yxlGfH9UnjDQAnnDiV3/0iqgHF9R1XFBVsf98fCYAjJf60Tqqa+pBdfV3zj6yeKe/vZmXAPhZL/jqj15axZ6nV4OJZXVVL63q5i9DAEDX1VW9p6omtkQM7q/ryY1rznzWv7Y9JwAAAAAAAAAAAAAAAAAAAAAAAAAAAAAAAAAAAAAAAAAAAAAAAAAAAAAAAAAAAAAAAAAAAAAAAAAAAAAAAAAAAAAAAAAAAAAAAAAAAAAAAAAAAAAAAAAAAAAAAAAAAAAAAAAAAAAAAAAAAAAAAAAAAAAAAAAAAAAAAAAAgOb9DyRT+6XlmkOfAAAAAElFTkSuQmCC;" vertex="1" parent="1">
          <mxGeometry x="-527.5" y="1000" width="132" height="132" as="geometry" />
        </mxCell>
        <mxCell id="uU7pM81MEspVorwHv3w6-165" value="" style="shape=image;verticalLabelPosition=bottom;labelBackgroundColor=default;verticalAlign=top;aspect=fixed;imageAspect=0;image=data:image/png,iVBORw0KGgoAAAANSUhEUgAAAgAAAAIACAYAAAD0eNT6AAAAAXNSR0IArs4c6QAAElNJREFUeJzt3X3sXXV9wPHP+T22YAstLUgpiqCoEIo8bDJBlAed4BMTZW6LMZtuZlnC5kTLFCfG6ARj0MxlbplZTAYbmCljiok6dMI2nUgttOpA1GGB0kJ5KqWP9+yPyaKZ0P7u99zfOfd8Xq+E/+793m9yyj3v3/ec870RAAAAAAAAAAAAAAAAAAAAAAAAAAAAAAAAAAAAAAAAAAAAAAAAAAAAAAAAAAAAAAAAAAAAAAAAAAAAAAAAAAAAAAAAAAAAAAAAAAAAAAAAAAAAAAAAAAAAAAAAAAAAAAAAAAAAAAAAAAAAAAAAAAAAAAAAAAAAAAAAAAAA86Ga909cvf60iFgRVb0sIg6KqCfnfQ4A0LpqT0Q8EHV1f0TcE5cde9O8fvq8fMrq754e1eB3oq5fG1V14Lx8JgCMlfrBiPhcVFN/E3/2/P8Y9aeNNgBWrz82qsFfRFQvGennAECv1NfHIC6Ky4/73qg+YWJUA8fqdVdEVa9z8geAuarOjYnqu7F63WUj+4TGR3z7+qUxW18bES9ufGwAyOeGqBe+Li476uEmB202AC6+dUnUE9+KKo5qdFwAyO32iMEp8eFVDzY1YHOXAC6tpyKqLzj5A0Djjo6Y+Oe4tG7svN1cADy+/tMR1a80Nh4A8LNOje3r/6qpwZq5BLD6tldGVX2+kbEAgKcw8bL48DFfKR6lialEVB9sZhwA4CnVez7QxDDlAfCu9b8cVRzfwFwAgL2pqlPind89sXSY8gCo6vOLxwAA9t1k/brSIZq4BPDGBsYAAPZVXR4AZTcBvuO/lsX0rs2lkwAA5mjHAfvFFYc/Puzby1YAJnavLHo/ADCchY8W7btTGAD14UXvBwCGU8czSt5eFgBVfVjR+wGA4QzK/ggvvAmwWlj2fgBgKHVddA4e3c8BAwCdJQAAICEBAAAJCQAASEgAAEBCAgAAEhIAAJCQAACAhAQAACQkAAAgIQEAAAkJAABISAAAQEICAAASEgAAkJAAAICEBAAAJCQAACAhAQAACQkAAEhIAABAQgIAABISAACQkAAAgIQEAAAkJAAAICEBAAAJCQAASEgAAEBCAgAAEhIAAJCQAACAhAQAACQkAAAgIQEAAAkJAABISAAAQEICAAASEgAAkJAAAICEBAAAJCQAACAhAQAACQkAAEhIAABAQgIAABISAACQkAAAgIQEAAAkJAAAICEBAAAJCQAASEgAAEBCAgAAEhIAAJCQAACAhAQAACQkAAAgIQEAAAkJAABISAAAQEICAAASEgAAkJAAAICEBAAAJCQAACAhAQAACQkAAEhIAABAQgIAABISAACQ0FTJm5/z8pVTe3bsXNvUZACAfTM5OzN9x+XDv78oAJ528MzSKqaPLxkDAJi7uo7rS97vEgAAJCQAACAhAQAACQkAAEhIAABAQgIAABISAACQkAAAgIQEAAAkJAAAICEBAAAJCQAASEgAAEBCAgAAEhIAAJCQAACAhAQAACQkAAAgIQEAAAkJAABISAAAQEICAAASEgAAkJAAAICEBAAAJCQAACAhAQAACQkAAEhIAABAQgIAABISAACQ0FTbE2D+PWvrnXH0o+vjsG0/iaqu254OEbFjckHcvd/hsXbJybFl5qC2pwMkIAASOe6hW+Lide+NIx77YdtT4Sl8buWvx18f/fZ4ZPqAtqcC9JhLAEmct+Hq+OQ3f8vJfwz82oar46obz4mX3vfltqcC9JgASGDFtrviwu99qO1pMAdLdj0YH/zOhfH+tX8ci3c93PZ0gB4SAAm88b8/HbODnW1PgyGcvfGLcdWN58Rpm25oeypAzwiABI7fcnPbU6DAkl0PxmVr/iAuXfsOqwFAYwRAzy3csy2evfX2tqdBA1628fq48sZz40Wbv9b2VIAeEAA9t2invxj7ZOmuLfGRW34/3rf2nbFo9yNtTwcYYwIAxtDLN34+rrrx3Dhl89fbngowpgQAjKmlOx+Ij97ytnjvrautBgBzJgBgzL3i3uusBgBzJgCgB55YDbjkNqsBwL6xFTCN2LlnNrbWy6OaWfyUr1uwbEUsOuq4eZrVCOx6LAY//noM7v9+2zP5hc6557p44f3/Fu9fdXncfNCL2p4O0GECgGKPbZ+Ju9fdERF37NPrV7zpilh2zh+NdlKjdPp7YtcX/zD2fO/atmfyCy3d+UB8/Oa3xPWHnRdXPO+S2Da1f9tTAjrIJQCK7ZxZOafXP3xzN0+cczF53G+0PYW9Ovfua+Oqm86Jkx/497anAnSQAKBYNfvUy/59VC2eW/S0ZfmOzfHxm98Sf7LuPbHf7sfang7QIQKAYnW9p+0ptKBuewJz8qq7P2s1APg5AgCSeGI14OJ1l1gNAAQAZPPqu//RagAgACCjJ1YDVq//01i4Z1vb0wFaIAAgsdds+ExcedMr44Qt/9n2VIB5JgAguUO2b4xPfOvN8c7177MaAIkIACAiIs7bcI3VAEhEAFBserB1Tq+fWXbEiGYyfwY/+WbbUxiJQ7ZvjD//1pvjovWXWg2AnrMVcN9V1cg/YuHOO+PA554Uu3YN9vra6SWHxkEnnRmDDd8Y+bxGpX5sc+y+8UNtT6NItfCgqA56zpP++zg/7opfvfPiuGn5WXHb0hPjvtmnx47JBfM8S+bDT3YO4r5d47WvBc0QABSbnJqIgxdt3sdXPxBx07rYOdIZ8WSmTr0oJo85P6pFK/b62qUR8Zqf/ke/7dyxNb65aVO8e+uhsW0gBrIQAJDAxPLnx/RrPxXV4sPangodNDP7tHjx4U+Lf3n84XjXXY/Hjbvzbe+dkXsA+q5W89lVy4+J6Tdc7eTPXs0sPCAuP3wmFozZVtcMRwBAj1XLj4mZC66JasEBbU+FMTGz39L4y8V3tT0N5oEAgJ76v5P/7KK2p8KYOW7l89qeAvNAAEAPOflToqqqOKDK+CufuQiAvpuHxwDpFid/mrBi90NtT4EREwB95ybAVJz8aUy99309GG8CAHrCyR+Yi8J9AAbhaZGuc4AycPKncXVtBbHnrADAmKsOWeXkD8yZnQBhjFWHrIqZN/xDVDP7tz0VYMxYAYAx5eQPlBAAMIac/IFSAgDGjJM/0AQBAGPEyR9oigCAMeHkDzRJAMAYcPIHmiYAoOOc/IFRaGAfADtFdZvjM86qQ0+MmfP/zsmflvj+6LayH3srCwC/FdF9/v8dW9WhJ8bM6/8+qukFbU+FrHx/dFvh8XEJADrIyR8YNQEAHTP53FfF7OuvdPKnXWWry4wBvwUAHVEtOTImT/rdmFr1m21PBUhAACRTLVoRk0eeGdUhq6I68JltT4eIiGoyJpYfE+FGP2AeCYAsJqZi6uS3xdQpF0ZMWVoG9sINgL0nAJKYPusDMXmcpWUA/pebABOYeObpTv4A/BwBkMDUyb/X9hQA6JjCSwB2Auq+OqqnH9/2JICxU4cbAbqu7PiU3wPg30enHTg1GdXs4ranAYwj3++95hJAz01VdvMA4P8TAACQkAAAgIQEAAAkJAAAICEBAAAJCQAASKiB3wLwoGi3OT7AMGwE1H1lj3lbAQCAhAQAACRUdgnATwF0nxU8YBiuAHRf4fGxAgAACQkAAEhIAABAQgIAABISAACQkAAAgIQKdwL0HGD3eY4HGIbnALuv7PhYAQCAhAQAACRUvhNg2W8RMGpW8IBhuALQe1YAACAhAQAACQkAAEhIAABAQgIAABJqYCMgjwF0m9t4gWF4DKD7ys6/VgAAICEBAAAJCQAASEgAAEBChTcBhntEus7xAYbhHsDeswIAAAkJAABISAAAQEICAAASKr8J0F0iAD3kLsDuKzs+VgAAICEBAAAJCQAASEgAAEBCZTcB+jXg7nMPDzAM9wB2X+H51woAACQkAAAgIQEAAAkJAABIqHAnQHcBdp+7eIBh+f7oNjsBAgBzJAAAICEBAAAJCQAASEgAAEBChU8BhJtEu87xAYZhK+DuKzw+VgAAICEBAAAJlV8CsEbUcY4PMAzXAPrOCgAAJCQAACAhAQAACQkAAEhIAABAQgIAABIqewxwEBFVMxMBoEM8Bdh9hedfKwAAkJAAAICECncCdA0AoJ9cA+i+suNjBQAAEhIAAJCQAACAhAQAACQkAAAgIQEAAAkJAABIqHAfgPCYaNc5PsAwbAPQfYXHxwoAACRUvgIgETvO8QGGYQmg76wAAEBCAgAAEhIAAJCQAACAhAQAACQkAAAgIQEAAAmV7QMwiIiqmYkA0DG2Aei2wuNTuBGQAug+/wcDw/L90W1lx8clAABISAAAQEICAAASEgAAkJAAAICEBAAAJCQAACAhAQAACQkAAEiocCfAiKjtFNVtjg8whLoO3x/9ZgUAABISAACQkAAAgIQEAAAkJAAAICEBAAAJCQAASEgAAEBChRsBDSKiamQijIqNPIBh2Aio+8qOT1kAOP8D9Jfzf7cVHh+XAAAgIQEAAAkJAABISAAAQEICAAASEgAAkJAAAICEBAAAJFS4E2CEnSK6zvEBhmEnwL6zAgAACZWvAAhEgP7x3d57VgAAICEBAAAJCQAASEgAAEBCAgAAEhIAAJCQAACAhAr3AfCgKEA/2Qmw+8qOjxUAAEiobAVgEBFVMxMBoEP88d99hcfICgAAJCQAACAhAQAACQkAAEhIAABAQgIAABIq3AgowrMiXef4AMPy/dFnVgAAICEBAAAJCQAASKj8HgCXiAD6x3d771kBAICEBAAAJCQAACAhAQAACQkAAEio8CmAQTOzYITcygsMow7fH11XdnysAABAQgIAABISAACQUNk9AC4PAfST7/fuKzxGVgAAICEBAAAJCQAASEgAAEBCAgAAEircCTDCraIAfWQnwL6zAgAACQkAAEhIAABAQgIAABIqvwnQPSLdVrU9AWAs+W7vPSsAPberVgDA3O3y10PvCYCe+0G9OOrtD7U9DWCM1DsejR/EgW1PgxETAD1XVxOx9YEftz0NYIw8svmOtqfAPCi8B2DQzCwYqWt/vCHedNgL2p4GMCY+e9d9EbGs7WkwYlYAEvjYYFXcf/tX2p4GMAbu+/6X4hN7jm17GswDAZDEb29YEptvu7btaQAdtvm2a+Ot9/rLP4sGfguAcXDP9PJ4xUPL48Nf+9s4dcnCmN1/SVQLDmh7WkDL6u0PxfZtD8VNWx6Pd0+e5ayQiEOdzMWTZ0U8EnHw/Zti5Y67254O0LINs4fFppljIibbngnzTQAktWnm4Ng0c3Db0wCgJWUB4CEAAGhH4W6NbgIEgIQEAAAkJAAAIKEGbgL0k1EAMP/KfrDJCgAAJCQAACAhAQAACQkAAEhIAABAQgIAABIqfwzQU4AAMHasAABAQgIAABIqvATg5wABoB1l1+CtAABAQgIAABISAACQkAAAgIQEAAAkJAAAIKGyxwA9BQgA7SjcidcKAAAk1MBGQFUjEwEA5qLs/GsFAAASEgAAkFBRAFQxsb2piQAAc1J0Di4KgEE92FzyfgBgSFVsKnl72QpAVRV9OAAwnDpiY8n7y1YApupbS94PAAxnENM3l7y/KADWvvio26Ou7yoZAwCYo7q+89YzVm4oGaL4KYC6qr5UOgYAsO/qKr5cOkbhRkARVVSfirp+a+k4AMC+qj5ZPEIT0zjhhju/UEWc28RYAMCTq6O+bs2Zz35t6TiNbAQ0mJy8pIlxAICnNlFNrm5knCYGWfuSI9ZEHR9rYiwA4MnUH/n2Gc/6fhMjNfdLPl+tp06s7/xGRHVSY2MCAD9Vf+OWM446Napq0MRozf0WwBnV7mpq6tURcW9jYwIAUdf1PTsHE+c1dfKPaPjHgL59+hH31jPTJ0fEuibHBYC06npNzM780rqzj7yvyWEb/zXANac9455q8cIX1lH/U9NjA0AqdXxmy8Tki9ac9ox7mh66uXsAfoETbvjha6p6cGlU1Qmj/BwA6Jf621FVl95yxlGfH9UnjDQAnnDiV3/0iqgHF9R1XFBVsf98fCYAjJf60Tqqa+pBdfV3zj6yeKe/vZmXAPhZL/jqj15axZ6nV4OJZXVVL63q5i9DAEDX1VW9p6omtkQM7q/ryY1rznzWv7Y9JwAAAAAAAAAAAAAAAAAAAAAAAAAAAAAAAAAAAAAAAAAAAAAAAAAAAAAAAAAAAAAAAAAAAAAAAAAAAAAAAAAAAAAAAAAAAAAAAAAAAAAAAAAAAAAAAAAAAAAAAAAAAAAAAAAAAAAAAAAAAAAAAAAAAAAAAAAAAAAAAAAAgOb9DyRT+6XlmkOfAAAAAElFTkSuQmCC;" vertex="1" parent="1">
          <mxGeometry x="-297.5" y="1000" width="132" height="132" as="geometry" />
        </mxCell>
        <mxCell id="uU7pM81MEspVorwHv3w6-166" value="&lt;font style=&quot;font-size: 21px;&quot;&gt;devcontainer&lt;/font&gt;" style="text;html=1;align=center;verticalAlign=middle;whiteSpace=wrap;rounded=0;" vertex="1" parent="1">
          <mxGeometry x="-497.5" y="1130" width="60" height="30" as="geometry" />
        </mxCell>
        <mxCell id="uU7pM81MEspVorwHv3w6-167" value="&lt;font style=&quot;font-size: 21px;&quot;&gt;prod&lt;/font&gt;&lt;span style=&quot;font-size: 21px; background-color: transparent; color: light-dark(rgb(0, 0, 0), rgb(255, 255, 255));&quot;&gt;container&lt;/span&gt;" style="text;html=1;align=center;verticalAlign=middle;whiteSpace=wrap;rounded=0;" vertex="1" parent="1">
          <mxGeometry x="-261.5" y="1120" width="60" height="30" as="geometry" />
        </mxCell>
        <mxCell id="uU7pM81MEspVorwHv3w6-168" style="edgeStyle=orthogonalEdgeStyle;rounded=0;orthogonalLoop=1;jettySize=auto;html=1;" edge="1" parent="1" source="uU7pM81MEspVorwHv3w6-169" target="uU7pM81MEspVorwHv3w6-163">
          <mxGeometry relative="1" as="geometry" />
        </mxCell>
        <mxCell id="uU7pM81MEspVorwHv3w6-169" value="&lt;font style=&quot;font-size: 21px;&quot;&gt;Storage Account&lt;/font&gt;" style="text;html=1;align=center;verticalAlign=middle;whiteSpace=wrap;rounded=0;" vertex="1" parent="1">
          <mxGeometry x="-447.5" y="901.77" width="195" height="30" as="geometry" />
        </mxCell>
        <mxCell id="uU7pM81MEspVorwHv3w6-170" value="" style="rounded=0;whiteSpace=wrap;html=1;fillColor=#CCFFE6;" vertex="1" parent="1">
          <mxGeometry x="-700" y="320" width="720" height="440" as="geometry" />
        </mxCell>
        <mxCell id="uU7pM81MEspVorwHv3w6-171" value="" style="shape=image;verticalLabelPosition=bottom;labelBackgroundColor=default;verticalAlign=top;aspect=fixed;imageAspect=0;editableCssRules=.*;image=data:image/svg+xml,PHN2ZyB4bWxucz0iaHR0cDovL3d3dy53My5vcmcvMjAwMC9zdmciIHZpZXdCb3g9IjAuMDAwMDAzNjk1NDg3OTc2MDc0MjE4OCAwLjkzNzk5OTkwNDE1NTczMTIgMTcuOTk5OTk0Mjc3OTU0MSAxNi4xMjI0MjEyNjQ2NDg0MzgiIGlkPSJ1dWlkLWZkZDc2ODBlLThhY2UtNDQxYS04YTNhLTczNDEwYzNiMWYyMSIgd2lkdGg9IjE3Ljk5OTk5NDI3Nzk1NDEiIGhlaWdodD0iMTYuMTIyNDIxMjY0NjQ4NDM4Ij48ZGVmcz48bGluZWFyR3JhZGllbnQgZ3JhZGllbnRVbml0cz0idXNlclNwYWNlT25Vc2UiIGdyYWRpZW50VHJhbnNmb3JtPSJ0cmFuc2xhdGUoMCA3OTEuNTE2KSBzY2FsZSgxIC0xKSIgeTI9Ijc4Ni42MzEiIHgyPSIxNC4wODIiIHkxPSI3NzkuMTY4IiB4MT0iNy42OTciIGlkPSJ1dWlkLTM4YzA3OTc3LWFiOWEtNDhlYi1hNjY4LWNkYTMxMDJiYmQ4NSI+PHN0b3Agc3RvcC1jb2xvcj0iIzIyNTA4NiIgb2Zmc2V0PSIwIi8+PHN0b3Agc3RvcC1jb2xvcj0iIzAwNTVjNSIgb2Zmc2V0PSIxIi8+PC9saW5lYXJHcmFkaWVudD48bGluZWFyR3JhZGllbnQgZ3JhZGllbnRVbml0cz0idXNlclNwYWNlT25Vc2UiIGdyYWRpZW50VHJhbnNmb3JtPSJ0cmFuc2xhdGUoMCA3OTEuNTE2KSBzY2FsZSgxIC0xKSIgeTI9Ijc5NC40MTIiIHgyPSI2LjM2NCIgeTE9Ijc3OC4xNjQiIHgxPSI2LjM2NCIgaWQ9InV1aWQtYWVkNGE3YmMtYjM4MC00YzM0LWI4NDEtMmQwZjM0ZDI0ZjE3Ij48c3RvcCBzdG9wLWNvbG9yPSIjNmRmIiBvZmZzZXQ9IjAiLz48c3RvcCBzdG9wLWNvbG9yPSIjMDI5NGU0IiBvZmZzZXQ9IjEiLz48L2xpbmVhckdyYWRpZW50PjxsaW5lYXJHcmFkaWVudCBncmFkaWVudFVuaXRzPSJ1c2VyU3BhY2VPblVzZSIgZ3JhZGllbnRUcmFuc2Zvcm09InRyYW5zbGF0ZSgwIDc5MS41MTYpIHNjYWxlKDEgLTEpIiB5Mj0iNzk0Ljg0NSIgeDI9IjkuMDAxIiB5MT0iNzc1Ljk1NiIgeDE9IjkuMDAxIiBpZD0idXVpZC1lMmE3YjdmMi1iZjE2LTRhNzYtYmEyNy03ZDE0OWFiOGExOTQiPjxzdG9wIHN0b3AtY29sb3I9IiM0NGRiZjkiIG9mZnNldD0iMCIvPjxzdG9wIHN0b3AtY29sb3I9IiNjYmY4ZmYiIG9mZnNldD0iMSIvPjwvbGluZWFyR3JhZGllbnQ+PGxpbmVhckdyYWRpZW50IGdyYWRpZW50VW5pdHM9InVzZXJTcGFjZU9uVXNlIiBncmFkaWVudFRyYW5zZm9ybT0idHJhbnNsYXRlKDAgNzkxLjUxNikgc2NhbGUoMSAtMSkiIHkyPSI3OTAuNzgyIiB4Mj0iMTMuNSIgeTE9Ijc3NC43MjEiIHgxPSIxMy41IiBpZD0idXVpZC1jNjdmMzM2NC0wNzFjLTQxZjktYTE3NS1kM2RlMWY4MzdlMGEiPjxzdG9wIHN0b3AtY29sb3I9IiMwNDE2NDIiIG9mZnNldD0iMCIvPjxzdG9wIHN0b3Atb3BhY2l0eT0iLjI1IiBzdG9wLWNvbG9yPSIjMDQxNjQyIiBvZmZzZXQ9IjEiLz48L2xpbmVhckdyYWRpZW50PjwvZGVmcz48Zz48cGF0aCBzdHJva2Utd2lkdGg9IjAiIGZpbGw9InVybCgjdXVpZC0zOGMwNzk3Ny1hYjlhLTQ4ZWItYTY2OC1jZGEzMTAyYmJkODUpIiBkPSJtMTcuNjQ3LDkuOTA2TDEwLjE0NywxLjQ0NWMtLjU5OS0uNjc2LTEuNjk0LS42NzYtMi4yOTQsMEwuMzUzLDkuOTA2Yy0uNTc5LjY1NC0uNDI4LDEuNjQxLjMyMywyLjExMWw3LjQ5OSw0LjY4OGMuNS4zMTMsMS4xNDguMzEzLDEuNjQ4LDBsNy40OTktNC42ODhjLjc1MS0uNDY5LjkwMi0xLjQ1Ny4zMjMtMi4xMTFoMFoiLz48cGF0aCBzdHJva2Utd2lkdGg9IjAiIGZpbGw9InVybCgjdXVpZC1hZWQ0YTdiYy1iMzgwLTRjMzQtYjg0MS0yZDBmMzRkMjRmMTcpIiBkPSJtMTAuMTQ4LDEuNDQ1Yy0uNTk5LS42NzYtMS42OTQtLjY3Ni0yLjI5NCwwTC4zNTQsOS45MDZjLS41NzkuNjU0LS40MjgsMS42NDEuMzIzLDIuMTExLDAsMCwyLjc3NiwxLjczNSwzLjEyNiwxLjk1NC4zODguMjQyLDEuMDMzLjUxMSwxLjcxNS41MTEuNjIxLDAsMS4xOTctLjE4LDEuNjc2LS40ODcsMCwwLDAsMCwuMDAyLS4wMDFsMS44MDQtMS4xMjgtNC4zNjQtMi43MjgsNC40NzQtNS4wNDdjLjU1LS42MjcsMS4zNzctMS4wMjYsMi4zMDItMS4wMjYuNDcyLDAsLjkxNy4xMDcsMS4zMTQuMjkybC0yLjU3OS0yLjkwOXYtLjAwMloiLz48cG9seWdvbiBzdHJva2Utd2lkdGg9IjAiIGZpbGw9InVybCgjdXVpZC1lMmE3YjdmMi1iZjE2LTRhNzYtYmEyNy03ZDE0OWFiOGExOTQpIiBwb2ludHM9IjQuNjM2IDEwLjEzOCA0LjY4OCAxMC4xNyA5LjAwMSAxMi44NjYgOS4wMDEgMTIuODY2IDEzLjM2NSAxMC4xMzggMTMuMzY2IDEwLjEzOCAxMy4zNjUgMTAuMTM4IDkuMDAxIDUuMjE0IDQuNjM2IDEwLjEzOCIvPjxwYXRoIHN0cm9rZS13aWR0aD0iMCIgb3BhY2l0eT0iLjUiIGZpbGwtb3BhY2l0eT0iLjUiIGZpbGw9InVybCgjdXVpZC1jNjdmMzM2NC0wNzFjLTQxZjktYTE3NS1kM2RlMWY4MzdlMGEpIiBkPSJtOS4wMDEsMTYuOTM5Yy4yODcsMCwuNTc0LS4wNzguODI0LS4yMzRsNy40OTktNC42ODhjLjc1MS0uNDY5LjkwMi0xLjQ1Ny4zMjMtMi4xMTFMMTAuMTQ4LDEuNDQ1Yy0uMy0uMzM4LS43MjMtLjUwNy0xLjE0Ny0uNTA3djE2LjAwMVoiLz48L2c+PGc+PHBhdGggc3Ryb2tlLXdpZHRoPSIwIiBmaWxsPSIjZmZjYTAwIiBkPSJtMTYuNTEyLDEwLjgzMWMuNDY0LS40NTguNDY4LTEuMjA2LjAxLTEuNjctLjAwMy0uMDAzLS4wMDYtLjAwNi0uMDEtLjAxaDBsLTIuMDM1LTIuMDM1Yy0uNDYxLS40NjEtMS4yMDgtLjQ2MS0xLjY2OSwwaDBsLTIuMDM1LDIuMDM1Yy0uNDU2LjQ2Ny0uNDU2LDEuMjEzLDAsMS42NzlsMS43LDEuN2MuMDYxLjA2My4wOTQuMTQ3LjA5Mi4yMzR2My4xNTVjLS4wMDMuMTA4LjA0MS4yMTMuMTIyLjI4NWwuNzczLjc3M2MuMDk1LjEwNC4yNTUuMTEyLjM1OS4wMTcuMDA2LS4wMDUuMDEyLS4wMTEuMDE3LS4wMTdsLjc0My0uNzQzaDBsLjQ0OC0uNDQ4Yy4wNTgtLjA1OS4wNTgtLjE1NCwwLS4yMTRsLS4zMTYtLjMxNWMtLjA2Ny0uMDU5LS4wNzQtLjE2Mi0uMDE0LS4yMy4wMDUtLjAwNS4wMDktLjAxLjAxNC0uMDE0bC4zMTYtLjMxNmMuMDU5LS4wNjMuMDU5LS4xNjEsMC0uMjI0bC0uMzE2LS4zMTZjLS4wNjUtLjA1NC0uMDczLS4xNS0uMDE5LS4yMTUuMDA2LS4wMDcuMDEyLS4wMTMuMDE5LS4wMTlsLjMxNi0uMzI2Yy4wNTgtLjA1OS4wNTgtLjE1NCwwLS4yMTRsLS40NDgtLjQ0OHYtLjE2M2wxLjkzNC0xLjk0NFptLTIuODctMy4yMjZjLjM3MSwwLC42NzIuMzAxLjY3Mi42NzJzLS4zMDEuNjcyLS42NzIuNjcyLS42NzItLjMwMS0uNjcyLS42NzJoMGMwLS4zNzEuMzAxLS42NzIuNjcyLS42NzJaIiBpZD0idXVpZC1mNjY0OGQ4Ni0wNDhhLTRmNDAtYTZkZi03Y2UxMjAxMTZhOTgiLz48cGF0aCBzdHJva2Utd2lkdGg9IjAiIG9wYWNpdHk9Ii43NSIgZmlsbD0iI2ZmOTMwMCIgZD0ibTEzLjEzMywxNi4wNDJoMGMuMDU1LjA1Ny4xNDUuMDU4LjIwMS4wMDMuMDMxLS4wMy4wNDctLjA3Mi4wNDMtLjExNXYtMi42MDVjLjAwMi0uMDUxLS4wMjEtLjEtLjA2MS0uMTMyaDBjLS4wNjQtLjA0NS0uMTUzLS4wMy0uMTk5LjAzNC0uMDIuMDI5LS4wMjkuMDY0LS4wMjUuMDk4djIuNTU1Yy0uMDIuMDU4LS4wMDQuMTIyLjA0MS4xNjNaIiBpZD0idXVpZC1lMTY5N2JmNC04ZTVkLTRkNjItOTBjOS02NTY5ZDc5ZDQ5NDQiLz48cmVjdCBzdHJva2Utd2lkdGg9IjAiIG9wYWNpdHk9Ii43NSIgZmlsbD0iI2ZmOTMwMCIgcnk9Ii4xODMiIHJ4PSIuMTgzIiBoZWlnaHQ9Ii4zOTciIHdpZHRoPSIzLjM0OCIgeT0iOS44MzQiIHg9IjEyLjAxNCIgaWQ9InV1aWQtYzkzMGQ0YzItOWY0MS00OGM3LWFkZjctYWNiZDczYWY2ZmJmIi8+PHJlY3Qgc3Ryb2tlLXdpZHRoPSIwIiBvcGFjaXR5PSIuNzUiIGZpbGw9IiNmZjkzMDAiIHJ5PSIuMTgzIiByeD0iLjE4MyIgaGVpZ2h0PSIuMzk3IiB3aWR0aD0iMy4zNDgiIHk9IjEwLjQ3NSIgeD0iMTIuMDE0IiBpZD0idXVpZC03NTVhYWE0Ni04Yjg5LTQ1ZjUtOWRhMC04YTQyNzgyYzVkZGQiLz48L2c+PC9zdmc+;" vertex="1" parent="1">
          <mxGeometry x="-740" y="270" width="112.5" height="100" as="geometry" />
        </mxCell>
        <mxCell id="uU7pM81MEspVorwHv3w6-172" value="" style="shape=image;verticalLabelPosition=bottom;labelBackgroundColor=default;verticalAlign=top;aspect=fixed;imageAspect=0;editableCssRules=.*;image=data:image/svg+xml,PHN2ZyB4bWxucz0iaHR0cDovL3d3dy53My5vcmcvMjAwMC9zdmciIHZpZXdCb3g9IjAuODIxNTQ3MzI5NDI1ODExOCAwIDE2LjM1NjIwMzA3OTIyMzYzMyAxOCIgaWQ9ImUyNDY3MWY2LWY1MDEtNDk1Mi1hMmRiLThiMGIxZDMyOWMxNyIgd2lkdGg9IjE2LjM1NjIwMzA3OTIyMzYzMyIgaGVpZ2h0PSIxOCI+PGRlZnM+PGxpbmVhckdyYWRpZW50IGdyYWRpZW50VW5pdHM9InVzZXJTcGFjZU9uVXNlIiB5Mj0iMjAuNDUiIHgyPSI5IiB5MT0iNi44OCIgeDE9IjkiIGlkPSJiZTkyOTAxYi1lYzMzLTRjNjUtYWRmMS05YjBlZWQwNmQ2NzciPjxzdG9wIHN0b3AtY29sb3I9IiMzMmQ0ZjUiIG9mZnNldD0iMC4yMiIvPjxzdG9wIHN0b3AtY29sb3I9IiMxOThhYjMiIG9mZnNldD0iMSIvPjwvbGluZWFyR3JhZGllbnQ+PGxpbmVhckdyYWRpZW50IGdyYWRpZW50VW5pdHM9InVzZXJTcGFjZU9uVXNlIiB5Mj0iMTEuOTIiIHgyPSI5LjYiIHkxPSItMC40IiB4MT0iOC42MSIgaWQ9ImI0NmZjMjQ2LTI1ZDgtNDM5OC04Nzc5LTEwNDJlOGNhY2FlNyI+PHN0b3Agc3RvcC1jb2xvcj0iIzMyZDRmNSIgb2Zmc2V0PSIwLjIyIi8+PHN0b3Agc3RvcC1jb2xvcj0iIzE5OGFiMyIgb2Zmc2V0PSIxIi8+PC9saW5lYXJHcmFkaWVudD48L2RlZnM+PHRpdGxlPkljb24taWRlbnRpdHktMjMwPC90aXRsZT48cGF0aCBmaWxsPSJ1cmwoI2JlOTI5MDFiLWVjMzMtNGM2NS1hZGYxLTliMGVlZDA2ZDY3NykiIGQ9Ik0xNS43MiwxOGExLjQ1LDEuNDUsMCwwLDAsMS40NS0xLjQ1LjQ3LjQ3LDAsMCwwLDAtLjE3QzE2LjU5LDExLjgxLDE0LDguMDksOSw4LjA5UzEuMzQsMTEuMjQuODMsMTYuMzlBMS40NiwxLjQ2LDAsMCwwLDIuMTQsMThIMTUuNzJaIi8+PHBhdGggb3BhY2l0eT0iMC44IiBmaWxsPSIjZmZmIiBkPSJNOSw5LjE3YTQuNTksNC41OSwwLDAsMS0yLjQ4LS43M0w5LDE0Ljg2bDIuNDQtNi4zOEE0LjUzLDQuNTMsMCwwLDEsOSw5LjE3WiIvPjxjaXJjbGUgZmlsbD0idXJsKCNiNDZmYzI0Ni0yNWQ4LTQzOTgtODc3OS0xMDQyZThjYWNhZTcpIiByPSI0LjU4IiBjeT0iNC41OCIgY3g9IjkuMDEiLz48L3N2Zz4=;" vertex="1" parent="1">
          <mxGeometry x="-605.33" y="340" width="97.33" height="109.5" as="geometry" />
        </mxCell>
        <mxCell id="uU7pM81MEspVorwHv3w6-173" value="" style="shape=image;verticalLabelPosition=bottom;labelBackgroundColor=default;verticalAlign=top;aspect=fixed;imageAspect=0;editableCssRules=.*;image=data:image/svg+xml,PHN2ZyB4bWxucz0iaHR0cDovL3d3dy53My5vcmcvMjAwMC9zdmciIHZpZXdCb3g9IjAuODIxNTQ3MzI5NDI1ODExOCAwIDE2LjM1NjIwMzA3OTIyMzYzMyAxOCIgaWQ9ImUyNDY3MWY2LWY1MDEtNDk1Mi1hMmRiLThiMGIxZDMyOWMxNyIgd2lkdGg9IjE2LjM1NjIwMzA3OTIyMzYzMyIgaGVpZ2h0PSIxOCI+PGRlZnM+PGxpbmVhckdyYWRpZW50IGdyYWRpZW50VW5pdHM9InVzZXJTcGFjZU9uVXNlIiB5Mj0iMjAuNDUiIHgyPSI5IiB5MT0iNi44OCIgeDE9IjkiIGlkPSJiZTkyOTAxYi1lYzMzLTRjNjUtYWRmMS05YjBlZWQwNmQ2NzciPjxzdG9wIHN0b3AtY29sb3I9IiMzMmQ0ZjUiIG9mZnNldD0iMC4yMiIvPjxzdG9wIHN0b3AtY29sb3I9IiMxOThhYjMiIG9mZnNldD0iMSIvPjwvbGluZWFyR3JhZGllbnQ+PGxpbmVhckdyYWRpZW50IGdyYWRpZW50VW5pdHM9InVzZXJTcGFjZU9uVXNlIiB5Mj0iMTEuOTIiIHgyPSI5LjYiIHkxPSItMC40IiB4MT0iOC42MSIgaWQ9ImI0NmZjMjQ2LTI1ZDgtNDM5OC04Nzc5LTEwNDJlOGNhY2FlNyI+PHN0b3Agc3RvcC1jb2xvcj0iIzMyZDRmNSIgb2Zmc2V0PSIwLjIyIi8+PHN0b3Agc3RvcC1jb2xvcj0iIzE5OGFiMyIgb2Zmc2V0PSIxIi8+PC9saW5lYXJHcmFkaWVudD48L2RlZnM+PHRpdGxlPkljb24taWRlbnRpdHktMjMwPC90aXRsZT48cGF0aCBmaWxsPSJ1cmwoI2JlOTI5MDFiLWVjMzMtNGM2NS1hZGYxLTliMGVlZDA2ZDY3NykiIGQ9Ik0xNS43MiwxOGExLjQ1LDEuNDUsMCwwLDAsMS40NS0xLjQ1LjQ3LjQ3LDAsMCwwLDAtLjE3QzE2LjU5LDExLjgxLDE0LDguMDksOSw4LjA5UzEuMzQsMTEuMjQuODMsMTYuMzlBMS40NiwxLjQ2LDAsMCwwLDIuMTQsMThIMTUuNzJaIi8+PHBhdGggb3BhY2l0eT0iMC44IiBmaWxsPSIjZmZmIiBkPSJNOSw5LjE3YTQuNTksNC41OSwwLDAsMS0yLjQ4LS43M0w5LDE0Ljg2bDIuNDQtNi4zOEE0LjUzLDQuNTMsMCwwLDEsOSw5LjE3WiIvPjxjaXJjbGUgZmlsbD0idXJsKCNiNDZmYzI0Ni0yNWQ4LTQzOTgtODc3OS0xMDQyZThjYWNhZTcpIiByPSI0LjU4IiBjeT0iNC41OCIgY3g9IjkuMDEiLz48L3N2Zz4=;" vertex="1" parent="1">
          <mxGeometry x="-180.00000000000006" y="330" width="97.33" height="109.5" as="geometry" />
        </mxCell>
        <mxCell id="uU7pM81MEspVorwHv3w6-174" value="" style="shape=image;verticalLabelPosition=bottom;labelBackgroundColor=default;verticalAlign=top;aspect=fixed;imageAspect=0;editableCssRules=.*;image=data:image/svg+xml,PHN2ZyB4bWxucz0iaHR0cDovL3d3dy53My5vcmcvMjAwMC9zdmciIHZpZXdCb3g9Ii0wLjAwNTY2NDQxODQ1MTQ4ODAxOCAxLjYzOTk5OTg2NjQ4NTU5NTcgMTguMDI2NjYwOTE5MTg5NDUzIDE0LjcyMDAwMTIyMDcwMzEyNSIgaWQ9ImE1YzJjMzRhLWE1ZjktNDA0My1hMDg0LWU1MWI3NDQ5Nzg5NSIgd2lkdGg9IjE4LjAyNjY2MDkxOTE4OTQ1MyIgaGVpZ2h0PSIxNC43MjAwMDEyMjA3MDMxMjUiPjxkZWZzPjxsaW5lYXJHcmFkaWVudCBncmFkaWVudFVuaXRzPSJ1c2VyU3BhY2VPblVzZSIgeTI9IjE4LjM2IiB4Mj0iNi43IiB5MT0iNy4yNiIgeDE9IjYuNyIgaWQ9ImY5NzM2MGZhLWZkMTMtNDIwYi05YjQzLTc0YjhkZGU4M2ExMSI+PHN0b3Agc3RvcC1jb2xvcj0iIzMyZDRmNSIgb2Zmc2V0PSIwLjIyIi8+PHN0b3Agc3RvcC1jb2xvcj0iIzE5OGFiMyIgb2Zmc2V0PSIxIi8+PC9saW5lYXJHcmFkaWVudD48bGluZWFyR3JhZGllbnQgZ3JhZGllbnRVbml0cz0idXNlclNwYWNlT25Vc2UiIHkyPSIxMS4zOSIgeDI9IjcuMjMiIHkxPSIxLjMyIiB4MT0iNi40MiIgaWQ9ImIyYWI0MDcxLTUyOWQtNDQ1MC05NDQzLWU2ZGMwOTM5Y2M0ZSI+PHN0b3Agc3RvcC1jb2xvcj0iIzMyZDRmNSIgb2Zmc2V0PSIwLjIyIi8+PHN0b3Agc3RvcC1jb2xvcj0iIzE5OGFiMyIgb2Zmc2V0PSIxIi8+PC9saW5lYXJHcmFkaWVudD48L2RlZnM+PHRpdGxlPkljb24taWRlbnRpdHktMjIzPC90aXRsZT48cGF0aCBmaWxsPSIjMDA3OGQ0IiBkPSJNMTcuMjIsMTMuOTJhLjc5Ljc5LDAsMCwwLC44LS43OUEuMjguMjgsMCwwLDAsMTgsMTNjLS4zMS0yLjUtMS43NC00LjU0LTQuNDYtNC41NFM5LjM1LDEwLjIyLDkuMDcsMTNhLjgxLjgxLDAsMCwwLC43Mi44OGg3LjQzWiIvPjxwYXRoIG9wYWNpdHk9IjAuOCIgZmlsbD0iI2ZmZiIgZD0iTTEzLjU1LDkuMDlhMi40NCwyLjQ0LDAsMCwxLTEuMzYtLjRsMS4zNSwzLjUyLDEuMzMtMy40OUEyLjU0LDIuNTQsMCwwLDEsMTMuNTUsOS4wOVoiLz48Y2lyY2xlIGZpbGw9IiMwMDc4ZDQiIHI9IjIuNTEiIGN5PSI2LjU4IiBjeD0iMTMuNTUiLz48cGF0aCBmaWxsPSJ1cmwoI2Y5NzM2MGZhLWZkMTMtNDIwYi05YjQzLTc0YjhkZGU4M2ExMSkiIGQ9Ik0xMi4xOSwxNi4zNmExLjE5LDEuMTksMCwwLDAsMS4xOS0xLjE5LjY2LjY2LDAsMCwwLDAtLjE0Yy0uNDctMy43NC0yLjYtNi43OC02LjY2LTYuNzhTLjQ0LDEwLjgzLDAsMTVhMS4yLDEuMiwwLDAsMCwxLjA3LDEuMzFoMTEuMVoiLz48cGF0aCBvcGFjaXR5PSIwLjgiIGZpbGw9IiNmZmYiIGQ9Ik02Ljc3LDkuMTRhMy43MiwzLjcyLDAsMCwxLTItLjZsMiw1LjI1LDItNS4yMUEzLjgxLDMuODEsMCwwLDEsNi43Nyw5LjE0WiIvPjxjaXJjbGUgZmlsbD0idXJsKCNiMmFiNDA3MS01MjlkLTQ0NTAtOTQ0My1lNmRjMDkzOWNjNGUpIiByPSIzLjc1IiBjeT0iNS4zOSIgY3g9IjYuNzQiLz48L3N2Zz4=;" vertex="1" parent="1">
          <mxGeometry x="-664.67" y="500" width="216" height="180" as="geometry" />
        </mxCell>
        <mxCell id="uU7pM81MEspVorwHv3w6-175" style="edgeStyle=orthogonalEdgeStyle;rounded=0;orthogonalLoop=1;jettySize=auto;html=1;" edge="1" parent="1" source="uU7pM81MEspVorwHv3w6-176" target="uU7pM81MEspVorwHv3w6-174">
          <mxGeometry relative="1" as="geometry" />
        </mxCell>
        <mxCell id="uU7pM81MEspVorwHv3w6-176" value="&lt;font style=&quot;font-size: 18px;&quot;&gt;Dev user&lt;/font&gt;" style="text;html=1;align=center;verticalAlign=middle;whiteSpace=wrap;rounded=0;" vertex="1" parent="1">
          <mxGeometry x="-595" y="449.5" width="76.67" height="30" as="geometry" />
        </mxCell>
        <mxCell id="uU7pM81MEspVorwHv3w6-177" style="edgeStyle=orthogonalEdgeStyle;rounded=0;orthogonalLoop=1;jettySize=auto;html=1;entryX=0.5;entryY=0;entryDx=0;entryDy=0;" edge="1" parent="1" source="uU7pM81MEspVorwHv3w6-178" target="uU7pM81MEspVorwHv3w6-182">
          <mxGeometry relative="1" as="geometry" />
        </mxCell>
        <mxCell id="uU7pM81MEspVorwHv3w6-178" value="&lt;font style=&quot;font-size: 18px;&quot;&gt;Prod user&lt;/font&gt;" style="text;html=1;align=center;verticalAlign=middle;whiteSpace=wrap;rounded=0;" vertex="1" parent="1">
          <mxGeometry x="-172" y="439.5" width="81.33" height="30" as="geometry" />
        </mxCell>
        <mxCell id="uU7pM81MEspVorwHv3w6-179" style="edgeStyle=orthogonalEdgeStyle;rounded=0;orthogonalLoop=1;jettySize=auto;html=1;entryX=0;entryY=0.5;entryDx=0;entryDy=0;" edge="1" parent="1" source="uU7pM81MEspVorwHv3w6-181" target="uU7pM81MEspVorwHv3w6-162">
          <mxGeometry relative="1" as="geometry" />
        </mxCell>
        <mxCell id="uU7pM81MEspVorwHv3w6-180" style="edgeStyle=orthogonalEdgeStyle;rounded=0;orthogonalLoop=1;jettySize=auto;html=1;entryX=0;entryY=0.5;entryDx=0;entryDy=0;strokeColor=#000000;fillColor=#000000;" edge="1" parent="1" source="uU7pM81MEspVorwHv3w6-181" target="uU7pM81MEspVorwHv3w6-164">
          <mxGeometry relative="1" as="geometry">
            <Array as="points">
              <mxPoint x="-740" y="710" />
              <mxPoint x="-740" y="1066" />
            </Array>
          </mxGeometry>
        </mxCell>
        <mxCell id="uU7pM81MEspVorwHv3w6-181" value="&lt;font style=&quot;font-size: 18px;&quot;&gt;Development Group&lt;/font&gt;" style="text;html=1;align=center;verticalAlign=middle;whiteSpace=wrap;rounded=0;" vertex="1" parent="1">
          <mxGeometry x="-639.9" y="695" width="141.67" height="30" as="geometry" />
        </mxCell>
        <mxCell id="uU7pM81MEspVorwHv3w6-182" value="" style="shape=image;verticalLabelPosition=bottom;labelBackgroundColor=default;verticalAlign=top;aspect=fixed;imageAspect=0;editableCssRules=.*;image=data:image/svg+xml,PHN2ZyB4bWxucz0iaHR0cDovL3d3dy53My5vcmcvMjAwMC9zdmciIHZpZXdCb3g9Ii0wLjAwNTY2NDQxODQ1MTQ4ODAxOCAxLjYzOTk5OTg2NjQ4NTU5NTcgMTguMDI2NjYwOTE5MTg5NDUzIDE0LjcyMDAwMTIyMDcwMzEyNSIgaWQ9ImE1YzJjMzRhLWE1ZjktNDA0My1hMDg0LWU1MWI3NDQ5Nzg5NSIgd2lkdGg9IjE4LjAyNjY2MDkxOTE4OTQ1MyIgaGVpZ2h0PSIxNC43MjAwMDEyMjA3MDMxMjUiPjxkZWZzPjxsaW5lYXJHcmFkaWVudCBncmFkaWVudFVuaXRzPSJ1c2VyU3BhY2VPblVzZSIgeTI9IjE4LjM2IiB4Mj0iNi43IiB5MT0iNy4yNiIgeDE9IjYuNyIgaWQ9ImY5NzM2MGZhLWZkMTMtNDIwYi05YjQzLTc0YjhkZGU4M2ExMSI+PHN0b3Agc3RvcC1jb2xvcj0iIzMyZDRmNSIgb2Zmc2V0PSIwLjIyIi8+PHN0b3Agc3RvcC1jb2xvcj0iIzE5OGFiMyIgb2Zmc2V0PSIxIi8+PC9saW5lYXJHcmFkaWVudD48bGluZWFyR3JhZGllbnQgZ3JhZGllbnRVbml0cz0idXNlclNwYWNlT25Vc2UiIHkyPSIxMS4zOSIgeDI9IjcuMjMiIHkxPSIxLjMyIiB4MT0iNi40MiIgaWQ9ImIyYWI0MDcxLTUyOWQtNDQ1MC05NDQzLWU2ZGMwOTM5Y2M0ZSI+PHN0b3Agc3RvcC1jb2xvcj0iIzMyZDRmNSIgb2Zmc2V0PSIwLjIyIi8+PHN0b3Agc3RvcC1jb2xvcj0iIzE5OGFiMyIgb2Zmc2V0PSIxIi8+PC9saW5lYXJHcmFkaWVudD48L2RlZnM+PHRpdGxlPkljb24taWRlbnRpdHktMjIzPC90aXRsZT48cGF0aCBmaWxsPSIjMDA3OGQ0IiBkPSJNMTcuMjIsMTMuOTJhLjc5Ljc5LDAsMCwwLC44LS43OUEuMjguMjgsMCwwLDAsMTgsMTNjLS4zMS0yLjUtMS43NC00LjU0LTQuNDYtNC41NFM5LjM1LDEwLjIyLDkuMDcsMTNhLjgxLjgxLDAsMCwwLC43Mi44OGg3LjQzWiIvPjxwYXRoIG9wYWNpdHk9IjAuOCIgZmlsbD0iI2ZmZiIgZD0iTTEzLjU1LDkuMDlhMi40NCwyLjQ0LDAsMCwxLTEuMzYtLjRsMS4zNSwzLjUyLDEuMzMtMy40OUEyLjU0LDIuNTQsMCwwLDEsMTMuNTUsOS4wOVoiLz48Y2lyY2xlIGZpbGw9IiMwMDc4ZDQiIHI9IjIuNTEiIGN5PSI2LjU4IiBjeD0iMTMuNTUiLz48cGF0aCBmaWxsPSJ1cmwoI2Y5NzM2MGZhLWZkMTMtNDIwYi05YjQzLTc0YjhkZGU4M2ExMSkiIGQ9Ik0xMi4xOSwxNi4zNmExLjE5LDEuMTksMCwwLDAsMS4xOS0xLjE5LjY2LjY2LDAsMCwwLDAtLjE0Yy0uNDctMy43NC0yLjYtNi43OC02LjY2LTYuNzhTLjQ0LDEwLjgzLDAsMTVhMS4yLDEuMiwwLDAsMCwxLjA3LDEuMzFoMTEuMVoiLz48cGF0aCBvcGFjaXR5PSIwLjgiIGZpbGw9IiNmZmYiIGQ9Ik02Ljc3LDkuMTRhMy43MiwzLjcyLDAsMCwxLTItLjZsMiw1LjI1LDItNS4yMUEzLjgxLDMuODEsMCwwLDEsNi43Nyw5LjE0WiIvPjxjaXJjbGUgZmlsbD0idXJsKCNiMmFiNDA3MS01MjlkLTQ0NTAtOTQ0My1lNmRjMDkzOWNjNGUpIiByPSIzLjc1IiBjeT0iNS4zOSIgY3g9IjYuNzQiLz48L3N2Zz4=;" vertex="1" parent="1">
          <mxGeometry x="-239.33000000000004" y="500" width="216" height="180" as="geometry" />
        </mxCell>
        <mxCell id="uU7pM81MEspVorwHv3w6-183" style="edgeStyle=orthogonalEdgeStyle;rounded=0;orthogonalLoop=1;jettySize=auto;html=1;entryX=1;entryY=0.5;entryDx=0;entryDy=0;" edge="1" parent="1" source="uU7pM81MEspVorwHv3w6-185" target="uU7pM81MEspVorwHv3w6-162">
          <mxGeometry relative="1" as="geometry" />
        </mxCell>
        <mxCell id="uU7pM81MEspVorwHv3w6-184" style="edgeStyle=orthogonalEdgeStyle;rounded=0;orthogonalLoop=1;jettySize=auto;html=1;entryX=1;entryY=0.5;entryDx=0;entryDy=0;" edge="1" parent="1" source="uU7pM81MEspVorwHv3w6-185" target="uU7pM81MEspVorwHv3w6-165">
          <mxGeometry relative="1" as="geometry">
            <Array as="points">
              <mxPoint x="60" y="717" />
              <mxPoint x="60" y="1066" />
            </Array>
          </mxGeometry>
        </mxCell>
        <mxCell id="uU7pM81MEspVorwHv3w6-185" value="&lt;font style=&quot;font-size: 18px;&quot;&gt;Production Group&lt;/font&gt;" style="text;html=1;align=center;verticalAlign=middle;whiteSpace=wrap;rounded=0;" vertex="1" parent="1">
          <mxGeometry x="-202.17000000000002" y="702" width="141.67" height="30" as="geometry" />
        </mxCell>
        <mxCell id="uU7pM81MEspVorwHv3w6-186" style="edgeStyle=orthogonalEdgeStyle;rounded=0;orthogonalLoop=1;jettySize=auto;html=1;" edge="1" parent="1" source="uU7pM81MEspVorwHv3w6-188" target="uU7pM81MEspVorwHv3w6-182">
          <mxGeometry relative="1" as="geometry" />
        </mxCell>
        <mxCell id="uU7pM81MEspVorwHv3w6-187" style="edgeStyle=orthogonalEdgeStyle;rounded=0;orthogonalLoop=1;jettySize=auto;html=1;" edge="1" parent="1" source="uU7pM81MEspVorwHv3w6-188" target="uU7pM81MEspVorwHv3w6-174">
          <mxGeometry relative="1" as="geometry" />
        </mxCell>
        <mxCell id="uU7pM81MEspVorwHv3w6-188" value="" style="shape=image;verticalLabelPosition=bottom;labelBackgroundColor=default;verticalAlign=top;aspect=fixed;imageAspect=0;image=data:image/jpeg,/9j/2wBDAAoKCgoKCgsMDAsPEA4QDxYUExMUFiIYGhgaGCIzICUgICUgMy03LCksNy1RQDg4QFFeT0pPXnFlZXGPiI+7u/v/2wBDAQoKCgoKCgsMDAsPEA4QDxYUExMUFiIYGhgaGCIzICUgICUgMy03LCksNy1RQDg4QFFeT0pPXnFlZXGPiI+7u/v/wgARCAZABkADASIAAhEBAxEB/8QAGwABAAIDAQEAAAAAAAAAAAAAAAYHAQQFAwL/xAAaAQEAAgMBAAAAAAAAAAAAAAAABAUBAgMG/9oADAMBAAIQAxAAAAC5gAAAAAAAAAAAAAAAAAAAAAAAAAAAAAAAAAAAAAAAAAAAAAAAAAAAAAAAAAAAAAAAAAAAAAAAAAAAAAAAAAAAAAAAAAAAAAAAAAAAAAAAAAAAAAAAAAAAAAAAAAAAAAAAAAAAAAAAAAAAAAAAAAAAAAAAAAAAAAAAAAAAAAAAAAAAAAAAAAAAAAAAAAAAAAAAAAAAAAAAAAAAAAAAAAAAAAAAAAAAAAAAAAAAAAAAAAAAAAAAAAAAAAAAAAAAAAAAAAAAAAAAAAAAAAAAAAAAAAAAAAAAAAAAAAAAAAAAAAAAAAAAAAAAAAAAAAAAAAAAAAAAAAAAAAAAAAAAAAAAAAAAAAAAAAAAAAAAAAAAAAAAAAAAAAAAAAAAAAAAAAAAAAAAAAAAAAAAAAAAAAAAAAAAAAAAAAAAAAAAAAAAAAAAAAAAAAAAAAAAAAAAAAAAAAAAAAAAAAAAAAAAAAAAAAAAAAAAAAAAAAAAAAAAAAAAAAAAAAAAAAAAAAAAAAAAAAAAAAAAAAAAAAAAAAAAAAAAAAAAAAAAAAAAAAAAAAAAAAAAAAAAAAAAAAAAAAAAAAAAAAAAAAAAAAAAAAAAAAAAAAAAAAAAAAAAAAAAAAAAAAAAAAAAAAAAAAAAAAAAAAAAAAAAAAAAAAAAAAAAAAAAAAAAAAAAAAAAAAAAAAAAAAAAAAAAAAAAAAAAAAAAAAAAAAAAAAAAAAAAAAAAAAAAAAAAAAAAAAAAAAAAAAAAAAAAAAAAAAAAAAAAAAAAAAAAAAAAAAAAAAAAAAAAAAAAAAAAAAAAAAAAAAAAAAAAAAAAAAAAAAAAAAAAAAAAAAAAAAAAAAAAAAAAAAAAAAAAAAAAAAAAAAAAAAAAAAAAAAAAAAAAAAAAAAAAAAAAAAAAAAAAAAAAAAAAAAAAAAAAAAAAAAAAAAAAAAAAAAAAAAAAAAAAAAAAAAAAAAAAAAAAAAAAAAAAAAAAAAAAAAAAAAAAAAAAAAAAAAAAAAAAAAAAAAAAAAAAAAAAAAAAAAAAAAAAAAAAAAAAAAAAAAAAAAAAAAAAAAAAAAAAAAAAAAAAAAAAAAAAAAAAAAAAAAAAAAAAAAAAAAAAAAAAAAAAAAAAAAAAAAAAAAAAAAAAAAAAAAAAAAAAAAAADBnDzzr6Z8vQyxnGwAAAAAAAAAAAAAAAAAAAAAAAAAAAAAAAAAAAAAAAAAAAAAAAAAAAAAAAAAAAAAAAAAAAAAAAAAAAAAAAAAAAAAAAAAAAAAAwYecT7Q+7weR27Gg5HhNtzG9ee890jhd/icTbFkobLa6992M8JgAAAAAAAAAAAAAAAAAAAAAAAAAAAAAAAAAAAAAAAAAAAAAAAAAAAAAAAAAAAAAAAAAAAAAAAAAAAAAAAAAAAAAAAAAAAHz8fcT7RNL4xObHz+vuZVPqMsMb5YGNPdZ1gH3N4Hb+ZnnpEZdW330OMoAAAAAAAAAAAAAAAAAAAAAAAAAAAAAAAAAAAAAAAAAAAAAAAAAAAAAAAAAAAAAAAAAAAAAAAAAAAAAAAAAAAAAAAD5YiPWHL0N7u/LrsI9jpwGRaFt5aTdEqvSvD3w2r35mS185DPuXQjvDsPY0d6k9Y5/RY2rGwYnvW/nZYKf0oAAAAAAAAAAAAAAAAAAAAAAAAAAAAAAAAAAAAAAAAAAAAAAAAAAAAAAAAAAAAAAAAAAAAAAAAAAAAAAAAAAAAAAAHzpbrOkV4tiec2mgXc1OJPp9/uRSac+/ZFN61jIxjmxaTXzqtd/nWdFYG9o71N6cy07RviyWE3PmbMzDe5XXHYYzHnAAAAAAAAAAAAAAAAAAAAAAAAAAAAAAAAAAAAAAAAAAAAAAAAAAAAAAAAAAAAAAAAAAAAAAAAAAAAAAAAAAAAAAYPhj68uDHZtNI+B6SCXWxbanEQxtx5lDZJ2jykUXsgNbkd504cGI2XWlpQT7f0N+q9BkaduHEe/pXPmvXi2V8xptdyH3jkqDPfaspLEsJQ8/SBa5DIAAAAAAAAAAAAAAAAAAAAAAAAAAAAAAAAAAAAAAAAAAAAAAAAAAAAAAAAAAAAAAAAAAAAAAAAAAAAAAAAAwYz5xjrE68T1pHZ+d4sm631Ct/plEttWvZNxrby/R5M+r/Kw/qOSOs9A8vXz07RDG7i187p8ST56cevv+fpT+mz8/Ub20jsli1i2VJ7Cp9ExkcKKWN8TK2u5hzYxPrLRQ6WVV57DjJAAAAAAAAAAAAAAAAAAAAAAAAAAAAAAAAAAAAAAAAAAAAAAAAAAAAAAAAAAAAAAAAAAAAAAAAAAAAAAAGDGv8QqVV+/jty+ZU6nRKr0xljphkQLudn2l1WeL2kafWc104rceas1FpJVei9WXKSMGHnG+sbpQjErtqDY7hT+jyNOoDGR887pM6Vv6z2E3FDMtmtZ5CsugIc8AAAAAAAAAAAAAAAAAAAAAAAAAAAAAAAAAAAAAAAAAAAAAAAAAAAAAAAAAAAAAAAAAAAAAAAAAAAAAD50vWDSqp08yuTXfX1jNZ6YAAAADHI67blXutZPKsqPgbvzq9Oe5pZ2mY97y7q6dOT2Csu8jXqAAAA+frBC+LZcNtqOTb1Z2FFmbgh2AAAAAAAAAAAAAAAAAAAAAAAAAAAAAAAAAAAAAAAAAAAAAAAAAAAAAAAAAAAAAAAAAAAAAAAAAAAAHz8ekR7Q9HY1pzYUXoyqfUgAAAAAAAAAAAAAAAAAYZEB1bCry5oLD9YRN6y2ZOMkAAAAAAAAAAAAAAAAAAAAAAAAAAAAAAAAAAAAAAAAAAAAAAAAAAAAAAAAAAAAAAAAAAAAAAAAADDPgxzIj6SK58l097Gaf1eRjcAAAAADDGhnToYimhLrp2rnx7x7MVn6lj4gs5h2P2OEsAAAAAADGhvs6VVOdWKXlFaTw96K/BkAAAAAAAAAAAAAAAAAAAAAAAAAAAAAAAAAAAAAAAAAAAAAAAAAAAAAAAAAAAAAAAAAAAAAAAAD5i/fgE+i3Z1zenxlfQjWYAAAAAAGITNYFOqfjt+kh358b36aHZcvx7Qq2w4XIrOlkQp/RAAAAAAAAfFc2RyZcLhzKp7M78N0+K20+kNmHXj9jl2AAAAAAAAAAAAAAAAAAAAAAAAAAAAAAAAAAAAAAAAAAAAAAAAAAAAAAAAAAAAAAAAAAAAAAweTEZ0tCY3HlOtkp/WAAAAAAADBiuplBLWgmva5vSr7fI5SAIZjqwq683aWYJJa6267CNOPjgdOMiQWY789ocJQAAADGRXe93IDe0Nrx/swGusNG0IjMOmn0K+xAAAAAAAAAAAAAAAAAAAAAAAAAAAAAAAAAAAAAAAAAAAAAAAAAAAAAAAAAAAAAAAAAAAAAA+eF3YRKq9WwY1Jd+f0IVwAAAB8/P1FOsbb6cB87Shs9XnYiWMmiXM9ZUHQ7sk3uMn49CtushkDHO6LOkNj1paljVRHf5njKh6v1Le5z716sCvd+dhesIm9VcZHGSABiGzKKyoex3qy+J8C0qz7PjrvsxV2rCDNN3LzHpMhsAAAAAAAAAAAAAAAAAAAAAAAAAAAAAAAAAAAAAAAAAAAAAAAAAAAAAAAAAAAAAAAAAAAMGHxG+sWQ8iK7NhRdDid7Y6ceV1PPn43lm5WnX4TJq1dqvvMjGwAHMgfQ6Fz5ftbmwqPR8DizhJhw+W+jl3yOMoAwMsDIAMMjDI+dLeZ1qqdc7g3lBZbGaL0IAGDVY94xy+FcU+fnsdOwhRPrdzV49uh3K70Y/e20Nl1VZ+o5dgBgIn3u3HfHHsAAAAAAAAAAAAAAAAAAAAAAAAAAAAAAAAAAAAAAAAAAAAAAAAAAAAAAAAAABg82Pnyh/QnUksEG8+fP7hveF5eHrNbCh0OplVemyw165wGnE5skQK7m3B49lS2M19im9RlhjOOZ1IZIg8SxopMpML6FddgAAYODvy2YxyJHb0PE9Jf4Y20JRX+Mb2Rjx9qe9yGQAPGsZ7AbijnHbjMmrrP6HCTg12Nevc9q9otSabuau0yxmNKAxxuy20q/YsKu7uosT2rywqqy+hHkMZEC49oV7d1M82qxsivm+4iSQAAAAAAAAAAAAAAAAAAAAAAAAAAAAAAAAAAAAAAAAAAAAAAAAAAAAAAAABg+YfucKz817zfx2otn9MI1lxYnudS38n29sqfVOd0OTvx57TWdBubkdMT0VHqPmCTzmSa/hy+s7G7xfdlX3XxW9kRGfUdDv1lKtuclYzXXYAAHjWk1htvQSqR4+qu5DTt5V7YvEmQOZL6ws3fl9iBaAY4fvX1hWJTsSXpzZKu3A+YVMKssqzo2Nyuvw75YRJkb9OLsWtVMuL2onCmpZXtg9eWdTbQplSznR4l9T2WxmhuQMeXqYq/dm1ZX1RbOYbMqazyOXUAAAAAAAAAAAAAAAAAAAAAAAAAAAAAAAAAAAAAAAAAAAAAAAAAAAAAAAD55fQgMup8ppz5H0j5ZQL758vbm7coNP4HY1lQfTKr9JhjTzpuo87Rfvg7OrZ0U+FL6pjIriWcHpXHmpOKf0oHDh1l6s2qiE2rCxe3DfFZeAAcCLTiurnz9qNfYpr/LBnOA4/YZ25hr0A5VfWfVVzR219auzT3WRjYDgwuT8i7pLBzjNJdgQX28OXf0dmxTR50aRs2DX1g8+uWVbP0Ktt6pbqqtX25XWp7LI13AxxuzjbWoLb+vuVwyIckAAAAAAAAAAAAAAAAAAAAAAAAAAAAAAAAAAAAAAAAAAAAAAAAAAAAAAADy4UgdI+cnOQB883p6u/GB2LWljWFF7is9HiKyqKy63hbuzL5lXB+hKMxLHOSHagQjd48guPNyIU/pAMefp8Z1q2za0se2od0VHoAPmEzWrLKo7PHk3tLg8P36rTpynVNuU6pnk9yP7jE3FLfgfFTWrVNzS2fuaO9UW30NegER5vci93S2YKS6A4vFmaRHhnLsaJzYnJsKvbC06fQrZ/zU9pVJc1lldjR3qmfkadAAAAAAAAAAAAAAAAAAAAAAAAAAAAAAAAAAAAAAAAAAAAAAAAAAAAAAAAAAAAAAAGMiupRp8i48rYD5zT+qRSVx+RA4kjia0opZsQvpxp0xFZfNXaiPaLHbCh89m1n0Ky9AxjPI25wuZQeaXFB3hS+jA+KrtSq7ejsrc0t2quBnXoABD9f38LqinApb0Dzr6w8SI1XzjmxK2qbZQ2Y01z9Dl20Kxtuubaqne5CZvAmhwkAYiUt5PfhErCjUm688sIcuOwv37t/TzLJQXAAAAGNbZrqRxsL7gs61zkceoAAAAAAAAAAAAAAAAAAAAAAAAAAAAAAAAAAAAAAAAAAAAAAAAAAAHzq7UO7wd6SQ2Y78foRbQAADwgFic6XWceU1t3ZEGWvP0rPQGTOGRhjg78faE5ldx53f6hS+kyMdMHE25YhSY3XnteT5U9/kc+4HzVNrVTcUdlbulu1NwzjOvQACHeHv4XVFOBS3oAGI9IYfJixS1oDYUuL9CrtMcrqs61HYGpCr6ltxG5HSXH0OfQAeZmG/MXuKz3tDn9eLIyIMsAAADHG7LbWnLUhH1e11iigswAAAAAAAAAAAAAAAAAAAAAAAAAAAAAAAAAAAAAAAAAAAAAAAAAABg0YJ2Fv5WR7xU+nyMbgAAMZHOhlh+cqur2QevEn1Eq2K888b2Dz4dnfTo6MhkenTld4qr7I07AY4/YxtzrCyoB2beilopvQgAfFWWpA7KolfRr6YcJHRaaNL3GmN1pc/bXkfHBm9xT98Ud8AB5VhKotdU0xkPx6VNoHPqB8x2RunOpd+wovcVe31IHzi1NSsvZtL4xtyPfWJT/o+lbNZIUsAAAAADm1Vc1eW8GY9GvbChSPoRewAAAAAAAAAAAAAAAAAAAAAAAAAAAAAAAAAAAAAAAAAAAAAAAAAGNTbivaHwJzF5vMqfoVvogAAAAAMHkxE4/6b/ovGfGvvTeLPrjvdKPZxL92ubEr7j7EacABxoLaUKs6WT71c2DGmepy40vpoMmwJ1qtqFPgPGtZY1lUYth251Pi2RU3taWcbRWVtetsdiLczi2Vd3e7weL152f41jscu3jNo/YJkVFsAAAA+foef2MMjIAAAAAAAGOX1GcUxcGp0psfIgyQAAAAAAAAAAAAAAAAAAAAAAAAAAAAAAAAAAAAAAAAAAAAAAAAAPmHzHHaJyeuc+2Rr1AAAAAA+eB34BMrfGccaTb8qwsOI7cqFMDNN6TGQAAAx5epiufWbwi5oMcyTSUiWtYCJOqySdOLzoM526mm8ObIxX2YGMZ1M6x+K687v6GNTndzU2ufn6RZfG5EvxIj+Gzhw75GMgAAAAAAAAAAAAAAAAAAAAAAAAAAAAAAAAAAAAAAAAAAAAAAAAAAAAAAAAAAAAAAAAAAAAAAAAAAAAeNeWRiTB1tnKPM5MFs+BWdJNNqGTOFZ5HCUAAAAxkAAMZEM1+5D7uis8Ul6A5XV4PXhBbWrKzrCDkVVqAAAAAAAAAAAAAAAAAAAABhH+3tr7DXYAAAAAAAAAAAAAAAAAAAAAAAAAAAAAAAAAAAAAAAAAAAAAAADDEf34SFy+prvkY6AAAAAAAAMZGOd0WdKun3D49152x3n6UnpMhkAAAAAADUq62q8tKiW7lZeffnaevWfpjM6j2j0t9NaxOL2q2x+hEmAAAAAAAAADAeGM42WM4yAAAAAAAAxkVDOeH8+ggWGPPzwAAAAAAAAAAAAAAAAAAAAAAAAAAAAAAAAAAAAAAAAAAAAAAAPivZzXtn52adnw96+7yNO4AAAAAAAAAHjX1jaEqBGpnV8ulQ5IKu7AAAAAAAYyMfH2Y8/vLJkxkAAAAAAAAAD5+fmu5PDtxbExt6+AYt3OnSrZN04b01s72quy6mdtCJ3AAAAAAAjcDtem7+DdjQ36GbkYyAAAAAAAAAAAAAAAAAAAAAAAAAAAAAAAAAAAAAAAAAAAAAABwY50/i38vMRUeoAAAAAAAAAAAYyOHBrTjtjUbHaqycs9wV1sAAAABhnxY9MRKN2FfYWnAdyXGmW5AdMtn6qqSxZUweXrXT8hkAAAAAADGceRDuBp2N6Go6O1l562Bl5/YrLZmlU+hq7maG/5+zyMZAAAAAAxUttV7Zxu1KIBP8Ah0yIfUAAAAAAAAAAAAAAAAAAAAAAAAAAAAAAAAAAAAAAAAAAAAAAYIJ2I5MrfzHVFR6cAAAAAAAAAAABjIjcNtThWVT8SCq5JtpMnx91dyAABg02vnAPPt3tHy5Z3PSvsPP0IU18fYj0Ts34mw6xsCL8Gxg2u0d6hushkAAAAADHF7XB7coBblUWvZRPoU9gABirbRrW0hyOURKWxezOMxewAAAAAGOR122OD3jLI0yAAAAAAAAAAAAAAAAAAAAAAAAAAAAAAAAAAAAAAAAAAAAAABzd/LOn0MbgAAAAAAAAAAAAMZHMgtmeUyBXs3jEfsK61kQlVTce44yAMV3LK+tqjtT7W2oM0yjysEO68ZTsVNbHbl9CJL+YBYGrIjQGx6ksKfE7YqLQAAAAAD55/RxnWnLcrTu31bNxQWgAHnUk1hF7XWD3vP1pZ2RpuAAAAAAAAAAAAAAAAAAAAAAAAAAAAAAAAAAAAAAAAAAAAAAAAAAAAAAAAAAAAAAAAAAAAAAAABjkddtpW2raPAtajVkld6W+troPIK6x4Pxz5NZ10lFHeYIz056kT9JnfUkKtupLbiysintQIHnqxa9p7PYzRXAAAAAAAHEra4IfawdiU010ZPO1kF+q+VN49D+bN4Yn/lK+O+RVTAAAAAAAAMIN3JOneEbcAAAAAAAAAAAAAAAAAAAAAAAAAAAAAAAAAAAAAAAAAAAAADHz9Rrpwkf1EZdnXI5SQAAAAAAAAAAAAAAAAPnkdhtpBeFa/nYV9TWDDpTMiyUUN7jR3mdefjoc/pzrS3Kjty0gZFNagcKDTGKXtRZ+cZorcAAAADDOox7RHg+F3X+HnYHf2VX426470uteGWHD3mVT2PAkd0U80AAAAAAAACr+7yeh6GJOR56WAAAAAAAAAAAAAAAAAAAAAAAAAAAAAAAAAAAAAAAAAAAAABiKSuKS67wmMOmOdPoQ7QAAAAAAAYDnc7rwkSJfHfhL0T29NpE0N6PJ+hjcAAAAACC57sCvKW2M+HtR3OQz886K8C0rPm26i9bGHbSKyrz12PHnvC/jgz2+qO9kobgAAAYGM8rbX3rby7N9W69i/X3UzvoRewDGRDoZcVcXcGdb1b2RXSMiL2AAAAAAAArnZ1tn0MWejz0oAAAAAAAAAAAAAAAAAAAAAAAAAAAAAAAAAAAAAAAAAAAAADEUlcWl12tMoXM86fQh2gAAAABgY8eRDptZJY77SadAhXQsD04SYP6TVwkQXRshvpVG3Y3BlRvKSVx542tBxO3U2+Rp0AAAA+a2srny4kWnFTSmbEmTCnttLW6zfnyXWbPD3Oe6CbUTuK3es3n9KDKyIkkAADBGummzXXzNb6t1JxlR2GWM8eoAAGOP2Mba0rY1e/fq6u5Glu+StchkAAAAAACudnU3fQRp2PPyQAAAAAAAAAAAAAAAAAAAAAAAAAAAAAAAAAAAAAAAAAAAAAMRiT8CRD403g857RsiDagAAADB8xH54drSecv6XQ5ds5K+1AAAA84xKnXjU8s61f3NNayJS2mucjl2AAAA49f2vqz4UBmEejc+Hbf1U+9GkWV81vzywodypHK4cCwt7ar5mRAmAAAYIj055hP1Yt9Xa0lKGyDnuYinXSWIrKsMjnuAxnBTvrp2Z6msh9mU5N4PeXCkmAAAAAAAc703GcZGMgAAAAAAAAAAAAAAAAAAAAAAAAAAAAAAAAAAAAAAAAAAAAAMZHn9jGQyAAAB8x7sVxPrMWDz5BnX6FfagYa0e68JSgPjMh2KgPX5dZO8feHNwyZ+eT122lTT3Ri95SWk8vWhvchkAAADHl6jiacnd+MY3O2PL1OHXIZAAAA8qjtSpLutsaRef3Tz8jTfHlq1zM4dLg7ljWsTR7pQ2GRpsxkY8NjnbYqK46eum7hxyvLnrrTaa9Cp5XH3l2ON1IHb3YzpsAAAAAAAAAAAAAAAAAAAAAAAAAAAAAAAAAAAAAAAAAAAAAAAAAAAAAAAAAAAPgiXL0ppd+d7opPRAfMe+YbZVOd+T97rziuxIswZ8R4Vl/PblVs31oZPgWy4PepLsy06edZ2dGp8HzlNY2cfQgTgAAAAAAAAAAAAOdVVo1hfVtxihsnn6a2cVP34tcvoa369cPO2eQAAfPH7Ef76V3ctR25ZR3h7qaXX/KtXFnwpjwu7Rl86v7nfifXFh7tO23Vd9gQeoAGDk5x1fqoLek4yIuwAAAAAAAAAAAAAAAAAAAAAAAAAAAAAAAAAAAAAAAAAAAAAGPHnQmZWS/Xj23NgSLr1p76dLHxp7tVeZGNgMcnqxjvGitnwOfzIORWW+NPciPaPGJxGrBsa36FRdAAYjMmx05VVZ9dSS2qpSKW6x4e5iorOgUpu6eSCkuQAMeWhX02JNtKKdGwhSXt1f86dLYcnq09l9DXYAAAAADj1tY1eX1bbrKhssaO9zd9aouemrmuYX0KOeAABiKSuFy+UZtmk5/aR5exmgmgAPn6FQzDgdT0UScjzssADESl1dTefItuurF74yKvqAAAAAAAAAAAAAAAAAAAAAAAAAAAAAAAAAAAAAAAAAAAABjU24p2jRuUcie2FRkVPoPOFzf47xK8sSs5vPreyKm9AxC5pBptdszGJSzG2RDn/ADXlh1pZVUnkvE7cSZkcJIAAEP5/bjl3SWQKS7Ar/f1di8ppmKO5Ax5esb6c4b3OJaVzWZ+8KK3+YXNsduVS2nWkqtoEqFHaAAAAAAcGBTmE31da4obHHL6nI66VncdPXDaRPoU04AADECntc2HDlaMwltjxrHr9jlM9Dqwbls3D7Uhvctri5de8jD6syOWDpn6FPIAAxUlrUjd8bEl/L6lX0yxnhsAAAAAAAAAAAAAAAAAAAAAAAAAAAAAAAAAAAAAAAAAAAAB8wqbRGZW/crg03Z+xDscM/JAO3F5ldee7gpfQgIJO4JPrd+VxSV8+uREm4rKzaytKqZ9riduDOyOPcAACNxqSxq7pbJFJdAQPY8Pe8ppoKO5AxDZlF5Ubjz+sbOkcfoVs8YIH6cvvX1VLxQ2oAAAAAEah0uit/XWkKCxxxO3H+3OA29Ult2UfIp5gAAGKws+praNKZhF5RD65EXoxkaHKkbrrEut122GThuAABH6ysDh3/CyMlB3AAAAAAAAAAAAAAAAAAAAAAAAAAAAAAAAAAAAAAAAAAAAAAxz+gzpVs41ofd+ctPEE3IFpLopyNOVD+7I5/UiTvoQ7ADEFnUFn129LInLOfTIiTcVjZ1Y2lVM+3xO3BnM4zx7gAARuMyWNXdNZQpLkCB7GvsXlPNBR3ADV2WcVFMt6vr+ot3Na9OvmTaNR3jyeGLU5Uij98iumAAAAAARSMzmsL+vuZob9DPRqSVvM46FsV3YnbTIrJQAAHzT1w0rdRbN73J61V3ZOW4AAAAAADGQAAAAAAAAAAAAAAAAAAAAAAAAAAAAAAAAAAAAAAAAAAAAAAABjQ32dYZHbFru983K5BsZpr7I5SAAMQSdwSfXdCWROV8+uREmYrGzqxtaqZ9viduBOZxnj3AAAjUaksZvKayxR3IED2NbZvKeaCjuAAMaW7hiHQ236f9DUy+UeuzTWGRH7gAAAAADBrVXsPRV2lIftvjk8eXR6TpMZbTFsUsvoirlAAAc+n7Dr70cO5diCyelk9RjMbcAAAAAAAAAAAAAAAAAAAAAAAAAAAAAAAAAAAAAAAAAAAAAAAAAAAAAAAADn11YtdXVBamcZpb4GQAMQSdwSfX70tiUt59MsIkzFY2dWNrVTPucPuQJzJx7gAARqMyaM3lPZYo7gCBbGvsXlRNRR24AAHjT1w09eVlu7Wpt0liGNgAAAADAc7oczfWqrjp65rmJ9YKOaq20antovLm8N+buLdSLyjyVlljPPYADwjcqdNau4N36lrwq6Te8Wla2ZuUpaNb27YruoAAAAAAAAAAAAAAAAAAAAAAAAAAAAAAAAAAAAAAAAAAAAAAAAAAAAAAHOrqyK1uaCzs1cbWiq0zaXxV+crDV/75xOInpuvLryGDNdpygrn1nMFyk8JN1II49p2gmNdp4gZmeIHgnqBM5kXC8kuNPEDxElT1AR0fbkYmR5+gCJJn+9VPxlbao8a726qIWxUz6mx7b2vD38vcs4zjYAAABjPyVvwfiy/T1db4tVw6VP92qZqpapmqfi2WVSraZVJ92wxmsrCr7nSdbu+qdktTInrkdat7ZzjOuQGMiv+FZ9MejjXpnw9vOScgAAAAAAAAAAAAAAAAAAAAAAAAAAAAAAAAAAAAAAAAAAAAAAAAAAAAAAx8fZjzemc48nqPGMSyKyonKn8An/AF5mVfY4ZGGRhkYZGGRhkYZGGRhkYZGGRhkYZwVlJY1KL2qkD1Udn5PUeWfQzkYyAAAAA+fr5KWtyordv4G8yoJ+HjXUnnZapk7jbGam+2bWcfsVUgNc1L2uLJvTQd6M2YppNJbtsxuz5aEor/gbLwzWVm0sjIj7edH3nSN9wt7ocfsUnZk0yBjk+FUWmlkocn6TRBjM4QdlOvSv/hmw1di2N+ETei3yOGQAAAAAAAAAAAAAAAAAAAAAAAAAAAAAAAAAAAAAAAAAPnS5kLsKuUa2vvSoftIINz8bWm43ZqLrI16AYisqisqHyp/AJ/25ZFfYgAAAD5MuPr9uMgcnqc9/sa7gAAAMZwVnJ4vKL2rkworQADGjyq+sokw1NPpzeHpJoByMZuRHpDST8jTYB8/XyUrK4pJPW1W+1ULv48Xp86bznbrZ87N5EXn8Kmc+T3o52rHjstZw6R2cwSwemsoHmprGRiOSTjdtazuOlLrteX0KTvimrlqG54z2RRWU13TLGY+wEA0N7V9Hxsoec7AAAAAAAAAAAAAAAAAAAAAAAAAAAAAAAAAAAAAAAAAAAAAAAY0d6J9o0Wm8dn9hWZZVN5iLSnHTjV1l13IbWolTnqm46DnjfivajsqLpWBX9gb65FfYgAAYORtp5wXXl97TxLcsv0jSKi27Nh/fl3+tUVlwpfTFfNAAAYzgrKURbu31VMHOUtl0XOHS0vGNddIpPIvZ1lEyypLHETlmOulOW1WkpuYUtFDYAPn6+SlbdqK3b+DvMqCdp1Xb/wAzOVJrsWPCk/S6M4zHZGU0kNNqjm0Jm3oYknHnpYGNDf8ADbFJ3hR11XvDbFBIxVNrVja8+7MYNOY+ciFuBANXa1PR8rKHnOuON2atl4l6u8XGlkSChLxgb7Yq8gAAAAAAAAAAAAAAAAAAAAAAAAAAAAAAAAAAAAAAAAAAYhU1i8uDqzGurE6c/sQLIfBA+L7zP0Pm4MtdGl1Ri2TNTfNsxXry5VgV/YEKbkV9gAABitbEqW2rJXNdDfgTMjh3YyIB4y2uL6nt7OM0NwAAAxnBWPJ60n9NTQNcaJIpxcZmm/m5Yr105k+qm1IMj7FbLHyV3vxma+gr5QPP2AD5+vkpS3ajtD0EHttVQzdpqjaao2mqNpqjaauCrptAp9fxZMPPSwGM4KNt+qLP9FH7g87IVxY0BsdPOwq1soyK7cCusZek52KPN9MHke3hC/KfrAryo28rNtjzuwAAAAAAAAAAAAAAAAAAAAAAAAAAAAAAAAAAAAAAAAAAGNXaZxVsl68EvKC0M1hvRJc9hfF9ZMZZOpv19jljMSaB8xaUxaXE5M/r+we3LLGa6wAAA06pt+qLmqtP24PeqbHI06Ac+rJ1FL2otPOM0VuAAAxnBWMoi8ovqyTihswMeHuYqCTSKuPQ11t/VRdKH2siCR/6lc8WxodWuk5EHuABXkTu7ytotKrqSdaUXWZpNdgpLMm3bDlC12oHaksXdyMqqumm7s0zkUMkBjIpuwIRLvRR5aPOyMQmbRKXrGbTqS25euRU9AK6Yek52MPN9Ma+zgrPxtLxtNaJvKjbyntsec2AAAAAAAAAAAAAAAAAAAAAAAAAAAAAAAAAAAAAAAAAAAAx5epjg6soSI3D7P3jl2+hp0AAxFJXFJUXk2DX1g9+LOM11gAABiGzLz68awsmCcu6rLZau1QXGNL5rKdE9Jdy57K4fYp7MAABjOCsJTFpTfVknFDZgAPP7Ed0Zgk8o73fVx3yNNgAAAAAMHPzirJ/Wd0X8bZHn5SLSiu5vPiW9Xdi99cir7AAVb1uhXvpI92uR1/OyMQuRVRaadG2YbMuLIr9wK199fa9JzsEeb6YreyI1LxCsSlc4rS84zL4OfoVOQAAAAAAAAAAAAAAAAAAAAAAAAAAAAAAAAAAAAAAAAAAAAAANaES6tbao7bpO/LmOmOZoyHkdNPSwK/sCvn/AEK6wAAAA+aht+n7qss7pc3pVE/jV/YFf3NdbOcZo7UAAABjOCr/AD9dj1FPjHWxH7cp1RyfToQrvrc/pq7fmbPGTGQAAAAAAAMROWVtO5c224BP+uMsKzsp+1KYvI9kyrS3ajtljPLYDwrrsw67445tpecvFY71gMqxxZ3xuh2Zg4bRH6lHyzGcScQWV7Uh5564oNwAAAAAAAAAAAAAAAAAAAAAAAAAAAAAAAAAAAAAAAAAAAAAAAAAAOdW1k1td0tsmaS6wyMROWROXF5NhV7YXbjkV1gAAABin7gp+6rLO6XN6VRP4sAn8Aua+2c4zR2gAAADGcFXyqKym+rpOyobHDI8aYuemL6BcW1q7VHNZxnXYAAAAAAAD5pq06ivo1nyHw9qTvllptFoL3Xo41i5POSQAIBq7Wr6PhZI853AAAAAAAAAAAAAAAAAAAAAAAAAAAAAAAAAAAAAAAAAAAAAAAAAAAAAAAAAGDnVtPoBeUlttTbo7nLBsicsi8qNxbBriyJHDIrbAAAADFP3BUdxW2F0Kkx20sWD6XRk8bVzjPmLsAAABjOCrpVDZxf10iFBYjB5UxbdR38C49rk9ajm5GmwAAAAAAAEOi+10/RRZ2y87KwaGVVzys7o9BH3B56QABX+tsa/o+NkjznYDXjPXriz1mKHaNlrafYq+0KXfIiZAAAAAAAAAAAAAAAAAAAAAAAAAAAAAAAAAAAAAAAAAAAAAAAAAAAweLGvBdXrXlLH/ezNjn1qOQy2B9uNi+1eWHU2jj9j549amterJpc1ckFJbgAAAPj7Hi9WdfL6+zORjIAAAwNfYiHXnBrYri1rWL9HzSztav8AW+76BxNq093Xale7YMA7aWBuVNatTL9RD6gAAAAAAVNK+VzfRxbVfP15yViJSmqLHn52/Ap7syKzoABXTD0nKxh5vqBhoQiTixoJqcW016Nn1haEbIVewAAAAAAAAAAAAAAAAAAAAAAAAAAAAAAAAAAAAAAAAAAAAAAAAAAGItKYHMh86y4fMt9MiBPxqbZiorJhUivKeUCjuYnFLUrm5qp/s1lYkGZtCJJAAAAAAAAAAwaWcYqvZ6foa+QSbGaGcj8ghPbWJW5X9jzOLJUy3l6CnZ3w/b0MGfDz04AAAAAADSqe5NadzqzubPPteXH85dL+e3nt4zQdwAAK5HpOVjDzfUCN1hZ9del0kSxlZmMScgbZGgAAAAAAAAAAAAAAAAAAAAAAAAAAAAAAAAAAAAAAAAAAAAAAAAAADEIm/ElReBOqlsqVG6LCrs2Mx7fnEJbBbTuKvbFJcY8fYxXPLtmNXFZ5yKtNDrrcOap9eHa0VXGbRVaLSVaZtJVgtNVgtNVYtRVbObUVULV1Kt098TiG70xkaR2wfTNLNCP0Q+Yc/vzr60KWs20jd4Uk3BxtsQzqwq17+H1h56aAAAAAAAAAAAAABWuxr7PpOdgjzfQCNVXeUcuNYInaY5s75XVo9siOAAAAAAAAAAAAAAAAAAAAAAAAAAAAAAAAAAAAAAAAAAAAAAAAAAAAgvAtiOW1Xpb0c1u/LqxrvSnLRkuFLa/Q59AAPnS3mccLzkOO3LgYkDKPpAI8kIisEtiprmBYiQ/VNPjiRmY4kYjiRDhdHdc9mTnuAABDIRdPAtovC60a0ZfPvw/uynLlzgo5eRx3AAAAAAxHe1S1nzkOOjtWPPiO2xnienX88Z5jpjmem/5Zzqtoav37+bMdkvlKNc94ee3AAAAAAAAAAAAAAAAAAAAAAAAAAAAAAAAAAAAAAAAAAAAAAAAAAAAAAAAAYyMMgAAAAAAAADBo5wqaXxD0VVcv1DpNRWO4OPUAAAAADBxtsdlHOjvr0mM8t8sZAAAABgPnWy3BgByqit2ovRR7xyedkAAAAAAAAAAAAAAAAAAAAAAAAAAAAAAAAAAAAAAAAAAAAAAAAAAAAAAAAAAAAAAAAAAAAAAAAAAAYNFjl18nnoquNdKc5rpVXc64YfL5dXuU9bULvsCBJAAAAAxD5jjrpUOjdfxbcKW3LO0uusJ3O9rMyHqaO9RSg0yhkzhcvTna2/s23CO6U43Wauxb+9rny2sqCQByqit2ofRcLzHne4AGNXFVTdZBPqHvSXj3FPuAAAAAAAAAAAAAAAAAAAAAAAAAAAAAAAAAAAAAAAAAAAAAAAAAAAAAAAAAAAAAAAAAAAAABiHTKBzY/Ms2Bz3ppkV0tjIqaYcDqX9dNBQWIAAAAAAAAAAAAAAAAHEqy06r9Hxu7OM+c7ANfY1cql9O/MfQc6UvSir1y9x53oAAAAAAAAAAAAAAAAAAAAAAAAAAAAAAAAAAAAAAAAAAAAAAAAAAAAAAAAAAAAAAAAAAAAABiIy7V7c62tKn5bbwpqworF8IJ358CcQa2bWJ7CjngAAAAAAAAAAAAAAAAcSq7Uqv0fG7s4z5zsAA1NnQ2UpetFXh6HTcYz5zcAAAAAAAAAAAAAAAAAAAAAAAAAAAAAAAAAAAAAAAAAAAAAAAAAAAAAAAAAAAAAAAAAAAAAADh11cHjPjVX0pDqWEeJp139Nuf1SknZGMgAAAAAAAAAAAAAAAAcGsbOrL0fK62M+c6gAQutr61rbWj8Xim4jUw+fqh3yOQAAAAAAAAAAAAAAAAAAAAAAAAAAAAAAAAAAAAAAAAAAAAAAAAAAAAAAAAAAAAAAAAAAAAAAAAAAAAAAAAAAAAAAAAAAADgVnbUNutLDFLuAAAAAAAAAAAAAAAAAAAAAAAAAAAAAAAAAAAAAAAAAAAAAAAAAAAAAAAAAAAAAAAAAAAAAAAAAAAAAAAAAAAAAAAAAAAAAAAAAAAAAAAAAAAAAAAAAAAAAAAAAAAAAAAAAAAAAAAAAAAAAAAAAAAAAAAAAAAAAAAAAAAAAAAAAAAAAAAAAAAAAAAAAAAAAAAAAAAAAAAAAAAAAAAAAAAAAAAAAAAAAAAAAAAAAAAAAAAAAAAAAAAAAAAAAAAAAAAAAAAAAAAAAAAAAAAAAAAAAAAAAAAAAAAAAAAAAAAAAAAAAAAAAAAAAAAAAAAAAAAAAAAAAAAAAAAAAAAAAAAAAAAAAAAAAAAAAAAAAAAAAAAAAAAAAAAAAAAAAAAAAAAAAAAAAAAAAAAAAAAAAAAAAAAAAAAAAAAAAAAAAAAAAAAAAAAAAAAAAAAAAAAAAAAAAAAAAAAAAAAAAAAAAABg5uXSVGt8W4qXucU+eXrW5PKEdk8U/8WeLjVvO6/O6cHg7yorakvQRGHDr+di3FRpS3FR2VEz0xCYOTl1lRrfFuKj6vNY7S3avOT4PpVHWslhCtYZi26UKg+LXFxIDOq3PorflzluKjdMW4r+VQM9ZUafi3FR7+izXE7dZnI1AYaFYzFuodMeDI5MOZBZeLNU17zlvIbMqvJiHkxVHq2mLmVhPYLpI1COi3FRpK3FRWtCz7uJAN8W0pvu91jtbyq87yruVarmVbP4mOoImQAAAAAAAAAAAAAAAAAAAAAAAAAAAAAAAAAAAAAAAAAAAAAAAAAMcnrcnopmyK4uX0uORXl4VhDbdh1ZNOCD8rQuW2xxPWWvPZqDSuWlb7Fz8Ll9SnzVd70Re9jj1Hndo1U9sVP6rW0PSQ+9BmLyDYcc5HJjhd3h9lP2dWN3+hxw4Dc9awmna1SW3zIxJ6o4OH5TSPemxbe1Cpr5HbQpW3qevcWJu7nfqlZ2V9OGag99ftem17yU481nh57fEZp6ya2uy/143BsdSZoe041wr3F0DyuwwQKE+859XrCboou1YmZBy+pWVUjHb0rjvEX1Jso1S2p7aGUHiPjZ/ocaO/K3ns1f35i2Q+t7Irm9xZyUPO5i8j9fHnmlZRC7I9Rruxezs0GdWsbXpqU3ZrGLHyryW9pAzkRQAAAAAAAAAAAAAAAAAAAAAAAAAAAAAAAAAAAAAAAAAAAAAAAAAGOT1uT0UzPIHLPX69GE/Ux5O3z5vDqLNfXjRN5zserCg2VRa9QW+NyWRqS98VXe9EXv0eo87tGqotep/V69v6nPtGc6Yc7pUe3LVd43GLe0I1JICoe/H7W9FiD8u1YTGTrs03clLnRpOfQm6W3H9jUrMxO5qEuGZr16otpUbUH17Mht/rIZVQl0Vmay0Oht3uNTM+VjvcbtcWl2p+7KSu2+16A83tFKtsquvV63r9Yz5TZHJHVk7Ecu+oZtaOB8bEQlYvimrbqutz2bFrGzo7Irc4jUmj8jFRXlRt1XmOmPN7AQ6tLLrj1uvYT7MRryjQ36Lat4XfnNtcVLM/OBWWL5iGzJ/OZob2uiMXuOXP6UmHDNhigyAAAAAAAAAAAAAAAAAAAAAAAAAAAAAAAAAAAAAAAAAAAAAAAAABjk9bk9FNXLTVy+ixyK0viqOKwdiqbhr1Fzrp1ndr1zSvtXLBqfM5sXcxJoxQqqvih+v6LFyqb6FPmYVPbFUWmL096fzXZt9UFmQs9NlCY4fc4fZT930h3fU62/DYlx4OV6QPucVbdOPXbPQZYynUx25BW1zi7uby6zrM3zqVVp7ufcdd23uqLs8bn2eLvVAp82/xIxJ4anrspPs+ixcepVXKrM73X07R7tweczp0jYMJ9NjvbVh/dYrmKXjXs1ueUUuHko64K9j9ji+PiotGtzaHYqC4Iik5HK6uvF4/dJblcszZpSydXzXFj1paYvrNQKzNv/NQ2JEz8d+ielY4uKktnzlJ5v8ASqCtXT90pt7treiVuTHaHmcgAAAAAAAAAAAAAAAAAAAAAAAAAAAAAAAAAAAAAAAAAAAAAAAAAY8NjBGu97uhq7TmjXa23Q1NtzRfzliTjm9Ij5aW6wjSSpOI16yBhp8aStMxpJXTEa7uw5ZyObGrtCNJKk4jXS6bTLldVycHvGWRq8o9JXRqeXQaInsSRIx8/ZGzwPCSu6NJK2xxOjtOOY0krtiN73WaZZOIDhevXdWRyY1dsRiQ+rc4fcYRLakbtj5+yPnGrt4It8SxJxzenhHzocmSuiNJK6YjMj+3LOnwZUyi8i9mDy9XNGvCWJONLexmNkAAAAAAAAAAAAAAAAAAAAAAAAAAAAAAAAAAAAAAAAAAAAAAAAAAAAAAAAAAAAAAAAAAAAAAAAAAAAAAAAAAAAAAAAAAAAAAAAAAAAAAAAAAAAAAAAAAAAAAAAAAAAAAAAAAAAAAAAAAAAAAAAAAAAAAAAAAAAAAAAAAADBzMunpVbwrzF0dGiNjdeSMyaiy8obArLFw7FIYnYvtUdm1Gd/X2KowtP0qO2T0YRM6nvSVn2brqW8Jut4KObrx+6LlsbNkecKgeF4+9G/HfF8qus2o29CF80w0Ke8bvF3blB97Rbzn9Cizrq0+bbFrCpyAAAAAAAAAAAAAAAAAAAAAAAAAAAAAAAAAAAAAAAAAAAAAAAAAAAAAAAAAAAAAAAAAAAAAAAAAAAAB50xZFS+ixILN+OlVsRWVouebx5VUk3HAs2M2nOfOj0FDmn8WPTvq9b7quewKrzGJzyY/eYvlFZV4/aj7PrCz/RayB9Y8ztTUljUl9XrP85eU2r6MyaM+r1uXk9fT8vtSNq1Xa/ptfiqZLjKTy37ea20awt3kysVhcdC2/YoV8ffxLWsPKZAAAAAAAAAAAAAAAAAAAAAAAAAAAAAAAAAAAAAAAAAAAAAAAAAAAAAAAAAAAAAAAAAAAAAAAAAAAAAh9a2zUfqtb7zyet5fbLDUpi56ouMdawaotfkyKzOrRluVH6bW14fYFfxs9n18p5HUVb8E5Fo17Oq60tMSLGceZ2pqSxqS+r1sEeU2r6ETeKeu13uXZNX5S6yItK/O7U53dPVv9bdYeT2eXrxNlPWlVtx+nxBvj7+NlrDymQAAAAAAAAAAAAAAAAAAAAAAAAAAAAAAAAAAAAAAAAAAAAAAAAAAAAAAAAAAAAAAAAAAAAAAAAAAAAPOm7n0J2KssiAx28xdMRgfe5ZsDz3unRZoSf8ATgHodbY0Kj9eTe39yxNc7NVWrVkJ155BZ1weNP3PysqXtusLPuMSLGceY2pqSx6R+p1n48ttX0ZlMa9VrcUDnfx5zakblqzdv8Taor6jMBxpdVPLsMW9W3OlG2dG3NbaolW6+3F/R4uZTCGu7agc8o9sjgAAAAAAAAAAAAAAAAAAAAAAAAAAAAAAAAAAAAAAAAAAAAAAAAAAAAAAAAAAAAAAAAAAAAAAAAAAAAfP0Pj7ABjI8/vIAYyMZADDIAwyAMMgDDIAxj6GMgBhkYZGMgAAAAAAAAAAAAAAAAAAAAAAAAAAAAAAAAAAAAAAAAAAAAAAAAAAAAAAAAAAAAAAAAAAAAAAAAAAAAAAAAAAAAAAAAAAAAAAAAAAAAAAAAAAAAAAAAAAAAAAAAAAAAAAAAAAAAAAAAAAAAAAAAAAAAAAAAAAAAAAAAAAAAAAAAAAAAAAAAAAAAAAAAAAAAAAAAAAAAAAAAAAAAAAAAAAAAAAAAAAAAAAAAAAAAAAAAAAAAAAAAAAAAAAAAAAAAAAAAAAAAAAAAAAAAAAAAAAAAAAAAAAAAAAAAAAAAAAAAAAAAAAAAAAAAAAAAAAAAAAAAAAAAAAAAAAAAAAAAAAAAAAAAAAAAAAAAAAAAAAAAAAAAAAAAAAAAAAAAAAAAAAAAAAAAAAAAAAAAAAAAAAAAAAAAAAAAAAAAAAAAAAAAAAAAAAAAAAAAAAAAAAAAAAAAAAAAAAAAAAAAAAAAAAAAAAAAAAAAAAAAAAAAAAAAAAAAAAAAAAAAAAAAAAAAAAAAAAAAAAAAAAAAAAAAAAAAAAAAAAAAAAAAAAAAAAAAAAAAAAAAAAAAAAAAAAAAAAAAAAAAAAAAAAAAAAAAAAAAAAAAAAAAAAAAAAAAAAAAAAAAAAAAAAAAAAAAAAAAAAAAAAAAAAAAAAAAAAAAAAAAAAAAAAAAAAAAAAAAAAAAAAAAAAAAAAAAAAAAAAAAAAAAAAAAAAAAAAAAAAAAAAAAAAAAAAAAAAAAAAAAAAAAAAAAAAAAAAAAAAAAAAAAAAAAAAAAAAAAAAAAAAAAAAAAAAAAAAAAAAAAAAAAAAAAAAAAAAAAAAAAAAAAAAAAAAAAAAAAAAAAAAAAAAAAAAAAAAAAAAAAAAAAAAAAAAAAAAAAAAAAAAAAAAAAAAAAAAAAAAAAAAAAAAAAAAAAAAAAAAAAAAAAAAAAAAAAAAAAAAAAAAAAAAAAAAAAAAAAAAAAAAAAAAAAAAAAAAAAAAAAAAAAAAAAAAAAAAAAAAAAAAAAAAAAAAAAAAAAAAAAAAAAAAAAAAAAAAAAAAAAAAAAAAAAAAAAAAAAAAAAAAAAAAAAAAAAAAAAAAAAAAAAAAAAAAAAAAAAAAAAAAAAAAAAAAAAAAAAAAAAAAAAAAAAAAAAAAAAB//8QAOhAAAQQBAgIIBQQCAgEEAwAAAwECBAUABhESIBATFBYhMDE1FTM0QGAiMkFwI1AkQlFDRFLAYZCg/9oACAEBAAEIAP8A6Syq5xYpWJ6oVi+nF/Ycq0ixd2qe8lEVUG+TILvx4m2MkyBeLAXksSohYtrFlbNRPT+viEYJivfOuCHVWBYx5HcDI1EZ+ynFTQR+qQ4zU2R0OK71LTQC+kmhMNFcAg3idwEgXBY6ow4yjMxr2f12QjBtc91hYPmk8IUAs1/6Y0MMRnCPmlQwTGcJZ1eWC/xrrF8Im2CIwrGvZ/XK5dTlI/szIMN80yMQQmAG1jOjizdM3TN+komGG4ZJ8J8IysykndW9IxEX+tN+j06ZslIsYhcVXOXda6IkSO1vTIeogGej50x7lcvapedrlY2dMY5FSKXr4wSr0WERJkZzM/Ux2QJKS4wy/wBaW0uSkx42x7mWHZCR7eGfwVFRdui/N4hClOBDTGuXpXx8MdT1zl3X4NXYtPXY5ER7kyt+hjcl2BATHPTTp1RxwL/WcqBHl/NkUJWeIChKBeEoJkmN8qPfp4IeyO2TLe9lAJECYnNvi+i4T5j8rfoIvJqIaOAEmU5OrsA4n9aJhGCe1UJPFVN36nopPCAzls5b4kZXs+L2GfFrHF3VVXK36CLyXbeKuKuMe8b2vYC/ks2Q0e5gn2RUciom39YEMILVcSTesTdsc8uTJXcogmOuwpFeaKFCmyifxQduU8cUkbhl7vxMWgiY5Ea5yJWfQReS+cjYDkyIBJEgQlPp+SzxCYBgLwljzZUVf8MTULHbNkiOI7EePE/qt5GjarnS71rd2RjHLIdxliwJMtU4I1HHFs4zWMG3hZdyOtldWiouafMiLIDzr6LhP3vys+gi8mozJuAOUQusnI/Ex42EarXyaCKXdwZVbLiKvGE5Y70eGHqBq7MljIwrUez+qZtoCGityVNkS3f5I0ORLXYcSnjg2cREROiSZscBCuc5z3Oe6ZXqKrA7IUjssoRcRUVEXo2wxWiEQiuv5ir4fH52LfzVxVVVVcrPoIvSqoiKuT5Pa5ZSpp+Oo4zzL0qibbLMpI0jdw5UCTCX/LEnSYb9xQLaPN2Yu+b/ANSuc1jVV0+4V+4ozWvI5Gtg0noSUxrWIjWp038nZg46VkftMwaKQbCjcx0mO+Kd4nUk7rGJGJm+PG0jXMc/Trd/0d3Ezu4mJpxiKiuGxo2NY3ovJ/VMWMONHdJOMLRDaEbBt5Xta9qo6dQIu5Ij2PE9Wvrr1zNhSmPaRqOb/UZ5Aow1eSdYFmKqZEhnmP4RwoAYbf08i+mW/H283HRRurA8zstq9ZQkexrniejm1tmOYxGu8iysxw2cLXveV7nuqK9YgleTyJ1dHnN2fNgHgv4SV9oaC5EyNKDLG0ov6hlyxRBcZJUs0snGSvrHzFR7xCGFiMZzECEuyvRETptKnrtzga54norYV76MlDIwrEczkIVgmK586+TxZEc55Xq51TUdTsc/lFCM43DJZ1BISqQcOYaEXrBQpwZokeP+nlyZLHDEpHyZJZZFISsq1PsY6Na1ERPMnVQJm7klQJURVUgjmAu4hX01n726j/8Ak7Un/wAS381/gwpzHdxFiwJUtU6qBUgh7PXzHNRyKi21MsfiPGiyiwzIUUGcKcFCM/p2TJFFE4hJUoksykfVVqmVDmRE289URU2U9PCPuuF0471E6gnJ6JQTl9Racd6lBTQgbLiIiIiJ52yKmXNT1CukAhyywzIUcSUKYBpRf0297RNV7p8180yrlZX9qf1hERGoiJ/plRFRd7isWG/rRVtg+AffBkYUbXs/pq4nda9Y44MN80yMQQ2BY0bP9QUTDMcN9lAfAkKzKOz6giRi/wBM2s7sweBgxvK9o2QojIYWjT7PfN0zdM3xMX7KfCHOjuE8wngK8RKOy7WDqif0uYrAje98qQ+Ud5XUsHgZ2l/2M2eCCiKQuo3L8ol3YP8AR0+a/wBe0SM7RIxs+a30jXcwZGdYi7oi/Z39d1rO1DiSXw5AzsAZkgTCs/pa9mcTmxm10RZklGqiIiJ9lfv4pzUyDXFncasHpwSeJGUcBvr8IrsWorsfR16ouzmq1zmLXF66FHf9mqIuW0JYMpzU07OVr1iP/pWWdsYBCue9xXue6ridljNR32Vy7isT5p1u0Yzua1F1M+Q3NPF44jx/aW8HtsRyNGR4iMIyDJbMjDM3HvaNiud3nf13g1yPajk/pC9lcRGxm1MbtMpqqnp9nYP4p0lcomcNexebUQuGQAuadNwSSjX7S8h9kmK5um5isMSK7NQyuoh9U2HGWXKCBGojURE/o8pGiG97jFcYryOqI/Z4jVX7KXZxofg4r1IUj8qWcFdG5r8DjREe1r3sVHMjXswHgSHbxJezU6HvYNqudL1BHFu0A9QTWmRz40gUoTSi8y8i9qgP2AZ4DDMwJmHEMrLyV2meRE0zF8TSnf0heyOrjNEkICypQh4ibJt5jnNY1XOXUETrNsBYRJHy9+gphgY4hZ94U27I7WvI5GtiUBy7OkDG0TGsbzSayFJ8SS9PFZu6O9jxPVj4N3IjbMNK1EibpGkTJEt2540KVLXYM6rkQGse+tsSQC4Moyja9nkStRnHJewUXUMM2yGYQZGI5i7KmWUbsswwkq7PqKmSiojnO8IEVIkQIf6RuD9dNeiUAPmnXy1y8sOJVijEExlcg3IrVVrgWEyOqcAdRP8AQ8yceaTiJBrTzlRUh18eE3YXlSoMeYzhNPppMRVcONUzpS+ESgih2cZrWtREaUQzDeMllAfAOrco7PqCJGL5E/TylI8seTBlxF2OCSeM7iDF1KVmzZN2eJNYCTHRVRFTKGL2ie1y/wBG74WQEDeIpr6KzwE++ku/Y96uc5zotseINomi1AxV/wAsefFleAkXybOYkOM52IjyPRMrYSQo6NU0YJ27EPp6M9OIR6OcLdWV9IR7+OUxjWNRqfYzoY50dwnlE8JHjfTTu2RUa/yFRHIqLaQqVm6vejEeqM6K62fXNejQamiP2QwJIJLOIP8ART3tY1XOm3i+LIryPK5XPBXTJHiwenzL+/u8P+X6ed6sNTzg7qio5jlRYdzIAqNLGlBlMR4uZfTLWWsuU7ahhdYRZT+Tb7TUUFFRJY62YsKWMuIqKiLzypYYg1IadfypG7AIjiO2QFHYnRFVmlnr8xdLC/gulzpuopNVPi+JBFIF6PHX6jd+kcxj2Eajm8q5N1IsaS8IoM4M8CFF+dGOMDFeWPMjyt+p6SlGFjnvn2JZjlRIsI8x/COJVR42zsRORUyTCjym7FnVRom72RpJYpEIKDOHNCj28trJWLDe5BscV7BsjhbHCMTPKnWsaF4OkXs4yqjO3TFXB2c8XikTUTkVGSgmEdiEF5BhMOJ43SQPjHKF9FL7TDRi8s+eCAHrCS5Z5pVIWtpTzdiPiQIsNNg8ipk6lhzN3ZOrpNeTYtXbGr3o1QmFIE0o+W/qnhK+WKvnFrzoVkWUKYBhQ/nBSMExz3T5z5pd8owFUrj9KrtlrPWSVRsgQXzS4EIwDaMfOqIuWtX1W5wRZRIhmlZHOyQJhWcmoJHHIYFKCOhJLzO8q4s+xsQQv1lfskPTz3oj5LaOtRNlNp6GRF6udWSIC7vr7A0Au7QGGcTCM57KzFXjTc5yySuKbT0IwGFMTkkSBxgvKSdMJOO4r6an6/hkyETZPIMAUgThFtax9cbKSzdCMgnou/K9jXtVrrmpdAJ1g6uzJWm3wRRnEwg/zbfbxW0sO0v6ocGE+abbBDYJjWM6LmX2ePwNCF5ysEyLGZFE0TM3yfPHBY1zu8SZ3iTO8SZCuByzdUvQqIqbLaQuxHXhoZnVmWM/pVfDJRuvkmLlAoEiqxqeSUjRDeR0g75JiFfSVyAGhydL2MKxWPs4KwZCszTstUcSK7mtbccJqjYQhDPc8lRSbcMiUibcuo5qkM2Kyor+3yURyIjURE6Ly1NBcIQKOzNPaZpsubB9fHao6W4ky5CgkdEuKKYB4SSY5IpyAJp+d2qJ1T+UwRnG8ZLWtJXHVuUVt2IqAMi7oi/m1xP23jCjRySStEOLGHFC0bOm1P2iYTKCN8yQ7ptK9ZzWKz4DOz4DOyXWyIY0ISo9xByWkXtUMjUY9wnse0BWnCMqdC5Y0r2K40ZhHhej2V94w2w5KKi+RfE4K8iZDCh5UcSoiIm3LexuvhOekQzgSglai8tvLJDhvINVIYiqtTTJH4TyeUxWhEQjilcYjyvp4fZIQ2r06n+sBmlv3zOjVPyouad9zbidOp4e7BS20klYtgFeebDFNA8JZcUsI7wF09bb8MM/5nvlnNbEF4frI/K6CkMP6ukxEEEj1VVXdVghQEQA+fUH0bMqPcY3LNF1Es48oy9ZAa3k2ywqAy93sPHNGIoy19wWIqMKMjCsa9nNqJu8BFyrejLCKvMrUciooqSAEyFTluBdbXSUwJFEcRMTZU5tQF6uuI3IAe0TY4sT05NT/WAzSv75nRqn5MTNO+5t5LEHaYUgWIqt2VI5UOAJU5resbYgVE4DMMg0Dx9UPj/MikaIZCOkyHyjPK+mgcKJJInJaOVsGQuDajijaqeCckuYGExHl7wxs7wxssrUM0CDZUe4x+W9YjZ6rmnHf45LOaVFBKErC5XJwwYyc9kDtEKQNGucNzXtjGbICIqJ5chnGAzM9EyI/jjAfzaodsGKzNPM47Ji8uqPrQZX2Rq5SqLvPNywtj2TRtLpz3NvIvouSGdXIMzKR/HVxF8jgZvv+aPY0jHNVlEFpUcqImyJy2yb158ju4ZAXYnJqL98XI8Y8t6sD8Fsc+C2OVlVKBKYY3JfKnbkzTfpK5Uw3yyZ/GQ/pgcq+mGv5ikf1a31guOcrnOdka2mxBIIXeCyzvBZZ3gss7wWOd4LLO8FjlNamnPII3I70XF/nK/6GLzapT9ERc04u1jy2tSyyRjs7qkzus/LOodWME5dO+5t5FyY7jlyXZRN2qon9BzGdbFOzEVU2VAEQoRvTp1F++Lmn/qy+RbEQthIXNPs4Yj38qYROJrkxU2VW5Xv44cZ3K79q4vquR9PiOARM7sizu0LO7Qs7sizuyLO7As7sCy1rW1zgo3TXhMNyndwBK7PVMriiLDB1XLqUfFBY/KcqBsozlTn1V8mLmnPc28kgqBCUiqqru5YA+phRR/0GvouTArHlGHlHIQsXql6dRfvi5UygxJD3l+OV+fG6/I1jFluVoumUdsYBTK5yvVXLXg7PEAJeVcmD6qXIZlGTrK8ScrvRcXIH0UXyNT/AL4maa+tNyvY0jHMdZU54Cq9kWWeGRCBrriPORGLyWAO0wpAURzmORyQ5DZUYJ282qvkxc057m3k1HKQEFRJXgWXNjhxPTyzy40bbr2PYRrXM/N7+L+yS2ul9jkterVRyIqdF3DNJaJ4uwTs7BOz4fOypgS2TBmJ0307jckVlTFWVLZunNY2YoLNsKV5iPISiAWPEd1nI70XFyB9FF8jU/zImaa+tNzKiKiotlp9H7lhua8T1a6sv1arQzEX+U6bqJ2Sa9U05PQZHRH81rXfEQIxKmjfAO4xuhzkRqqtvO7fMcRNLwvmTH+XqYZWWPG/TFgrHuhP/LJcpkQDiuh3LzSGCJ5JhMMN43y4z4h3ifT2XDwxTfxybJy2li2ENWM/WV+VcFIUdGryLlpbshooxPe8z1c+pp+r4TyU5X+i4v8AOQPoovkan+ZEzTX1pvIvo0V0Qh3tYpHtY0TEYMbOS1gJPiOYmzxPXeotWThcBPJv7dF4oYIMMs+SwIwBZHCMQ/LuYHb4b2tGR4iMeyvmDnRBHb+V3Mrrj9UlLEUx+td5K5YwWTRK3CiIAjhkrrpRo0MoZGEajmcu/hk+5FH4hgIR5nue+oquoRJB+W5nEhgYg0R5XomVVO2KiGPzP9FxfVcgfRRfI1R++JmmvrTeRqeT4gjNoY/X2I3KnLeU6yd5McZCAI146y+FKRopCczyMExXvtdQqRHAhgCWSVghVVaKuCjfO1HA7LL69mm5/ZpXZ3/lU+SkWMQmfqe7IEVIsZg/MnV4ZrER8uDIhOXrI02TEXcQNQsVEQ47WAT0SZFX0fZwWJ4n1BFZugpVrLlbooQlO9GCrqZkZUKbmuYqyYblaEzgFGZgCsOIZWczvRce1Wve1asrSwI7k59TEa48caaZRVlndzvejGq5ZslZcox107F6iGpXc1rRjmbmCeOaMRRmh3U2Fs1I+p4b9kMy2rieLVnQ0TdS3VYL1k6pEibRplhLnO3PBrpVg/YNdVx64ezPOtITZ8IoMXjG/Zauak+GI35VdylNI6ltLF64/Wr5r2Neio6VQgLu4B6eeHHiKPwJ0MbxuRuRKFj0R5gRgRmcAedctIiw5ZGJp6b+6I/nvIaxpbiJV2roD1a4VrXlbu34hCz4hBz4hBz4hBz4hByXfQwNXqznJJMQxaGEsWJxv5tRT1EJIrIMV82UICMY1jUa3nPFjymcB5WmPV0U9PZR/wBzhkYuz/BcGA5durBQ2R18YemowtnyGDYNqNZ9hqWCkeYkhmmZyglrHd+US5DYwCFc5znuVzq6N2WKNi+f4ZqCTxnGBuQ6984ZFEeLIirsUMmRGdxCjaie39MiNPiy0/xc9xC7ZGVWjI4JGEZBmDmx2FbyJ0SYoZYnCLMo5cddxuY9q7O2zbNs8c2XBRZB1RBVlB1TmmlYuWl91DlDEj6llj26+Nf159kcwjCNRzJksUOO85JBySTEMShgdmjdc/y1amdUNPTb7NctoPb4JRYjniejkA9xAie78nvpO72R0qY3aJbVX7ApGhG97jFccxCulQFBCinylkdROYiqxrkXeTRwz7qyTSTQbqyCGQswPVp5F5XdQRZI66e+CfjwRWFY17N8l2sOJuj5d9LPugYN7IA5EPGlBlDQgejhTNm5s3Nm5wtzZM2ToOcMZikLZ3pZPEKOCOaSVBBNpuYxqKOREkxV/wAwjmAvEGTPlzGsaejre2H64n+jdVwHyO0O/J1y0hSnTCPZUw3RQL1n2F/J6uM0KQI6ypYRZOj9piFCm7muyDJSVFEXpRvklG0zHMfYwHwDbZXWpIPGx0u5mSd0xjHlcjRxNPyTfqPPp5MNVewJyx3oQMTUfoyVHmxZSbh9eZfDxybqRjVVkWTKPKepD19RKnKjshQI8EfAHFai77yKWvkbqq6WTjTaNHFFEwQ/6M2+ytZHaZpFTT8bZhZK5dRezy1e3T8rhI+M7zJMYUoLhEkUs4RVYyJp1y7OlR4keKzhCmKmTKOJK3c2VTToqqubq12+afllkAKMnLOdwQ5Ls/8ACZBoIoEa8yIif1IVHKx6N7HKU3U5FA2OAYky3h9riO4REeEjCMiyGSQDKzzNufUwUaSMZNOG4Jrxry3L+CslrkdvHICzE9P6m2TpXLiH2SUrm0M3qSrGf9nqEXWV6uyuN1E6MTE5dRP4ax6ZWN47CIi/62TqKuiyHAewjCsa9n53Yw0mxnDxUeJ671c5s2M1+J9lND18Q4s8U8cBbwXjGrmzojvRZsRE3V9tXM9S6irmJ+m1uW2AmiZQt4rQH+tXLQDo1jLG7TEnr61Br+R2dqSMbqQ1s5ZoVc77e+gcLlmDr5roMlpMGRpWNez7FU8Mn1UsMkvA8Rmfv9PXwxoyPX9A6ywLtwh03PJspK2nFXvcT7ffHyADXZ6So7l2bui/aasj8EsB00nI6uYYC/kS5ML10o5MpBdXCa5ftyDaRjmOsIT4MhR5R2XUvSMX7NUbijG71QI/VNkT7hz2saqun6mGJVZEk2U6Wq9d4Z+nATpkVUUMDVC+DJojDONpBJ9jqaOhqx70rpHZZ8U2J+RTS9TFOTERV2RADQQRjT7ifCHOAo3GEQBXjJTWnaGpHN/rCEYJjnvt7kk96jHCgSZ5OAEPTMMKIpxwoovAb4kYibPl6brzoqisKqXXL/krLQ9aVFbGkilhYYX2EkLZADBVWqiq1a0/aoMUv5FfE4IiMyuF106O3ET7q2rEmj4xorxPTKq0ZNYjCfYKqJhbOABVR66grW+jdQ1q7YK1rzeDEci+mJ9pqWx3ckIdbXksZKCbFihiCaIPIUTCscx9zVrXH3Zp2xWLKSM/7G5D2ezlszSp+srVF+RahLuYAsoB8Uoj/vLeoSSinA1xAkRzau1ZNZwP80phhYryTdSerIh5kqUu5mMeRdmNrLB/o6ssWerxvGuxATJURdwwtS+jJYjDOxHj+yMVoREI45nHKQz6OCkKCPfmsYTZ8QoFVHNcqLWyu2Qo51+w1YDgmgNmkTK2VKD+RW5OsnmzT49gmJ97b1CSEU4E4xERcqrpkrhDI38udPBAD1hJthJnv4iwqyXOXccTT0ICIpRjGNNmdDxiIxUfK09COiqKdVy4CqpINhIgE4gwLEFgFHj+xvydXVSciCQ8sAlTwTyLsKBtZbU0qTiryM+xtKsNoFrH1NIGqUj0/IFyUqrKkKtQzq4AN/vbSoZMRSCKIgSOGSsvVYjQy2Pa9qOb5E2YKEBxiS5ZphnFLUUiyOE8ljGsRGt5nsa9qtdb0ax0fIixZRYZ2mDBminAYYf2GovajZWqiWMNVTyNRuRbY2aSbtFlO/NDV0M5eteiInh9/PrgTx7PmQZEF/CWBaSIDkRIVhGnN3FzLl1PWZKVrKSs7WXryp4Jt0+mfxjZMd5FG3p23y9rEhl68VLYLBlIj/sLUCya+UNGvVjmvbGM2QARm8znI1FVZp1lTJB802FQ1Y1X+lCiGdjmFsaAodyRWveJ6OZB1EqbMmCMI7EeLkupaxIJFaETjlGJkWMOIAYR9Phl1c/vjRo73DOF7E9E5JUccoBAkOF4CkESklrLgsV32FvCWDOKPNM2KJvCLzakskjx1ijiRXzJIgMENoRsGz+lp9RFnbuWbVy4Kqr48qRFfxghakYv6ZYThkMR4ujUx+KSECabjoSWQy9Ppl1dfujRmtc/dGj+YPP45dTxkHLEdNMH4JRgL9hc1iWMZUaqEARUWq1EM6NDLRUVOS0v48JFYExSSCuITT9SsISnN/TCoiou8ygiyN3il1U2HupBGKFyPFF1JKF4Hj3lfI2TLgqFspKppofDCI/k1FONGGIQgRyyisCF9YKvqZbUH8wefxy6nEjoDH5TE6q0iL9i5zWt3W8SnlbvRciW0+EiNEPVp0REKTVpP/TlXllLRWvCEsgiDFUafbFVp5X2d/eTYs1Y0agsi2UNXm/H1XbEXfNv9KqZKpoMrdXSdOSx7qE0c8deE3omaf8AaxckyDGnMRh4VdFgI5AW3tszB/MHienLqHb4Wfeu3+IQ9vOe9g2K58/U7Wq4cKTMlS3K44gGN4CSotFTfCwZoU3L0VVLWzBoXI0ONDZwg+01Qm1uTNHL/wAeb+QagOQbAjZQnMpyCVP9Q9jHtVrrYLQWEljNNk4oLmc1r7bMwfzB4npy6mJwV6MymGpLOInnSZQIgnFNaW57J6tyBWyrF/CGFpyDG2UrWNYmzduiXVwZqL11lpyRFRSRgSDRStKGotxWQ1RftNWoqWQ1zRqp/wA9PyDUf74uae+rL9tvm/2epgqyWI2aZkIySUC8tr7dMwfzWYi+CcuqJCPkhAmlwcc0hvNmz48AKlNYWMixLxlqKYtg9CPAAUcTRC5r2iaZr5cWNJNEOM4a+aOfFGdn2esPcI+aN+ZP/INR/vi5p76sv2e6Yazgg8CE1HDb4Mdqb/wmp5GN1P8A+WajhO/cCxhSPAfgvn3sRZMB7kjnfGOIzAGZIEwrOm/mSmznga6QdyK1ybpnaZOaalyZDZAzdBzDAIhSSpD5Rynfp6L2aAxzvLsrQFaLifMmnnGUpqaidMVp5DGNG1GtTyNR1qQ5XXj05ZJDlKAnh9nrD6+PmjfmTvyDUf74uae+rL9iY4gMV5Zeo2pu2KedLlKvWsG8i8LB09kXZUbp2evr3blbY/Ts9voSpsR+rmq1eF0axmxflQ9Rjfs2UIozMR4/MVEVMt4CwZbmpp+zSO9IhumRBiS9uv8AglXnwSrz4JV4CKCKzgD0ahtEO/sgqiAthLaxURETby7a4DXM4UPINJK4xqWgV/BJmIiInlXcTtdcdiZp607cDqC/Zaw+vj5o35k78g1Kif8AEXNPrtNennquWN0KLuMMiUeU/jNEq5czxZGoIYtlKMIhNRo+TbCgEdqtLJ05GIm4JldLhKvWxZsmE/jDXXIZuzH+ZYwB2EdROOAsYrxFqL1NmR5aKnOqoiZcXyIj40QACyTMEKsgDr4zRN8q4vGQkUIHvKciufS0CB4ZMvy1RFRUw7EGYo0iySw5AzihSxzowzj+x1eq/Eg5o1v1zvyDUafojLlEv/PTE81dstbri3BFEEpyIMcCiCBGkkIiJ6eS5rXIqOsdPseikiOa8L1a+nu+PhjyvMs6oNiPxlRDwyqM9fdSoOzFiXUCXsjU26d8mXUCJujrC7lTt2NixTzCoIFZVBrh+XdXyB4o8VjCHIjWU9GyEiGP5s5yPmy3ZJgEBFiSsoLTsEnqyJt9jOrYdg1rZESHGgi6qP8Aj+oBufEY5tEx7p7HtTzbq1UivigixTSyoIUGvBAHws82zqw2A8kRyxiuCWkt+PhiyE8yTFBLGozTtNGFu+IUJQuVhQzJcfwE2+tGJjr61cmGmS5HzRCIZyMFC00cqtdLjRI8QaDB5WorZwNogARzSStCGppw1zOJeW21GyOqhiUN0ewKQEjmcvgq493E97siwhSqSPGLMilhSCRy6ate0C7Gb8xVExrGM8G+Zd2PZxdQIISHKwQ4EEUECMb59pWjsA49rwkVrqaxScBGv80gRFbwkLQVhVVcdpeEvomloKeoqCsEqYIIxN4R+W9yMa5yyTuknMd2n69IkNpV5CmGEbiEt9QElK4MWNFPMKgQVFOOsYrl5pLuABn5/wBd8ht6uLHZmoavt8frhBMSMYZRVs8VjFGdi/mO/mSpDIwCGfIO+SZ5iUcDs4evJyyJYIrOMsjUo27oAl/Yv9PjVnjNQ2LP3RdSgXwOGQKQxHi5dQ1yPZ2wUKW+FJYdoisMNhGeZv8AY2C7QZaoiIuyYNqNY1qdM+wjV4lIaytZNkTd9ZUybJ/6INfGrxIMHPav4K6Y7GornI3GojWonRqSq7KbtQqq1LVle5odXQnfNFf1JvQZwlTcf51qOVu4cVtRD7ZMajk5bS7bFVwQGMU71IWLTzpWyoLTLERFKum4WF0x4L1Murmw91JHkniEQgau5FO2ETkciParVsoawZhA5pqYpBPiu+9tXcFdNdjUVXNajfBNukr0EMj1kyjzCuMao0+SVwnlCEMLGjH5F+7hqJmRGdZMjMxOiTHHKCQJTaRkoqqA2nrcW64WNJB81rlau7Q21mD5cPVkobkSXCnRp4UMD82c5GtVyyTrJkFM6ijdRBa9eS7tOzJ2cIxkORox1tKCIiENtyKm/rZ0QzopYqoQJFRaa0SaNRl5NSResjNOlZJ7JOAX765VErJm4kVTDRG9Mz6STn/XA/JH5K5qZ/DUlTKlvHaQm8uy4qIu6Kasr5G/Wn0tUk/Za6ek17VKOvsD1slpxRzjkgGYfPdSnw62SYdZOmDsY7m/kBTiAxXlLqCCNVRneMWAvIBlRFRzXoit57o3U159gC684hI1qNa1G9M2UyJGIZxCPKR5H01akMPWE576tQ41lCjSHxTjMMBmSAjKzpkCacJROc1Wuc11aftMGMXyHkYNqvIbUdcHwb3qBgNSVxVRHjMMzEeP7C89pmZF+qjYnTZe3zMT+MaiIjU8rVztq8LcpSiDaRHl8hzUc1WuuYSQLA4WaRkKSCYK8+rzcFeEOafD11xDT8gs7QcFqNaeSaS9XlBAmSdlGtFYongaLIjrsaFYSILk6uHNDOEhB8q5qYmwow8ohISxGvLqWR4gjpSRElTmq5PIVP4y0ipDmlEmmZKvjlA7kuBIGylNzTROOA5vPY2Ia4PG+ZPkz38Ro0GXM+R3dtdt8kwJkPfr4k2TCJxgq7UViLdPP1B7RLyAiLOh4nTbqqVk1UGiK9jVTytYO2FDb0UF0yQNkSR5Gq3tdabJo1P0zl8jWJuKXFDmjg8U2SbE/HdsmSWxY5DOKV5iPISrpmNa08lEREToINhWKx9tVdk3MCumugyWvxrkciKnLqV28kDc0um0mQTE6Vy6J1lkfNNCRsUxfK1QL6U2acLwWPDy6lZw2KOzSy+EtvKuGKwI3kfOmEnSXnfS0iHRsqUxjWI1G45rXpwuuqNo2vkxYkosM4zijnHJAMzPO1Iu1SfKxEdZQkxOm7dw1U1cA1XHC1PK1g7/ADw2ZW1hLJZLRGCWMVwjR7y1ioiMFq6a3wKHV8Rfmi1DUGTwFJAdNx9FlZxq0KkLJkElHKcmnoSwq0fHz6hkJIt5Spo8HBAMb8eXNRm+QBKaKkmY3i5CDYVjxvkhWPIKFaQ3XQBb8uo1/wCczNMJ9WuJyWX18vNP+2j8rUyIsEa5RKqWsVU5NT/WgzSvzJnNqY6igNGldF7bNABWtRjUROnZFy2iJCnGE3S0hXxTBXztTO4aoiZUNV1pC5L5USomZERXS4yJ5K5q129iJM0ezxnPyVCizGcEg2kq9+6jNo+S3xCbTluLdcLElA+ci7Lu0NpYg+W7UVw5vDhSlO9SFotPkIRkqZznK0QilcQike8jqaN2WsiC/H9Q/XNzTSJvLXlX0y82SyPmm/GKbm1H9e3NLf8Au+T+MsvcJeUHtovK1L9AzKP3SLy6o+tBmlfmTObVarvDTNMI1bB6ry6qREmR1TSir18vz9UKiVmUnjbQulc1D7RLyv8AcIXl6mdvbmTNHt2iy3cvCm2GroMj5pdL1JfRNIQOLxh0lbBcjxeRqWR1FTIyEBZUyODGoiIn4/qMWxAGShkIGZwO5HK1rVVZp+0yzlyhCooDXLy6j+vbml/SXyfxll7hLzT/ALYLytTfQMyj90jcuqPrQZpT5kzm1QFXxAlyokpFsQPdy3spJViVW6VBsCQZfO1X7aPKD3eJ0rmpfaT5Ve5wfKXL13HbzVzSabVbl+y1ZEkyYYVDpatO6ckon4/ZREmRXixeMRMq7QcwaMf0b7ZdWrFa+KCJGfMkDCwQmhG0beXUf17c0x6S+RcsvcJeaf8AbBeVqb6BmUfusXl1R9aDNKfvmc0oDJQChfIASMYgSUdy0zGxZHQuXVy2KxwACGQ5GDHBiNhRQgb52rGqsEDs089rbeNv0bemapfw1aplK3itYSeUuWb+OwmOzTTeGojfmlvUdpVTgVHieqYC9nBREeupSfxJtpspFa4Ec0kiDDW1w4AufUf17c0x6S+RcsvcJeaf9sF5WpvoGZR+6xeXVH1oM0p++Zz3FQywHxjMEscijLEvp8VEavesu2StQWElFa0YinIjB01M2A1DF8+7iLMrjjYErwFGZkCcGfHYYWbomais2TjtCHS0RSznSF8lcO7jOZ+UbeCphJ+ay66JM8SzaHs4imG1OJUTAabG1UU0eKCMzgDz6j+vbmlv/dci5Ze4S80/7YLytTfQMyj90i8uqPrQZpT98zyJUGLMbwnlaXYiOeD+Mh6YaRgymhwIkJqoD7CRJBGE4prEkQsspIkaXIhk6wDNWTWt2fOvJ85qsfmlJAlikj+VZyEiwJRlRqrs1IwuojhF+bWnt8rB/MZieTqP69uaW/8Adci5Ze4S80/7YLytT+3syj91i8uqPrQZpT98zyTfKJi/tyH9LHzb7BVREVVuLJ9jKcuV9NMsUV4+6MrO6ErO6MrLCE6vkrHeExQFYUVZNbYQxSE8jVxCtgCY0b3CIwjYmr/RsuLb183ZA7/mlp7dLwfzGYnp5Oo/r25pf0mctl7hMzT3tYvK1P7ezKP3WLy6o+tBmlP3zPJN8omf9ch/Sx/sbV6jrpj2tbxOa3ABYAQxM6dRO4riT0aSkN4JUZ3kFCI43DLL0pBNuoJemrONurHseNysfEu7KFsg4msBORGy4k2LNH1kdPzG09ul4P5g8T08nUf17c0v6TOWy9wmZp72sXlan9vZlH7rF5dU/WgzSn75nkm+UTP+uQ/pY+fz53Fm+XHtc3BfNHiLm6ZunRdO47Wbj28LArgjFARhRVOoQTOAUjfN/JkQostOE8vSUQvjGm0FlCRXujSjwzNMCntR2kbi/MbT26Xg/wB7FVJcXO1xs7XFztcXO1xcfOhjYr3fHKzPjlXnxyry6lAly2kDQzosJJPX/HavPjtXnx2rz47V5NIw0ySRlPaQYsEYjfHavPj1Xnx6qz49VZ8eqs+PVWfHqrPj1Vnx6qy9s4UyGwYKk4o0+OYvx6qz4/VZ8fqs+P1OX0uPNlCeDT86LBdJWR8fqc+PVWfH6rGzob2o5O2Rc7ZFztkTO2RcLMi9UTb+Mh/Sx/OuLyRJO8QFKXOtLikIqKi51pc60udaXOtLiqqqqr49PWlyHaToREcKFqCumcLVRUXxTydT07BJ24FJOWDYhf8AmNgN5YUkbF8N0XwzwzwzdM8M8P4GMhXcI+xTc7DNzsM3Owzc7DNzsU3Owzc7DNzsM3Owzs7DOzsM7Owzs7DOzsE7OwTs7BOzsE7Owzs7BOzsE7OwTs7BOzsE7OwTs7BOzsE7OwTs7BOx4yCcrCeH8/pz9Ofpz9OfpxrHlcjGRmKMAWO8x3ouL6rkCprXwYj3/BqvPg1Xnwarz4NV58Gq8+DVefBqvPgtVnwWqz4LVZ8Fqs+C1WWwhgspYxZFsZ0JUUETV5U2bLiXddMVEHvvz2AWngyhLuqJvkd/WBC/8xUQ1VVXqR51I86kedSPOqHmpWNaKNtp73Jv3197tKzTDGOryK7qRZ1Is6kWdSLOpFiCG1d0813ouL/OVvt8Pzbz3edmk44zdvQkrS1cfdQy9L2QN1EURBOVhYlvYwvkxNYejZcS3rpuyB5CIjmObip6tysf1ldCdzzrmvr/AAP3xq8741ed7qnO91Tne6pzvdU4mrahdkXvXTZ3rpc710uQbGHYjV8X8k1P8qLmnvcm/fX3u0rNLe3k+0d6Lir65W+3wuk5hxxPKSbqSecq9R8bts+N22fG7bB39sN/FlRastAK9Om893nZo5v+Ga7pPGBJYrDS9JwC7qCXpq0jeLXtcNytfp+1mMnx47+SQ3hknblA/jp4PNf2Pw2A57P8py4mnblyIqLp26RN1+A3GfAbjPgNxnwG4x1HbtTdfg1tnwa2z4NbZpSqmQySJEj8Yl2EWGn+U2pV8UD3kmYDUrFXY8eXHlt4g8+p/lRc097k376+92lZpb28nkTLCJBbxHPqz1SP3rnZH1a3dEkQ7CJOZxA53ei4vquRtUvjgCHO+JM74kyw1G+fEJGyCFkmbGA/urV53Vq87q1Wagq41Y+MgKm1fVFK9vfEmd8iZ3yJkySsyUaSukG7QDu5tTBY+qORatytsoK8tq1W2c5uaYdvTRsTl1q5d4Dc0gJhLN73fkVvb9k/wAc4hXq5Y1FPOiK7uyTbJVLOjIrsCYsciEFV2g541R3Nqf5UXNPe5N81zmsarnFu60K7L3krcBdVx1RGoqKiKnmX3u0vNLe3k57q6SA3qQkIU5FeSJp6xkojnLpImTNP2MRFdgjFARpBUty2xYoy8zvRcX1XAaYmSAiM3ulPzulPyfp+VXxnyCVpGCsIhH/E67PiddnxOuzVUqPIJEQNbWmszPELuhPzuhPzuhPyZGfDkljv0miJV8183jqJyZHdwyQO5b5qsuJyZpF29Uqc2tfmQM0d7hI/Ip8tsOKQque8r1c6pqmRGNKXo2TLmpa9j5II8gkUzDDAZhxDKzl1P8qLmnvcm+WuWdyGvTgbKnyprlU4o8g67BWos9t8IEwV4Sw7KXAVFDW2oLFn6fLv/dpeaW9vfzTpTYUUp3GKQ5XlJR0rYjGSD9N9SNOx8qNHOSMYZhQ5LJcYJ2crvRcX+crfboXTMismxix3zayZAIrS7Lmy5suCCYzkYKgqXVwHuN03nu87NKe1JzWjOOumtxF22dg3I5jXdK5qdvDcyM0a/wD4UpvNrb5ldmjfcZHJMvK2AXqj96qXO9VLgdS05yNG38a1KbwjhyjjoecxzuRU8Mso/ZZpxJR2McMPqj/Fa7PildnxWuz4rXZ8Vrs1BMiyRR0Dp73Jvl29ilfGVyOc8xFc6s08xGoWaxjBtRrcKIZmKwlrp7ga40IJixysKKtnDsIrTN8q+92l5p6fDjQXsN8XrM+L1mfF6zPjFZnxiszUllHkAAKPQRUlWQt+lei5jJEspA26TOr4Zg8zvRccvrlZ7dC5FRM4W5wtzhbmyfxyXnu87NKe1JzSW8YDMxf25Bfxw4z+lc1a1EtUXNFv/RObza2/fX5oz3GTyXVJZfEpJB/BrbFqLVEVVX0XISq6HGVfxnUiL2oOaaVOukovry6hVvxFyIjXO34erJnVkzqyZ1ZM6smOa5u3Fp73Jvl3MtZU8qppuAj1WYROXUVekcySR6elqCegl8lfTL/3aXiMe5N29UXOrLnVlzqy51Zcc1zduLSiokyQnNqtzVsWImkN/wDm8zvRcX1dlb7dC82893nZpT2lOZ3iiphE2e9qU71fVwHL06yTabFXNGP2kTW82tFXtULNF/WTOY/yC5/1yB9FF/GtShVwgGSpkpFnDe5F5HvaNjnOmyFlSjGygj9VAa5dkzZM2TNs2zVHyY2ae9yb5R39WEr8VVXdy1wEjwo4k5bsCHrZKYAiiMIiIu6Ivkr6Zf8Au0vNLe3v6ds2zZM1TH6yII6VMtIU8JXIqL48j3NY1XOspaTpxzppaP1VepV5Xei47dFVFqrCG+ui7dth522JnbYmdtiZ22JnbYmdtiZ22Jnboeduh522HizoaIqranHJsZZh6VaqVLFXmnNVk2W3NOu3poXJrRv6oD80c7ayMnNrT6uHmi/q5nIc7I4SFIuthorkaTWjXse3F8GqmQPoov41KjslAIF8gBIxnhLUXLUa2PKRyKm6YQjBtVzrm4SSigj18J8+S0SMYjGtanLqj5MXNPe5N8qc1Xw5Lc9EwL0IIb05bJyNr5iqiLuiIn7U8lfTL/3aXmlfbic0gA5ISBfMiFhSCAJR3zRtZFltcjkRW497WNVzr2+bJa+LEgQi2EpgGCEwI2CZzXtGYR3yoy+Hr+nP05+nP05+nP054Yu2fpz9Ofpz9OIiuVESJHHFjiAPmuG8FrPTNKu4qYacmtG7x4T80o7a4GnNrT6uHmi/q5nJKjslxzgeTRtk17kY7SFoxrnKviirkD6KL+N2VYKwHkmKeG9WGjz5cXwEt/ZbYeZJleJoVdJnPRBQIAYAUGPm1R8mLmnfc2+U7xRclBWPJMFaCUkiAxi8uppaCiNjtqwLJsIw/KX0y/8AdpeaV9uJz2lUGzFwumwJUAisPGsJsP5HeW222yTPmzPnwa6XYE4AVlaCsDwM8hRCVd16gWdQLOoFnUCzqA51Ac1URjrFgmaQAj3zCv6gWdQLOpDl6wY6maqR2o6SBqpz6iZwXMzNHu3rSN5NYsRa0Ts047guofNrT6uHmivq5nMf5Bc/65A+ii/jhQiM1WENp6ARVVndgOBoK8PirWtYiI3n1R8mLmnfc2+XqWAu7ZjK6eSvkoVsWUCWJpQ9M2cCAFSmmyyzZDzE01XqETpZPJX0y/8Ad5eaV9uf5BRDKxWPPpmsN4s7pR8BpqsD4vGMYmIwfnrllI7VYSjZpeP1NWx/Jqw/VViCylAp7WEzE59ViUds5+aMkN2lxl6dZSWpFjx80yJS3Ebm1mq9vitzRKIp5zuS21PYinnDF703eLqi6c1WqvpkH6KL+Uao+TFzTvubfLexpGqx1vTEgOUoosyTCJxghnWVGAZcspTocI52yJJ5RFIemo3yXsPJREamyeSvpl/7vLzSvtxPvLST2WvlGxrVcqNbFA2NGCFOnWEjjlxwJpCPxzTn8jVVesuGkgcOYaDJHIDW3EOzYii3ywtIlaJXnsJ5rGS+QXSVd1ACTSJy6z9xjZon5k/ksNMQJ8h0he5UDO5UDA6Orhka96IiIiJ+QSTtjAKZz9RWCuVW94rPO8VnneKzzvFZ53is8mWUqc1jT6d9zb5jkRyKikREIRMqfbIXRf8AtUrIKI6bERUTZPLX0y/93l5CuJsASiB3mtc7zWud5rXO89rnea1wWqbBj0UgyIUbHt+01bI6uCIKUUftNrEaqclxI7TZyyZpKP1Va4q8pjCjieUtjquad7mxFuLVfVd13xFVFRUS0skbwI5znuVzkX0xNRXLURre8l1iamukzvTdZ3pus703WT7GVYkYSToj5k/8ptvbpeNTicjc7rJndZM7rJndZM7rJlpUpWsE7NO+5t8xcJ8wmVHtkLov/apWQPr4nm6g93l5VUSWcdxl7otzug3O6Dc7oNx+kmsY52L6LkL6WN9rqyR1tiwOaPj7mlSeScdIsOQbPFcr46RIUYHNrGU4cWOBtRXOtJrAYmladERF7pVOd0anO6VRi6QqlTO51Xnc6rzudV47Rlcv7e5kHO5cHO5cDF0TGyrqY1UFww/lFt7dMwfzB4npy6p+TEzTvubfMX0wnzCZUe2Qui/9plZA+viebf8Au8vNK+2v5TfKLn/XIX0kb7RcnyFlzZJ80wDqakK8mq5PU1nVJUR+1WcQXPrT5kDNG+4SPze29umYP5g8T05dU/JiZp33NvmL6YX5hMqPbIXRqD2mVkD6+J5t/wC7y80p7a/lN8ouf9ch/SRvtLiT2WtlmRjFe9g2gC0ARCb06wk8c0AE0fH45ciQvNrT5kHNG+4yPze29ul4P5o8Tl1T8mLmnfc2+Z/C4X5pMq5MZtdEa7tkTLyQAlXJayB9fE82/wDd5eaU9tJyn+UTP+uQvpI/2mr5HBEBHTT0ftFvHRelct5Ha7KYVNKRuprEKvNrX5kDNG+4SOU5xRQvMZdYVSZ3yqs75VeVtzCtEegPy23mRWwpIlYqIRirHmRpHyuTU7N4YXZQv4LSP5i5LCSPJMMn6c/TnhlUF57CKg/LX0y2IhLOa5NMsVtUxeWbOhxxkQv8ZXT4h44GD+z1WdS2nV5o6P4y5K9NlJSJAlHxEVyo1IYEixY4E5ta/NgZoz3CTy3MElhXHjjXTd1ndu7ybWzq9Gdp0d7q/wDLJ04EEKkLNuJk1VTGNc5eFjoctqcSoqtcipX6gOBUZJCYRxtIPouwKetOiAMoDiKjHNe1r08tRsf4u6gWdQLOoFjWMZ+3y5R2xo5jOc5Xuc91YBY0CKJeiVLBDA8xrLUUuWqsAiK52JBncPEjkc12zq7UMyEqNLDmAnAacH2Oo0VLmXmkHtWuM3k1dJ6uvGBKOP2q1iM8jWf1cPNGfVzPI1v+yvzR3ur/AMrOZkcRCvnTSzjuM+po1loh5AIwIzeEW2TK6JNbsazqy1xPGkslhyEE/oc1HtVrpkZ0OUYDtOzUkROod93qmcjAshtqIizbAAl6FcjUVVubR1jJVW09KWzd1j4lfDgtRoMlQYkxisPc0ZK7coqmzJWSkejXtexr2/YaviKyQGWmnrRlbLVCtcjkRzce9g2Oc69tEs5quZo+EvEeY/n1n9XDzRf1czlspw66GWS/vrKzvrLy3uy26AQmjvdX4n5VqaQrABA2ridtmDGrURqIidMuMOXHIF5ROCV4n08lZcABF6NSQFKJstkKYSFIYZkeSKUFhRfczpoYEd5yypJZZyHLpuu7JFU5OjUcpY1aRqQ4z5koMdoAjjhYEXSUQyjcx8+IsGYaOul5anr+qd9hNhhnxiRzWNdJrTqI1deT65EYPvmfgVMsLqfY7tNV1Z7M6DFEjChgGAXPrT6uFmi/q5nLqv2Y+RY6ypII7e5cvO5UvKPTzal5DP8Aylc1Mu88aZpZiK+U/mvmtZaSdtLqqwjp0uajkVFuap1eZXsq7QtcRciygSxIUP282dGgCUh7KyNZG4yUNOswjZJ9unV7/omZpUaPs3O5tWjRs4D00e/Y01n2UmLHlCUR5WjhOVVjdzp+RdHxxqjpQI4YwmiD5GtPq4eaL+rm8uq/ZT5Te7QMRUzf8s1QJWyY5c0ydGSihXkXLU6SbCSRNMiVkBXr0nAOQN4yWtIaCriCiy5EMnWAh6mjkRGygyQSG8Qfst8PNixkVTTtVCbuyHIknllUp6ehJLcw8kY2CY0Y+nVwldHilzT0hI9oHfl1PIQ9o5iaOF+mYZfvtZ+4Rs0UidbP5dVeynwRSBIwg/j9znx+5zS9zOmSSxpP5VeQ1lwncATPAVhR184M8CFZ03lo2IJwRBE85WCHFjsigEFnJsi+Cz9OxpG5I8qrnQ91K1ytXiayynjREb8ZtM+MWmfGbTPjNrnxm1z4za58Ztc+NWufGrXPjVrnxq1z41a58atc+NWufGrXPjVrnxq1wllYF8Hqqqu6xKWxmKnBXadiQ1QheWziJOhGBjkeJ6otLbMso6I7pt7UVZHc7HOeV6uWnhdggBCv32svcI+aJ+bP5TBFIE8RV0hUZ3PqM7oVGV1RBq0f2b8q2y7p3Ce+THjyTxSIQMbVCbbSV1LXImTNTGKitiqrzPVVo6jsidoP5B66DI3Ur9O1TvTuzV53Yq87sVed2KvO7FXndiszuxWZL07XAiyCsT1xNMVmyZ3Yq87r1ed16vO69XnderzuvV53Xq8Zpypb6ggQo3yfI1DRuOqzIoiljkaQUPVpGtRsvvXWZM1c5UVsQ5zSSOKbTtG9j2zJX2Fxfx6z/Ex+rLZXKqd67jO9dxneu3xNWW+d77TO99pne+1zvha53ysM75WGd87DO+dhia0monjbWpLY4zP0T8yw/Np+n40lVIE2n7MS+HwazyPpueVUUsCniQNnM8rx8iy+gmYnqmJ6J9nY0EKeriIfS9mJV6v4JbYDTFoZf112nIcFWkf9hJMkeOYymMSQV5iQ9IqUDCSO5gM7mAzuYDF0WD+O5TM7lNzuU3O5SZ3KJncomdySZ3KJi6Jl+qdy5eUlMyoERF/N9k+1svoJmJ6pjf2p/qLv2mfgvmjxP6blz4kJu55+phHCUIEyNqsK7JIjTI0xnGDz7K4iVnA0otT1RPBwratP4Ma9qt3bv5m+Oe1qbu7fC40Hy3ftM/BfOHif01dXTYDOqEUpTkUhImn7GUiOXukfhyXR2MRFcseSeKRCgp7cdkHhd52oaWVNOyRGLVWYd+N7XMXZ7CPGu7GWdiL9rNQ3DPRmq7ZE/VVWCWUNkjlstUrElFAB2sJ678LtVWzvR+o7h6YSzsi78b3vf4vYx5XIwcNpGRYzDdN37TPwXzhYnPKlAiBeYya0f2nxa5HtRU/o+dLZCimO4pSHK8hKSkZEYyRITpvqRj2PlxYsosM4zijHZJAMzPPeNj02cWnrDeLyaZqH+hNIwF/Yujh/xAghr4zI4uSx0s6VLKcDNGm/7t0aL/uzSFeni4emKdnqOnrBbcDAjGmzOS89pn4LxMLE5pkwEIDznuLg9sbdV9FwHyRf0euasOrRRgZQRUlWQ+LkVPDbLaKkOwkBTSp1JAeJf9JqH2adkT6yNicsk44oCGJbWx7U/G+tpTzxmkO9W4D5Iv6PXNW/Uxc0nt2qVzap2WzTbSH7Jv8ApdQ+zTsifWRsTllxmTIxo742jSJIRZEoTA18gY/+uA+SL+kNVx1dHAdKaWkKwC9/I5yNarlspfbZxz5paOoq9SL/AKTUPs07If1kXE5530UrP+uR/ki/pCXHZLjmCSVGLEOQBaS/ZwMizGqioi9DntY1XOvb1p0dEiQIRZ8oYGBEwIxiZ/pNQ+yzsifWRsTmVUTxWcYKw5O3/XAHCgRboqKibf0fbVAbIeS4ciEVRni2c+GiIHvPaK3ZJVhNm/PhQJVgTgBWVgK0KMZ/pdS7pSTMr0R1hCaqc2slkJDBwfpzdM/TmjlkLAMhP6QPHDJGozH0vXlXcfdAfFgNMVwVRXjEMTEYP/Tam9lmZW+4wedzUc1Ud2GHnYYWdghY1rWIiN/rvU3skzK33KD/AGPZw/iEE8bKvS00M4JpX/8AYevkovlb8u/5VanJGrpZhd6LvO9F3jNVXTV8YOs91Rk0JhnGwg8KUYRuISx1k1iqyAXUlyVcZqC5Yu6QdYyRuRsyHOizwoaPmopkiDWvPH70XeDVVGxV6NQSzwawx4/ei7zvRd53ou870XeVMgsquiGL03ck0SrlHD3ou870XeJqm7yJrOUxUSXBnxrACHj9D3MYxznH1VbOOVQ0GoZsqwSPM6bnUgKxVAI+pbky4PUNyJd0rdY7uQc9j2kYjm3V/bQ7SUAPei7zvRd53ou807dWc+y6mRdSDRKyWcPei7zvRd53ou8jaysBqiHrL2DafpHy2MxsCEeQ7vReZpe6kWCyQyumxtYdYLjPL1hPKqpFdf3L13UOpbkK5V6uBJVopiKip4KqNRVWy1dGjOUcQ2p7ky42+uWrukPWFgFyJJrrSHZi6wGprCXXQwmi96LvO9F3nei7xdT3eRnOIAL3W93FqRpxydU28hy8DL+5Yu6QNZSRqjJsaSGYAZwT58aujuPIm6tsjuVI3x2433yJq6zA5EPW2kW0ApAfk977RYdFXpyplV0Q5ZGj6wjV6mdCNXyiRy6NnPQxoTlVEzUN0+ykKEVfWyrM3VR42jYLGp2gujqt6fot6CXVfrWtsT1klpwxJIpkcUgWrfZidAvlD6dV+ynz0RcDpSoIIb17o0+d0abIsYcSOIAunUvss3FyHpinNDjEeTSVO9uzLiqJUy+pXSkt8e0YHp1VN7JWPE2JFLNkMAIJXgKMzIckcuKA48spfYoEmRjyPI9731mkoqAYSdJ0hVlZ/hj6RmtnjadERqIialXe8nZpuriWhpLJHdGnzujT5AoK+uP14NSeyTsXIOl6o8KKYi6Qp1TwsdHlCxxITXPCRFbpu4S0jqM3JrObs2PCaGMU45JGVE1a+xjHxFRUTbLaxHWQySHSpR5p3nPUablWbUM8ej6pifql6MivaqxY+mrIk5scwRMAIYh6punlK+vjx4x5ZmABC0YJGI6Y7SFQ5Nks9JTIu5IumKQkJjpcnWntwME1HlG1e6NPndGnxdI0+IjACRMnyyT5hpL6HTQZsZkuYbSdORvCyRo+wGdrARY44kYUceqZz5VmQWUFH8WeR5e6tKrOHLHRskX64NFWfC4LBO/J732ew6KP2iv6NYvY6zGjdIDc63RyalmLDqTq3/8ACUlcytgBF0nAKQIgSzoroUyRGdoqWrmSoi6u9mJ0C+UPp1X7IfF9FyN9ODn1L7LNxcrfb4XRrM43y4wW6XjPkXAHJ0aqndrtHCTRkLjNImOvYfYbSSJNGzusjGhOzUQ1LSzmp4plRew7ETG8mpPe52aJ+qnZv06j9knZ/wCcqvbIHTrCuaCQKYOlmLBtIpU6VVEaqraTFsLCTJzS9axag7yyQPjHMB+m5vbasO+axlqWeOMlJXpY2IQOa1rGo1vTZS+xQZMjHKrlVztKVzYsFJTuTWntwMB88GJ0yGKUBWJsrfBdN3kRYgIR0VF6bwbh289rtL3MaAhY0kbxlajx/lN77PYdFdquJDgxo75Wtd2KkYhDzDue/TdQtbGcQ2tnKkaCzITEfNiMVPTk1Yzhuirmj3qy4zVvs5OgXyh9Oq/ZT4uN1HdNajW95rvNKWc6wdMSXjrmqa5Wu+N1OR7CFLcrI+pPZZ2L474LU1uEbBsLqa6M1UUDRyTp2mlh18SI1IWWUxkCFIkq5znuc91JC7BWRgrrSDxAjy0o5vYLOOZUx7GvY5rrnT8quI8gch3tpC26qm1OCwegD5qT3udkOxmV7iOi95rvO8t3jd1a1V1J7LOxcqfbIHTrBqOqd83VPHBKjgicvRqad2OrKiRwOknEBgAsjgEFmsIXUTxyW6RndnnujOy/cr7ieq6JYnaZr+Rc1W5W0x8X0yGxBxI7E5Nae3AxrlaqOTvLd53mu80vPl2EQ5JWah06dpyTIe226LEtLCDt2er1ewrmhnoqKiKmpKF8/aVGIMgXqMkaZKhu4o9drGQNWsnRzhkiGYP5Pe+z2HRE0nImRAyWy4poUgkc2kJUHrHR35rMKvrwFwJFCYRcG9pGNe3oXNSHae5lKmjQq+wOXNW+zk6BfKH06r9lPi+CKuA0zSPCJzu61HkCqhVqk7Lkmqs3SZDm/CbTNJQpkWbIcfUnsk7FyFQU5YUUj103SORUzUNAyrRh49JZFrZw1TNaTtmghNhPAKUB5++dZk/VFVOhnjO9c09N7fVgI7FTJlFVzd1LbaUJEE48NFVFRW1Ep02tiHfqX3ydml62HZHlMld1qPO61HngiIiak9lnYuVPtkDp1mdGQAAwInHMITWIjWtROjVs3tNigG0kyJAntkye+dZl5fV1rBULBGeAozMhyGS4oTs1KJRXMvNHSEHYmCvSuamEpaWXsuVEhsqshlTk1p7aDAtRxRNXutR53Wo8g10WtG8cXomVNfO3U9ho1qMc+A5rmOc12lJb5VU1r8lQok1vDImaOglRzosyGeDIfHPouW/rJMRfye99nsOii9ogZqqo7ZH7UERXhIwo6azHaQxmSwhtnwzxnGCQBXhLpi+EgmQJXReXgawL2Mc5XOVztMVzoNejiau9mJ0D+WPN06NV+ynxfRcj79nDz6l9lm4v85Xe3wujWMoTII42BG4pxDaqo1PG1mrPsJEnKvTkm0jdpb3Jl53Jl5a1Rqk7BF0dO6mYWI6RIDFAQ5q68rrNVYHJsgUWKcxcoAuBTwmO1Ku95OzRP1U7k1H7JPxcqvbIHRKmR4QXGPcWb7WY4y6TrVkze1v6J0lkKIeS8pHlIQj4ekpkuME+dyJedyZeToZYEs0YmjZ3WRjQ3axr3PYGcyOckU4jiqraNagR48c5rEVzo2oq2VMWKMomHE8T5sQkCUaMXTF62vesWQ1zXoityxt4dWNHSIU2PYR2SAa09uBgPngxOlVRqKqxdRVUuQoB4rkaiqtkZkifMMPRwVZWEIp9RVkaYsQjHte1HNzVhxGtlazRQnOmyjflF77RYdFF7RA6NS1Hw6X1oqS1dVzUerHtI1j23+n22SdfHPHPGIojxreziNRoS31wZqtds8jtsoNMvR7Jc/NW+zE6EvrlPT4/c5U3VqezhCJqv2U/Q3Ud01qNb3lvM7y3mVByya2GY3TqX2Wbn/nB6juAjYNi6mu3JthSlkEV5dM0BRlZOl6mndjqyojWue9rGQIrYMOPGb0auhdorUkJHO+McJ2X4JVvWAJB2IF6oodSXIGo1JtpYWH1NFSlszte9ERERE1N77P2h2MyvcR0XvLeZ3lvM05c2c6yQMjUfsk7FwWoLgI2DGupLtU8ZEqRKcj5FTp6ZZOa90SIGEAYAdGs53AAEJtbEWdOjxka1GtRE6NaQuEkeYyjnfD7OMZSjGcbxkutOyK17yhGUgnoQTNR3TG7JKs7Cam0ipp5loZvVDZ1Y2NW+oWWo0IORGPEKoTxbSwhIiRyajuiIqK5xpBd10xTyq9hDSNae2x8a5Wqjm95bzO8t5i6lu8sQS59Oo4545oxHCPFv7aGxGCmXdpOYozVlZJtJCCCKKkWG2NFsYE2AdzZcO1sK/wjm1JcmYrFBHPLO0QaWsbVQmh/KJMccoBQE7p0uRo44oBAFkuICaFwT906XIcMUEDACyVCizGcEgukaciqrWaOqmru6HU18D6fonQQWAFjyO6dNndOmzunTZH01VRjCOObCBYR3Rz906XO6dLndOmzunS5GjCigGAXTLiimxyRzd06bO6dNndOmyLUV0Fd4+WFPDs1GsmLpyqhnYcXSQbCscx66TpP4hxAwY7I4ZlXAnp/yX6NqXLu0GlacC7qxjRtRrMl6cq5pySDd06XO6dNndOmyDQ11efrwS4oZoCRzd06bO6dNndKlyPSVUVUUPJNoK6edTyIFJXVpFLH6ZcQE0LwnXSdLg2INjGIqb5K07VS1Vzl0ZVb+EfS1OBUVWDYNrWs6JMKLMZwHLpGoIqq1mjqpq7uhVVfA+nyfWxrITRSe6dLndOlzunTYuk6XGMQbGsSVCiTGcEgmkKkiqrQ6RpxKiuBHBFGgw4UIjsVhT6TpzKqozR1U1fGHAhwGcEb/wDW4afCj/Obc1T12ax7CNRzOl5BjbxPdcVTF2cKdCkbdT0klxgu4SDIMreJnSs2GiqjhkYVqOYs2Giqi9uhZ2+Fnb4WduhYOTHMqtGWQAPD1nboWduhYwgyJuzke9g2q577mqYuzw2EKR4B6SSo4V4SDlRirwj/AKds7ONVx1Mex1BY2DnJiJuuOa5vi6JNlwXo+Np68fbMIw2XeqkjufHgyJUiW9XyGse7xb6LlbqSwgK1r4E+NYx2nj5q33l+UFy6rkcL2uR7Uc3osETt8zNLeyRclt/5UnODNkxGovpwZo1NrQua4ROKvxrFcqNasU+Nc8Tt2VOqZcV7BzGPaVjXsy71QkR740OTLlTHq+Q1jnJu1U2XK3UVhXqjVrrKNZgQwM1j7s3NI+8J/TpHsGxz3W1kS0mEO6io32pFe+JXQoLEbHexjmq11lpWDM/WCrrQ1cRkceqLR0CGgQsY8jmsZUaYixGMJKaxrUREm1sKcxWSLylJUnTahtHVc5iqioqIqat95f0aVvOrVtdJ6J/18zNLeyRc4W4rW5f+8z80QiK+fnC3ERE9Nb/ur8oveIGJlpUxbML2Ec1WOc12lDuNTiR2pbRa6FwCRqucjW02mI0VjCzGsYxqNbLr4c5itkXtG+pK17KWzfVzWFxrmuaiprD3duaR94T+ndUyFBTnRP8AzlTDbBgRgJyaokKe4OmaSiNkWald038RJlTLZnguUMlZNRCI7VvvL8p6lLaDPa17HiI5j9NXSWIeznyf9fMzS3ssXpv/AHmwzRH7p/Trf91flF7xAxMmzAwYxJBXuUj3vdpeM6NTh49WyFNbvHmlYiSbVr3dN1ESbWShL67LmnJCyaeI52sPd25pH3hP6d1n7YHGKiPYqptsnLd+7z99EKnWWHJMVEiSN09EzSe6Uoc1b7y/NEftsM1TSdexZ8aPILFOM4aqzDbRGmZP+vmZpb2SL03/ALzYZoj90/p1v++BgDljHGYXee8yRLm2BGqem0scxGGnoiNTZNQ7/Gp+aJ+rm8hlTqiqv/jNH+0JmsPd25pH3hP6d1NHWRTydspZrZ9cAycmq4ygtyEzS01sS0ax/TqSY2HVH6KaMsSrhhXV3vL80R+ywxUzUtJ2AqygVNmaqltOyW9hZckjNLeyRem/95sM0R+6f063/fAyoCKRZwwlm6WrDRntjkGUBXjfpm5WwAsc+avjKG0Q2aZmthWouPp1BNbCq5Ls8MoYyxKmIN2sPd25pH3hP6dcxr2ua64rCVc14Vprk9QZVbEvqqWxFYW1rQtVz7XV67oOuo7kdtHzUVUtpC3GqOY5d6jVglY0Niy1rSN3ZM1HUxGrltantT9YXTdSthMaUmat95fmh/22HQcApASBLcVRamWonZpb2SL03/vNhmiPWw6db/vgZQ+8QOjV9Sjt7EEOUaDJFJDBmBsIopIb+rS0gqxjmuG5Wup9VsQbAWA7WsK1HMl6iqYiLvb257Y6Pfp6pdZTGueiZrD3ZuaYOGNaI83xerz4vV4CZFlcXUf01Y10ayAoD2GmLKE5VE8b2KrXsarlRGQNOWc5yb1lZGq46BDlzpoFkqnDNprOC5UMqIngoo8g6o0NbpOWdzXzY0YEQLAhzVgyOuHq3RLXsbYcXRa1oLSK8BJMCXEO8RtLoqUsVHdF8Iq3E9U0Ux7XT+Lo1qx7nQOGjGVLeAqpjxtIxzH3NKetlvazTVkauldSXLrTkaz/AMoplJZwVVCqm3g4QDnVGhrdJzJKo+ZFiR4YGBBmrxvfat4epNnUlzqjZolj2pP4v6ccwbk2VGMZ6crhDcu6o1qen3KiE/1RrUTw/wDpJf8A/8QASBAAAgEBAgkICAUDAwQCAgMAAQIAAxExBBIgIUFRYXGSECIwUlOBkbETQEJyk6HB0SMyYHCyVGKCM1CiQ2NzwhQkNMCQoOH/2gAIAQEACT8A/wD0ltl8Y6+P7iMWfqrAtMeJlZz3mzlrOO82QLUHgYxV+q37fsFUXkwlKfWuYxSzHQI4pg6BnMpY/vG2YPT4RMHpcMpYnuGyP6QajmMUqw0GWvT13ssYMrC0Eft4bABnhIpKeaJaqA52+gii03nSctAdR0iWtTJsV5npE84RrVItB/bs80Hn75mQZ2OofcxQqqLAOhUMrCwiWlG/IYeYxtTYf26vAsXaTLWYnvJM/Mc7HaeUWlEY2bhbMIqdxIHcBMIq8RmEVeIzCalu0kjwMzFkU+PL+YZ1OoiWqynvBEvIsYbRmP7aVGRVAssNl4llVdt8f0bamht5DrYy6mMbJoZ9NhIlD5mUPmZoYgeM7NfLIFi1BjDfcZpAcftomfQReI4camviMh23HcZVZRqvHgZTsPWXOI1q2ADcJ7T2eHQdZvOdmuRer2cUubGU94/bYKV2yoQ/VTnLy6WbJHOJAHfMIPCJhB4RNJtM7NcjQyH5w2MpBBiLUGzmmVDTbU+aEfti4VRpMTGPWbMJVY7Lh4CU2bcIVUsQFS88nsuwyVBUx6vjHq+M0MQPGdmuR7TqISA7WZpUWoNR5plJk3iwdxuMqsB1bx4GU8U9dc4jq6m4j9rWAAF5i4x65ulRmO36CJYnXN0JqnVcsUKBoAn5aWbvPJscdB1m852a5G1zLqaMfHkQEG8EWwmkdmdZTJTrrnEqFDs+oi4p64ujBlItBH7Vc+r1RG5tuZRdF5oOdjdB6R9t3Lcqkw85iSdpMHPpm1/875cDY245jkXKpbwFsSmBFpeBi0vAzSSZ2a+WRcTYu4ZhL6jZtwyR6KprW7vEpnF64zrHzE50NxhxKtmdD9P2nIAAhIW4v9oCzMd5JnB94oAGgZF7HGbcILVU47d0FqsCCNhnsnNtGgw85Bzdo5QCCCDuMwhgNRUGYUeCYUeCYSxGoKBBYqqANw5Tz3HO2LPaPgNJgsCgAd2UoIN4MzHTTP0isjqbjmIMJK3B7yN8YMDcR+0jACc2noSDN7TG4QWuRnY35WzF3QZ6hze6OQfioM20aoSrqfKELVF669o6GxqrDmrCWdjng/FcC3YNXQixxc4vEFqk81xcZa9InOn2jWqf2iO4C8w+6ugS1aOvS0UKouAy6atZdaLcgfiXsvWhKup3EGcY+scMDpGS4UDSZnPXMLM7HeSYv4l6reF6NAyMLCDLXofNYfeU3MIc4zMukH9oL7lGkmHYALgNQi2U71XrQAADpeZU6w+spkr1xdKjIdh84EfeLJg3g0wbxaBKe4WmVGc7T5CUzi9c5lnPqdY/TpQLCLLrQYLaV7KL0jZ/MajMxuZdIP7PHMIdijUIPw71Xreo08Q60zTCOIQ0j3kRqQ7yZhHCJTxzrfP6iv4V7KPZh95dDCG0HxB1H9nCAFGczMikhB9TtMH4Sni/2gWwH0DHgMtNJiA6/UbRDapzgj9m25innbTLQgzuYoVVFgH+0qGVhYRLTTbOhjfhueYdRP7NH8VwbNg1wWsxzTObydZ/2u+9TpBgsdTYYba1MDew1/swbFUEmaTmGoaBBznHN2D1IklrgM5mD2bXMqKnur97ZhNTuNnlK1XjMrVeMzCavexPnKmOloDAgW9xHqi89BzxrWXqc41jSIbVYAj9lzdYzwcxec8GYepaKax1UKQDbtldz7oAlNm3sZgyTBllJlOxjLwSDvBsl5pgHeMx9UH4b86nDma1k/Zb2RM7MSTvMHPfO3qeiweAmmp5AZWlsfiFsvSofn6oPxE5ybxDYysCNhE9oZxqPIQFUEk7BMHX0NuvnWQ5iAf2RuXnNBzKfOPqnaEeGae0zHKudCvDDmdLe9T6qLKdW1l+ohzOMZN45Dzqxs7hfLmbPuvJguH7IGwKCSd0vYkwc+pzz6m9r9Vc5ntMza7zbOpb458pbTTcN3RirC4qbD4iH0qbb/ERilTqNysABeSbIPStruWYjUyc6ARgVbpRz6fPWXowbfZo75nV1DDvENqUuYN4vn/jXzP7InPVb5CXE87cM/SmwASnUKD25XUnVcfA8rhVF5Mtpp1vaMDMzHQCSTD6Nere0FiqAANgy6S26xmPiI/pB1TmMVlYaDmMtq0/+QlO09dvoJVZ9QuHcJSJFt5zCEMraVuBhJpMeesNqsAQR0NJPRo5XnXmw2GW0W251jhgbiM/ILFttXcc8NrUPyf53DxlrMT3kmXqufec5/ZG6mAs2IvSt/5D5CUy5UWmyAgjQRYRKzEajnEog7U+xh5oPNTQJzKWlzEz6WOcno0DajpEBq0jcQM43gSkUXrPaJ+M23MvhAABFDKwsIlpptaUP0O0Q/hueYdRPQ1ApYklGutMoso13jxEqsh2HMd4uMp446y5jKgLLaji5rDCbDBzKQxz9B+x9QKNsR3PgJSpqNtp+0zlmJJ2mJTKjXaLzaZRYe6bZVBOq49F+dsyDbLWdjvJJMsNRs7mU1YbRbHakdV4gFUf2xCqA5k0tFAAuHqV96nUYLHUkGG2rSsDbdTdDYRHFCpqS/hEYsoOYkWEjdabOWgj4xtJJIMpvS2/mEqq41g2/sWQABOMxizaznMomzW2aV1XcLZhL+AmE+KymHA0qYCrA7iITVp/8hHBHQG2mnNWDMpITf6yLrFf7z8h5r7jCLDluFXzMto0/wDkYCzMdpJPmZTFMHrn7TCh/ikwp+ETCUb3gRKDFesnOEqMjdYGwz4o+ojAqRaCMugHCNisxaHYym9T+u3CqLyZUDWXi7IYBQLSZatIHMv1aLzbecxuEAdx7TZSA6jpEJelr0iNYdINxGozMwzMuo5R57c1d5g5zMAN5lyKB0fPqWZkEYUl/tmFVuMzCqh942j5ynaOuv1EcMpuI6EWqwIPfL0Yju0HvENr0uYfplZ2uVRexjWnQNCjUBCadHXpYbJTANmdtJyl9HU66xeaTzXFxlr0CecmkbRGDIRaCMoW0nNrjqky0rc6XBhGtU/rlgABaTM1Ncyr9TAQmKV3k5DfhJ8zM1NTzjFCqB0K8y911TvGgiG1WFoybqa2ne0GakM289GQarDhExmdjvJJ8zHKDqLfKNu9jC9M7DbAGp6HEJNNjz00HaIwKMLQeg51RhzUjWu3cANQ2QFfShcVdgyTYqi0zcq6FEX8O9E19CgdGFhBlrUWPMY+RjfgVDwk6coAgggg7YLaDnhOqWmix56fURgyMoIP64P4SniloRfzH6DaYtiqLAOU8+pm3CXse4bd0uA5VLM2ZRMGPFMGPFMF/wCcplGIOLntts5RB+G+dftDzXzrvyfac2brhHHpCxZ16LMqKSe6XuSTsGgdwi/iuLR/aDkKCrCwgy30bDGQw5jz0+oy7HrHRq2mMWZjfEz3rTOjaco82nYz+8YPwksZ/tMwA5cUOylixFtggGPTszjSDyAGo7WLbcJY1qllYCy7lFqsPA6CILGQ2bCNBGww21KNi7xoOUoKMCCJnpNbiND+A7cBP63b3z9JebzoA0ky4adeQeanNHdBpxVyGAdCbLdsNLxMNLxMKWFgMxNuea28sgWuox13iXqQw3jPLnUN45HOUkkppEYq6m8ZjCEfQ1wPQ+2QsuaooPmcoWtSON95erj7EZX5yQoN9lsLO7tvJJgBq3qt4T7nKuRSx3CXuSx3nPBz357bzkdj9ZqT68naHynZPkDODiP33Q82ofRt35YzG46VOsQZ1uOhhoIjf+In+P61/wBVrQo+stZmbeSTADUawuci5VJ8Jfed8vCC3ec5y+1E1t5ZIsAc2DYc4nsMVybKdXXobeIhVh4EawdIltSl4lYbVYAg7Dl+zVUzrgeIIyhmIsiG0G0AkkA5Whcbhzz2XVvAg5ftsqzOGqC3cM5yex+s1Jydo3lOzfIzlkNm8ZxLxnGwz20VvEW5YArICUb6GKy1lawL7QIObNPz4oxt+n9Z3KpPhDf4AaAIM5/INmvecnqWeMuLqD3nJJzmwAZyZRq/KUavyiOCHDZ9g2Ga28sn2kUzQ4PjlKCvzHJopJ5Zd5U2bxnEJDKQRsIziXOoPj0ntIw8RNU9qmh8RlaajHwE9mm5yex+sRGxwoONslGj84iLiEkFdosnZPk+zVceBmhLPDN0Ci3XZ+tLmBBG+VWZQfyEZXVmiomTqeKCQLb/ALyiOISiOIQBQm0G0kWZOikJrXK6pmqdmvllYipacUEWmGnwzSxJAzDPqjJii2y0a88anwRqXBGp8EanwRqfBGpcMVcZVxsYZOo8nYp5ZWhnmmk2TUNOoloBstvmGLwH7zDF4JXFTHYjMtlwtnZvk6az+c6pPif2Dvam3Jcyg5Gp52X16DQwXhFk9qofAADK0gzRaJppJk6uTCHGOitcNImEv4CYS/gJhL+AmFVPATCqngJhVTwEwqp4CVWfHDXgaJ2P1ydCMfATVGVlCBc2sDK9iqDLixXiBHQdo3lOyfIuRCx7hbNpM9mkv7CaGNm45xDzqRs7jnGRqeNYCll0qtwGVW4DKlrAW2EEHI9hSYbWJJO0mXhRbvOc5fs1W8LbRL0JXwOX2KeXQdV52P1yRaGBB3GfiUNDC9RtjkaxeGEOJWszodO45N7IbN4ziEhlII2ET21By+0PlOyfIPOrHF7hfLmcW7hnPSV0p23YzAQgqRaCDaP1wP7Xn5G5r7tfdCM45VximMCukgzBavhMGq+EwWr4SkyIgN+0ZBzKQX3wcynY7d2XY1VhzVjWsxtJuilS74wGX2KeXQdV/MTsfrlAEGWBtNLQd0DI6naCDDaLhV++SCKdXnr33w5n5yb8tsV1OMplVWbFsULykXT/AE15qbov9lP6npLSjUxiQ5mtanv0j9W9w1mU1Ac2AjoharAgzXaDrEOxGPkeiINZhmGraZazs28kmWY7Z3OVY1Y+CwlnY7yTF596poXK1cnYp5dB1X8xOx+vQKBUQc1hfacwEvYhQNpNk9lQPDIs9IvOQ7YCjo24gg+YMIFdBzhr2jom2VWH8Zpzs2hRBYiKFA2DpB+InOTeISrowI1ggy9hYw1MLx+rDzaf8oOZSI726PNUXOjRbHUy0roqfeMCpuIy7HqeIWMWdjB+IRzV6uV+eoSAdQEDO7HeSTADWsuvC5eqa52KeXQdV/MTsfr0B1u3kJdSBfKT8UDnJ1x9xGKOtxllOtcDcrZbBVAtJJsAEJC6av2ilnY5h9TsmeqwBd9Z6Yfh1yTuaH8OuQBsf9V33LtJlrMx7yTL7M+0npBY4/KwvEXm25nFxlSwdW8SkQesmeYQo2Nm85Xp8QmE0+42xHqHhEfETqrELMdX11CWNV+S5Ytanzx3S9CCNuyG1WUEd/QXhiDvBsmhAvDmPQXojE98uFLzOWbAASTLnbMNgzAQc+sbf8Rdl2JW+TSmyNqPmDpEcVE6jym9I8QmGUu9gJhNID3xMKQ7F53lKDMes+YSqSLbQgzKInMBzucyiDGc/mc3np7Ma9DqYS1XU94IP0MsxrLHGph+qjzaX8jBzKX8j0wBB0GMaR1XrKYca0P3lNk95SPPlKi03sbAN5lcEaqf3lNVGzoRYh5ybjDrKfUdAOZVJbcYC1FjnAvEwmn3mzzmF0eMTC6PGJhVHjEwqjxiYXR4xHFWpoC3d5jWsx8Ng2CCypVOMRqGgZZ51TO3uy4m1jqUQWAAAbh0FJXXbK1n9j/eYM5GtOdEZfeUjz5KTv7qk+QlH0a66hjGs2q5YoUAZgPURYla/wB8Q8ytd74/VPsiElmJJ2kyzGvbefUbkGM288lQY6EAqRmsIzEGUmXbePESqyHZd3iUgR1klUE6tPgegH4lPnL9RDYykEbxL7mGo5a2qYprJs/NEYEawRBBBBAZRdtwNnjLGYZ1p3gHlIZxmZznCymlQaxzTHNJtTx1Ya1NolwHidAEPOY9wGgDYIPxaoB3L0gERRtA9VHOHOQ6mEJVkNoNxBBgsZkUkaiR+qNHPafkp84+o5goJJ3S92LQZ3tx+/OJ+WpzDACIDSb+27wi+lTWt/hEYMtRScxFgtz29Cv4bnnbCZnptmcRgysLQRyVLX6q5zPwU8WjGrT/AOQjhhygQCAQCAQDlqKqi8k2S1KWu5miFnPgBrJ0CVEqGwWjOsoum0jNKrIf7WIlUsEu+5si20abdzN/smC0zUttLWfqmmzq5FlkFjubW9ROeqfkJcWtbcM5mlebvEtVge8ETSM41EZiOkUFWBBEz02JxG+h2iKXpnOF1GP6NNSfeIWYm4ZyYwpLqvaA1KWsXgbZUZGGkaRqMp/5p9pWVtg6CnjnrtmEqFz8gNggNOl1z9BFvvbSx1k8gBBlHEbWnNmFkJtW0xbEUWD9nzzU5i7hPaOKvdyDmVRjDfpEufnLvHSi1WEpGopPNYSp/gn1MpKg2cttKprX6iU/SL1khII7iI5ZqbAAnObCMrRSc/Lk/Gqbcy+H7Smw2GyUX9JbYcxs323WS5FA5Ba9PnL3T8ykEbxLmHqmlWQ92cQ5qlM+KnK0pZ45p7VVB4n9qx+HUtZYeZUNq7G9U/6bq0u9IAdxzHK9p1E7VT4Z/wDbmcspsYqtoUxgVYAgjSD+vLMcZ1OoiAq6t3ggzNUXM42+p+2jCZj5GYTTDFRaCbCDMIpHc4mEUuITC6XcbYz1PdX72SiUUOGtYgk2TQHPy/243VWPc3OEvouU7rx+pFW0AFidsWx1Nhsu9YGYkCoPJp+Q5nGz7iMCrAEEep0HemWJUoLcxMpuu9SPOWclNm91SfKYJV7xYPnZGp0xvLGOXqEWWkWWesVkB2sBK1MnUGBPqt1RCp3rDmq07RvX9Se058BmEvclvWFBVlIIOoz8hzodY+4jcxjzDqJ9VRTvAlNfAeskACL6Q9c5lmEOR1RmHgOSyYRUTZbaPAxP80HmI4ZGFoI9SvpMHly1Vt3HMf1H7KEiXnMN8uVAPD1nMb1bqmLY6nPGHpVHNPWA/wBtYBVBJJ0AQlcHBzDrbTE95jcsJrN4LMHpLuUCUKbDaoMBoPrS7wMW2noqC6EtSJ59PXtEa1WHqIzVEZT3iyXgkHeM0OdqSk/qK+o4HhnmhsY7lz+t5qyDm7RqMLI6tuIIhArKOLaPUSJhVMHUDaZVdtyGVHXehmFU7dps9XNgFjVfMCEhBndr7B9zECouSoZWFhBzgiA+gc8w6jqMP4VY8L+pXGoXG5udL6VVh45/1F7KlvGXLT8z64PxgM40OISjqdxBEsWuLxr2jpnCqLyTYIlv/cb6CV3fZbYPARGbYoJ8pglXw+8wOt4W+URl2MCPOVnTZePAxLP71+ojqykWgg2g+p/lRSx3AWy92LHvg/EqgO+XeRap1MLjLVYHvBEvZBbvGY+o+3Ss4Z7VMNw/qK5bFE9p7PD10AVdK3B5jI6HcQR5GEJWuB0P0mcnMqi9jGsW21UFyxLE67XQGs/913hKaqNgA5aasDrAIgNF/wC27wMS2n2i3RsxPOQ3NDY3tIb19S0hV4jZLnqop3E5+huLB+IAmexWPqLFGQ2qw0Eyo1So+YsQBm/UQsPpXl7At4n16xK4F+hopR1N0JI0VPvCCCLQRnzdDcLhpJ0ARs+gaFGoRSKd6p1oAALgMtQQRYQYpNLOXTq7RCLR4EaQZcbxpB1H1HrJ5zt06HQiCaavkP1pQUsf9gFjgc1wM4i5rea4uac+lpQ+YMfnaUN46A/hUrQu06TBbRpm7QzZVZC4vUMLckfg1DwtD+DVIVtm31G80zZvGcTMwYMN4NolzoG8cs2AT26hI3XCX1GZ/wBlUDKbwYDUp9S9h9xGZHU5iMxBi/5r9RHV1NxGSbHfmL3z8zkKO+XKLMltjuPIQlWDrnyRzXUifmQlTDa9PmN3XH1H8jHHp7iY2s0vtlt+LVv2JBndvAaT3QWKihRuGb9l+ZV64iY1PrrdKrIfkd4uMp4p665xKiuutTby3Ilve0upJm3tktsdx5CKTYCx2AXndOsvmMq6qlh3rDmqJjd6+o5qyWlCfI7DAyVEbcVI8jGCVQLA9ytkkVa/V0L7xEYs7HOYv49QXdRf2Zsn4L7M694lO1OumcSoyHWpsMQVV1jmtK3o21OLIQRaF8BL3qnIOKatuM2wRSXY9wGs6hOdVai2O+s2Trr5jKvSqJpYrxeokACYXSXCQMxXnA2aDi8lc4nUbnCYIje65EwNR7zytiIb1p82IzudAgD1hnVb1X7n1RxTCKCxsBJJgHpEcoxGYN+xFMI59pMxjrVXUea0pOnvCwHk6z+eQtthtBF4MSwteTnM7Fp1188rWnnL/TJ05AAFpJzCLjHtGu7hKzvsJzDcLhKVR/cUnymBVpgtZRtQ8uFvVIvQDEslFEGweq6aSTtF/UDEB7bbNQjkoUxs5uP+0qCDeCIoVQwIA1EAz2Kp++V2Lzrr55Xt1VE0VMbhBPTOFRZalAHmp94nNBsZzmVYPTVBpe7uEUActBSesMzeIhNWnq9sfeOUdTf9DrEGJWQDGT6j1XTQX5Ez/t/qDU87L6/7Vc9OzvWH/UUMN65XYtOuvnlXU1LHe0/6VP5t0re6NLHUIbEH5UFyy1MHBznS2wRAiKMwGWllUAl0Fzj7xrHU9xGkHYYLLRnGkEXg+qdh/wC01U/1Bqedl9fVMJW3UM58BKdR+4CYJ4vMGSz3pgng8SqndbK6E6rbD6hnekfSDumdkYH7jvENquoIyKroiqLApItJlaqQRYQXJB5MIq8ZlQuExMUnbymxEUk7hL3Yn7DuEHPrHHO43dIQ1QjmJpJj2m4DQo1AQEUL1Gl/sIoAAsAHQj8KsT3NGspViO5/VOw/9pqp/qDU87L1F1RReTKRJ67yu7DVcPARGY6lBJ+UwcrtYgR6Q7zK9K3cY1Ju8zBmPu2NFII0NmPgZXYDqnOPAxMQ9dc6xwym4jphZSclk+ojWU3a1DqY5FBHK3EzBEmBpMDSU1RLbgLOVvw0PPI0kQfhJYz9JY9dhzU+pjlnbT9BqEQhcxSmfNujzsox13ryPbXpeLLoPqfYf+06tP8AUH9800j8j6hZUrDwEqFj4AbhExU67XS2q226IqLqAAyqauNoBjtSOq9ZTtTrjOsqEa1vBllOt1de7pcxvRtKmLY6nP8AcaxHuACVCfPoWz3NUHkItrsc33OoTOxzu2s9GQ1ezuSFnqOd5JMW2petO8JtO3pTmWoyjuJENjofEaQdhh5rC7SDpB9SGYUBZ4mf9sfqDQ5mmm3TsQLmqDyWIWc6B5yypU1eyIOiAIMsR+z9kxWR1N1xBjc+5Kh07D0vNqqDivEsOjU0PpaXUN4GyVcRz7D5smsHfqJnM/CpdUG8bZTLHwAGsmc6q35n6NratzveF2DbFZ6jm68kmANX+SdNprv5y006yX6m1RrKFUgNqU6/UqQfFuNxEpBF/UAtxHBMW1VVrTvHTNzLqja9kXPeSbgNZmdjnZjeem5lVfyvFKup7iNY1iPzrqbnTsPSoGWN6ReoczSmyNqYEecwiomwMbJhFu9RMJs3KJhFVxtY2SmznUoJ8owpp1FztKYRdnRvZUYWuReoMpl3bQPM6hLHrsOc+rYMrFepcz3qv3MC4wXHBXoNLE+Jg5r4Ol2gkWgiDnIfEaCNhjW1aY5p1p+shbFA3CzpWsquM56qwWuxzffdM7HOzaSfUM1VASjQFXU2HQQRD+NTFjbRoPTU1ddTAHzlAp7hIlauO8StWPeJQx/fJMpqi6lAA6S4Anwl9Ri3jcIPxawDNu0DJcKii0k5gJalC4tczymWc9wA1k6BDj1nADN9Bl+zTY+Amr6T2aSDwES2vSBs1sNUax0II/8A9ma3My6mH6+OZRbDzma0/QbhB+LUXwXKqBRtMol9rZhGppuWYSeEQ033rKRQ9Yc4SorqdINuUvPUAPtWXA2MNYMNqsAQdh9e0UX8uS4AZDe6ovY6gJzaQNq0xBiUgedUMSzrNpY9BooVPKXkgeJmgDkX8GqecOq5i46OOcltkoVk3WMJhaKdTWrKqONakH9dnMBjv9BBbTp85sqxqwvOhY7O+syniJ1nzTCWPugDztlSt4iYQdgYSlanXTOJUKN8iNREsSuBdobaMkWgiDmW4ye6ftL6fOT3T692D+UvLAfPI9lST3C2OWZvADUNQgKUbwvtPECoosAGYAdD1APEz2q1MfPlXGR1IImEo41OCDMGL+4QZQqp7yEeYhIOtcx+UwytuJxv5WymtVNa81pUxl+YOoj9bmwAS92J+wgserzj9MkgVWvPVBilnY5hLKlbxC7soBKt5W5WmMjo24gjyMIFdBn2jWMkc6kc/umfltxW3NmPr3YsPGC0l1A8Rkdk/lNX0nUHRe06D5ztlPhnyhMEottxQDFqU/db72xvTUReQLGXaYfeXrCG1HUMDsPQNY4UBTtJslZ2NSsisGYkMGIBBt/ULhVGkmyCpUOwfeYO/iI5Q/3iyEEdBe4CcRsM9t1XxMzAAAd2R7IzDWYbXYkneYB6Zxn2DV0A/FQc4dZRL1PcRpB3w2q6gjvyLnUqe8S8Eg7xml5pi3eMx6BwqjSTYIz1T/YJgtXxEL0vfEdWU3EG31Hs521PzyOwqeU2TUOi011+QJhsQOc51kEDoQCCLLCLRBZTzOm5of8ASq5tzdBfUrDwWXKxfhH6g51ZhzRKhZvkNwlFiDcTmHzlND/lKTJvu7jGtTShuh3jSDl+05PgJ7Clsna7QWpSGOfoOizITjJuMOem1o3Nk6XxuIAz2KpHjny87m0IgvJjkgG0IMyrKDuLb7h4mU03Y8oOoHtXjxEqFda3hoMWooGOnqGpP5Caa6eeR2DzSyg+PR9dzyVLKyixSfbA+vQ+zRQGa06D2KRfigzU6QXi/T/sjxMa12OeKC5FqoRmWDkUMpGcHPBbSJzjqGfkOZxs+4hzEZWimT4mC6mB45Ny2LL3qWcPRbUMuemR4ZPtUlmtDlGxVUknYJpNir1RBzL0p9baYoAAsAAsA5ACDEsAzvTHmBL1PiNIOww811BHf0+lkB4pprpkdkR4w31UHiej0I5jgPTphlBuYmIyOpuPnMKYjU9jyhRfdasweqm6xphQT3wVlZH2qwPlytziOYgvYw2vUYsfsNggsqVSajd/QXIRT4RP+rV/j+n9rnugtWmMc7wckAqwII3y3mMR3aDDnp2oe7K7FfMz+zJ7Vp1m8+i0Vl8jDpfyyexnVTKvquAdwzmC1WNre6M5gsAGSLEJDJuaX0qmbc3T+1UQfOdqvyz5HUA8TLzWTz6PRQHzJn/bEopUG2VK1PvDCYVTf31KzBw41owMweqnvIQIbCNWYzDKw2FiR4G2YVZtCqDKjO5vZiSYmJTUhkpm9tp6DMqKWO4C2Xsxc7ybTLxTBO9s5/T/AGQ8zL+Zlf2+U7X6DK7EeZmtMntWnWfz6Lt1mtv45PYfWak+uVdz5eKJs8RlXmifOdmnT6ayTRUPlkf2fyE7en59H7KIPlbNNbyGVglF9pQWyk9P3HlevZqtEoAvod+cR0N9SymP8p/1Kqr+oLiCh8xLqq2d4ySLpczkjcMwl9Ri2V2I8zNaZPatOu/8ui7dfIzW38cnsfrNSZX/AE6nybNCAhJVtzZRtSmBTXuntuFG5en/AKhfIzW/8Tkden/KdunR6HA8ABNNdz6kjOKdUl1EpMtOkrYpIIBY/qCzGvXYRLVdTuIIPnCBXAzjXkMDbaKjeYmk5zqGkwWKoAHdldiPMzWmT2rTrv8Ay6Lt18jNbfxyew+s1JlDmupBgsdDYfvuMayquZSfbH3yGBrsOAfeLa7mwDaZnxRnOs3k9Por+YM0hx4jIP5qqCaKtvgCej0138yJpLnxb9aZqoGddDQMjqdoIMK1QOtmMwVeKVMRDeqZpTLMfADWToEz1Gsx2y+xXzM1pk9sZ138+i7dfIzW38cnsPrNSZdgrqMx0NsMRkcaD5xxVQaH+8wRbffjikpFyX+JiM7sbhLDXYdyj1AWuAHXes/OjBl3iH3hpU6jytbSpaesxg5lFTxN0ftVHOzOSZ2Knx/WtMY3WF4mEWqik2MNU0kDxlYtrVRZKaoNg6DsR5ma0ye2M6z+fRduvkZrb+OT2H1nVToKKuBdoI3ETCWAAJscW8mEmxgGsQa5SC23m8neT6i4RBeTFZabG2wgDPsEqsjfIjURcRKFFjrziVAlM3pTtAPIVFRahazWD0RsxaZs3nMJecw2mexTVfAWfrbsmnWXz6LsR5ma0ye2M6z/AMui7dfIzW38cnsPrOqnQ9RpqnZJ5epH8FCRTH1gCU+u8wulwmYXS4TMLpcJjh2AUkgEXxsV1NoMFhYEMNTDoRzHrAOZZjIwYW5xaDaLRMG3tT+xmEoW6pzN4H9a9k06y+fRdivmZrTJ7Zp1n8+i7dfIzW38cnsPrNSdD1Gmqdknl6jeKDw3sB4myCxUUKBsGRoCD/jyMMbGDqPkT0KK6MM6kWgx3oNxLKYrprp3+BisrC9WBBHcZhLFOo/PEwcqevTzjwlVag2Xg/rLsmnWXz6LsV8zNaZPbNOs/n0Xbr5Ga2/icnsPrNSdD1Gmqdknl6j2Dzrr55PaEeAAg/MpPzIjlXW4iEU6/grno6CVB/cAZVeidR56yl6SmL3p55UKOPLURpEsWqlgqJqP6x7Jp1l85Xp8QmEUuITCKXEJhFPiEr0uITCaeKLzjCYSOEzCf+LTCf8Ai0fGUUgCZVCYxWzMTcJhP/FphI4WmEjhaYT/AMWhtVqhKnYZXCuC2awm8kzCRwmYUOEzChwtMJHC0wkcLTChwtMKHC0wocLTChwtKwdxVDWWERsVELWneCNEwkcLTChwtMKHC0wocLSpjqKWKcx1yqEDhAuYm6YUOFphQ4WmFDhaYTSsI6wmEUuMTCKXGJhNLjEwmlxiYRSzqfbE1Tsk8umqtToISvNNhayVH4jKj8RjuQbwWJ5KlTiMqVOIyo/EZUfiMJJPfkVH4jK7kA50YkqRKvoqhA5r5vAwjoksGNZVUbbmh5jsKb7m/WItY0yAJmI7iJZLJZLJZLIjO1ltigk2bhMFrcBmC1uAzBK3AZglbgMwStwGYLW4DMFrcBmC1uAzBK3AZglbgMwWtwGYLW4DMFrcBmCVuAzBK/AZglfgMwSvwGYJX4DMEr8BmCV+AzBK/wAMzBK/wzMEr/DMwSv8MzBK/wAMzBK/wzMDr/DMwSv8MzBK/wAMxWVherAg+BlkslkslksilnbMFGcky8U1B3gdLqmszBKJZqKEkqLyJgVHhmBUeGYFQ4BMCo8EwKhwTAaHAJgNDgEwGhwTAaHBMBocEwGhwTAaHAIgVFqZlG4Hkwh0Gq9fAzBw2tqf2MwhQ/UfmnoBbjUmEvstntIp8Rb+sUXwEpr4CU18BKa+AlNfASmvgIoHPN26dm3r2tP4xFP47XjYJTTwEppwiU04RKacIlNOERFG0DptU2zsKfl0va/SU1dLKa5xaNJgag39l3gYErqOpmbwMpsjdVlIPgZhLheo3OWYN/nT+xmEoW6pNjeBydIIgIstENttCn5ZdcY/UXO0p4TwCU8J4BDW4Ia3BDW4Ia3BHq8Erv8ADaV3+G0rv8NpVDhTY14IO0H9S9c+U7NvXtafxnbt6pqm2dhT8uVsVEUsx2CP6GmDzQAC3fMOqfKYdU+Uw6p8phbPsYAiALUU2OmrI7X6TroPActJKi6mAMd6J4llNa666f2MUqwvBtBHcZXZ6NQ4pDm2zJ9mq48DOyA8Mr/Wc4lPedMLVKjnaSxPzJmBniWYE3Ev3mAVflMAq/KYBV+UwCr8pgFaYBX4JgFfgMwCvwRGpB1CKhvO0/pmoA2hRnMwfvcyjSmDkbUNsqqw6DrnynZt69rT+M7d+grBbbhpO4CYL3uZQofOYKRtQ2ysGsvFxG8HoNRmszAwfRoq24+qYAvxDMBX4hmDBA5XPj23G2W4tSoqtYbDYTBW44K3HBW45j2OHJxjbdKQqB1CkW2C0TAV+JMBHxJgI+JFCmo2Ni91k01/IDKVSyFCDYOtNGEJ8zZk6MIf5m2aC4/5ZWqoYM9OgSvef1GR6YjOdCws7sd5JgFIHr3+AmFDgiComtI5Vxp+h1iWLWQc4fUZfXPlOzbpSABMJDHUgLQ1eAzCVB1NavnD0utP4idu+WQcII4BGZ6jG85yTEFFTpqX+AmGLb/44gqoNNP6gx2R1N4li11vGhhrGXqM1mV6IDorC23TMIof8phFD/lK1JlUrmW3TGARayljMNwfjEw3B+MTDaHGJWSpiq5bEIN8dFKpjc+YRQ/5TCKH/KYRQ/5RgWpmwka7AZprPlaKRPhNFZD4HJ01AfETRXfK1VJ2H1H6ivA5u0mEs7N3kmKDXI4RkJY4zuouYQ51PiNIOwzOrqGHfldofKdk3Sc+sbk0Da0qlhbmW5RKT1LOqCZglWU3Q6mUjzlTmdQ51nNqL+ZD0mtP4idu2VnxFtA1nQIbXckt3xbcIbX7AP1yEArDOwHtj7w2OjAj7HYZdUUHK1GbZ2CeXL+WopEpNYDmdQSpEBgMBlJ3YmwBVJlnpqtlo6oFwyO1+k7Z8oW24O/lDqM0gHIF6oflDdW8xldSrP6f6jIr2VAM6qCxErv8NpXf4bTCSCTYMZSo/Te1j3QArSBf6DKFig2qNhzysiFHNmMdBmF0uITC6XEJhdLiEwylxCYXS4hKyOQ5JxTOybo89V7QghLO7Wk3kkxbWvFPQN8UAC4AWclNXU3giA2C0tS+0bFdTmMzNcw1MOj1p/ETCKaMazGxmANwmG0eITDaPEJhtHiEw2jxCYbR4hKyOC5ZsU6oLUpg1GyhYhIddzT/AKdXNubK1GbZ2CeWSBAIBBk9r9J2z5QPOpsPETVDbjUUPiMjTQSaGQ5XUqT+n/8AbIwZ6qVahcMgtmAV+CYBX4Jql5pJ5fpq70Rs8ZfiLldmtsVjuBMpvwmU34TKb8JlN+Eym/CYrDeCJ2TdGeZTOIsW4laf1OUtlOqbG2NDzKwxT7wzjo9afxERjuBMpvwmU34TKb8JlN+Eym/CYpG8ES/0I88q8UFt8TLuZlaprM7BPLpe0+k7Z8s3Mw+c/p0GRpoH5GaaaHwOV2Tzslyuo3lOr9J2KeX6a9lip/yhsRrUbcckgAAknYJ7TZt1wEGeqxeCCCDk658p2TdF7KE+HIPy0x4nOcoZ1XHG9Zerq3gbej1p/ETt3yhnpPn3NDYlpVtzZJAAHcBPys1i+6Mwl9WoW7hmytUBBBII1GYRTBSkqMCwBBUWETCaPGJhNHjEwmjxiYTR4xMJo8YmE0eMTCaPGJhNHjEwmjxiYTR4xMJo8YmFUeMQ2o1QlTrAAEF9VyMvRXfznUI8Dkaqgmmh5EZXZPOyTINiU1LMdgFswFyNrzAGzgj/AFJqnYp5fpq5lsgsZT3EaCNhj2WZlqH6mHkYKBeTCfRe03WluLe7ah9zogACgADYMrrnynZt0Wmk4+U1Wy4qp8Rldi/zEFpJAmrotafxE7dvIZWdXUqdxgzqb9DDQRvj2KMyVD5GEEEcjBVAtJOYRiaZzPU6w1CC82s3VWCxEUKo2DLpl6Tksyrep+xglkslksmLLIBAJZMWYssl5IA3mCxKahQN2X27Hxzz2ajj5k5AuqkeImmk4yuyedkmR+SqjIdxFkrUGXWSRHwfMCTzz9pqnYp5fpuxaq/leIVOjUdoMrso1XjwMqJvxJWdxbaAbvARDi6XOZRBaTnZtLHL658p2bdH7DsO63NDz6XMP0yjzqxz+6Jdjhm3L0etP4idu3kMvm1F/I+kSmRqa9WmEOg6t48DKtPfiSu7i20LcPASmSAbGc5lWZ3Od30sehpqd4lNPASkngJSTwEpJ4CUk8BKSeAigClSANmtooIARM4lJPASkngJSThEppb6Ii7XDfWQeJ6DSVPisN2EN8wDkaK4+YIhABLjxU5XZPOyTzyuo3lNX0nYp5fpxFZToIgqU/dMwmp4CIah/vMAAGgdB1z5Ts26MaAtT6GWlbnW7GH3EcMpyG3DSTqEOdjYBoUaAIOdVACe70etP4idu/QIGUiwgi0GK9E/2GYVV8BEeqR1zEVVFygWAeo3NVbF3DMJfWdnyL61VV7hnmiqHO5ed0F1SkjeGaX2ioPLIPOepj9ywZkDOe4WZWih5tLwiDIKU6dJymdQSSJhCfDWYQlhHZrNU7FPL9Udc+U7NujAKkEEGAtg/wDDYZUKk3i8HeILDURWs38gBZQLN5NkqF2Ou4DUBcBFsoXhTe/2HSa0/iJ27eQ9cvWk1m85hBaxIA2k5hLqdNVHcMi6nTLHe0GanSCje3QC2pg9pO1DfCA6nuIN4Owx7KmmmTYw5KvOI5qDOzTTmVbwoGgRefWzJ7gyv6f/ANp1aeQ9Wm7Z3xNMwqv/AMZhWEfKVK1QD2GIsMGb9Qi0IpawbJ6NRqxY9LgjU+CPS4I1Pgj0uCFLFJIsFl4snZP0gtE0M3mZ2K8mpP5S41qfn0utP4iFAhYtnW3OY9Lgj0uCPS4I9Lgj0uCCk6aQFslzKGG4i31U56tUeCy5W9Idy5N3pCo3LzYM9aqT3LzRlMFRASxOgCH0FLQbAXMw+vxTSbYSCO4iYdhFn/kMYsxvJzk988rRMLIHuJ9php4E+0woHeizCE+GswhPhrMJT4ax1Z1XFBAAnVp/qnsmhvYDxMww8AmGHgEww8AmGHgEww8AlY1MdiM62XC2dk/S9dvOdivJqT+U7en59LrT+ImEmnZUK2YgN0w4/DmHH4cw4/DmHH4cw1sw6gmqdknl6rdSpDxaeyq0xkexSZvCfmt8TL6dNRlHNVcl9yxiqWFnbUBKLnbjmCtxwVuOCt8SGuP85VwnjEq4TxiVcJ4xK+EDvEwrCP8AjMLr/KYVX+Uw2rwiYxLkF3a8kfqnsmnXXzyuufKdk/S9dvOdivJqT+U7en59LrT+Inbvk9Qzqzsk8vVfbqtZutsEvqs1TIvrVFXuGcy41Qzbl52X1ak7D/2/W/ZNOuvmMrrnynZP0vXbzM7FeT+z+U7en59LrT+Inbvk9Qzq/Sdknl6peKZC72zCC1mIUbybBLkQKO4WZBzUqeMd7QZqdMKN7ZfVqTsP/YfrfsmnXXK658p2bdL128zK9MEUlzFhMJpcYlamWIXMGB0zt08+l1p/ETt3yeo01Tsk8vVL6lW07ll1Mmof8ck2g1SF3LzRL61Rm7hmy+rUnYf+2S4SmgtZjcBEwg/4SnhPAJSwnhEdg63owsP6urpjtTYBbQTDcwJ8ZXR9xByfZrDwImm0eI6VbGDtstFuYjZLJZLIuNi1VZtgBtJPS9qw8M09uo7ZOEU0OKcxYWzVZMIps4pqCoYWggeqXUqar455spr5nIOdKTEb7hM7EgDaTLLKdML4ZfVqTsP/AGyWAdrCttxKkGYEeNfvMCPGv3lE08ckLaQbtxM/p38x+rDsVRex1COadPqIYpY6lFp8BMGrWe4YSrA5jcRLatLre2v3jBkItBHKM6gOP8TbPYdW8DGBDC0HYekRTqtAMppwiU04RKacIigbh0lyIW8JnYkk7znMvWmLd5znlcKiiE0aWz8zbzAWYneT9TMEr2a/RmAqw0HMRGNejqY5xuMa1T4g6iPUtafxEvGEG3vAyL61UeCy5Xx23Lzug7J/OdknQdapP6d/Mfqs2IgJJ2CE6lXQolq0TnUC9pSVFGoclIE6GGZhOfSYnFeH8GqR3E5geUZiDPZbNtGgw8+hYN66D64edUIZ/dEBKBsd9y5+WwACH8CmSKa+ZhKYOpztpbYJQVNt5O8nkoq+a8jPLXwf5pbrhJpMQKi7NY2iEFSAQRqPqI5tRcRthWGyhVADHqkXGEEEAg22izkYAKCSTcAJ/o0+am3WYM3+mnmT0HZP5zskyQWCAWAaSTYBMDpcZmB0uMyiieiLflPWn9O/mP1Wf9Rizbln5Bzn3CXAZAzMPA6DPzIxU7wbIbXC4rHavKOdTFj+7NGZl6wMYMrC0etHMozDSx1CG1nNuwDQBsEFlWsAdy6BymxqpFMd+cy92At1DSe6LYiKABkKGVgQQRaCDLlPNOsHOI1rUXxf8TnHqI5rDwOsQe64ucRw9IXU3umA08b35Vsp9mmZYCEB59TQsWxEFg6DsnnZJk9en/KNYarhQTnAJmG0eAzDaPAZV9JVZcW6wKP1Xooj5mXgIMoZjit4iaK3mOUAgiD8Bzzf7TqMtakxGMn1EcMp9YewaBpY6gJmRbcROrF/AQ2i32yPoMjW7T2KLZV7Uc/+JmlEPqVNXQ6CLZhJTUrjGEwmhZ/lMIar/aoxBKaoijMq9D2T+c7JMnr0/wCU7df1dc1MrwmH/US0b1yrsfFG5c0H+pVY9w5uQoZGFhBlr0Nd5XfKhQ6ReCNREQ0m1i0rKyONakH1SuiDaZTLnrvmHcJUZ31nyAuAilKGrS/2EUKqgAAZgBkXJUK8Ql1QNTyrqNMJ33wXlEHr/Yf+06tPJ69P+UYq6MCp0giYfV+Uw+r8pU9KPRl1Y3gg/qsW1KZx17obGQgiHPcy6VOo5DW1nHCDpgtZyFEuRQMo+hc3i9DKDYvXXnLGIYasxHhMMrD/ADJ85hlT5TDKnymGVPlMMqfKYZU+Uwyp8phlT5TDanymGVPlMNqfKYbU+Uwyp8phlT5TDKnymGVPlMNqfKYbU+UwysR75HlCST3kygUTr1OaJ+NV1kc0bhlfmYWr7wziAq6ncQQfoYQK6AB1+oyLDWbNTSEs7m0m8kk+ZM/ORjP7x9f/AKf/ANjNVPJQPTcWMpuIi1viGCt8SCt8SUyC1mMxJJzfqxbabZ3UXrHKN4gjURpEoEGzO1P7GCqf8JS9H/e1hMLO7NtJJPmYB6ZhmHUB6HBabHWVFsosu5yJ6bjnpuOem456bjnpuOCrxmCrxmCpjJSdhzzeByCrxmCrxmCrxmCrxmCrxmCrxmCrxwVuMygW3uTMGpIdYUW9CltSz8RBpA0iOyOpzEShj63p/Yz03BKFmp6n2Edndr2MSwjPSQ/yPqK+lr9S27aYaIGoJHo8EejwR6PBDRI9yJg/AfvEwfgMTB+AxMH4DMHwf5zB8H/5TB8H/wCUwbB/+UwSjbvMpLTK08WwGaqf62PoamzOp7pTWoNaN97Jgb/KFKK7TjGKXqWZ3b1PsKnlNY9UBpVje6ad4gSqP7TYfBpgNT5REpD+9vtLa1YG9rhuHqOcU0ZvAWw2vUJZtpMwhqbsAcRRcDMNq8ImG1eETDavCJh1TgEw8/DmHn4cw8/DmHn4cw9fhzD1+HMPX4cw9fhzDaVm1TMNo8BlT0lSoRjtZq/Y3sH8prE1f7R2Dzrr5j9nKypqF5O4CYO1joylnIF/JQZNqHGErK42eoYzO9yJHen76GYZRJ94Axgdxt6ZgJhVHH6uOLcnsHnXXzH7NkNhDDuUazHZ3Y3mIKSHS/2mGJb7kpekQXsmeVCjjSPIjSIAtdAMdfqOnAYhMVkJAumB1t4W0eItiFTtBHnHZdqkjymG1xd7ZI+cwsn3lUz0Lb1MTEJJVl2jJwdX9GcVmY6RMHoDxMNFdyTC7PdRRMNrn/MjyjMx1sSfOIXYmwBRaSdlkz1BSQPtIGfI7B5118x0DhUUZzMFUYPbr54EuI/ZD2RmGs3ARsZ3NpMUGubgc4QffISyoLTUQXNthsZT3EaQdhn5XUMO/wBQQMNRz+cwKjwgSgye65launeDMOfvSWlVtznSTk4QqCoSxVhpMw1BupzDXO5AJWrnvAlBn99yZgNDgBlNVGpQBk9g87RfMZbhUW/7DaZalFTzKf1O2ajOovl+yHtMzH/GC1KVtQ912ULEtxl3NnEvpVCO5s/+y9nO3p/yGUbERSzbhLVpKTiU9Cj7mApg9NGYtpYqCbBNKzqL5fsh2T+c7JfPK7FLZ1k/2Xs529P+WUSFqIVNm2YSjUAbkBDNECotBwqi4ACavpOovl+yHsOVO5obEa1G3NkkAAS5msX3RmEvq1C3cM3+y9nO3p/y6DsanlOr9J1F8v2Q/K6kQWOp7iNBGwx7CMyVCbxth5CAALzGtS56nW2CaTazdVYLFRQoGwCz/Zeznb0/5ZZlVM9F9I1Tq/SVU/IukaoQf2QISsoOI/3lMqfEMNYMwhwouU5x4GGjbrxJXdx1bl8BKZPWe5Vmd2sLub2P+zaQv8hLjhFPzy7fQ+kPpfpLIRMWWml6Wylb+yNNXQ6CLYatLYDaPBphr2e4IKlX3zmiKii5QAB4D/Z9SfyE/qafnlgEGYLR+GJgtH4YmCUfhiAAD9vNSfyE/qafn+47YpqLmOog2iNTFOk4cBSSWI//ALyTWVEpMynaBMKHw1mFD4ayujb0EoBR2lOOHRharC4jkcKii0scwAlEP/3Kl3cJhjJsQATD6h32GUVqJ1k5rSqHXyOo8j4lQVEFtgMwv/gsvIBPK+JUVkANgN5mFjgWYUPhrMKHw1mFj4axsao9JWY7TkNi1EUFTZtmFj4azCh8NZhIO+mswdKi66dqmPjL4EbCOUgBQSSdQvMwnEpl2xBiLmErB1qqQnNAsYZCithGrQu8zCzTGpABMOc+8A0pgDtU+ojAqwBBFxBuImE4tNCAoxF0iYX/AMFmFD4azCh8NZXD0/RO1mIBGxaiJaDMKHw1mFD4azCxwLKNKqNlqGPiVdNN8zZXsISNpuAmFjgWVA9VQHU2AWrkVM5/Kgzs0ppRXWee0w+r3WCYVjjU6gxRQc3Peh+3IbAIgruL3JsSYSKY1U0Ew+rESunA0q5x+ZDmZTKuI7VgttgOgmYWPhrMKHw1mFD4azChwLL2pgneROfVccymt5lYUV1UwPMzD6vfYZSWonXTM0cPTcWgx7FHiTqExaFPcGaYfWgSunC0Y2rmZDep/VHYPyUXL1KSsxFRhDVpNoIbG85nZbCCLmBuIhtQp6RNhGY8jn/4tNsw6560S7OzHMqytVqvs5gjVqZ2NbD6SgTYKg0HbD76aGENqVFDCdrT8+Tqjl69P+U1RatpRT+cxK3xDEq/EMtCU1CrbqGR1F/kOSi+M9JGPPa8iJVQ6w5jYyMMZH1jUdohPo64KsNoFoPKefhBxBuvMHPYN8gWmZ0ZWXeDaJ+Wogbx5M5p0yRvjFnYlmN5JOcmYz1GAJQEqomPQbWGJ/lMQ4Mrgs4N4GiyXATrr/EQMRTRSLCRfErfEMSt8QxXx8Urncm+dmPPkWrj1KKM3PN5EFYbqkqGrZfTfM3dCyOh2gqR5GZsJpDnf3DrZJvPpHgtWhTDtuJsmZQ2K/uty5zci9ZjHL1GPcBqA0AQ+hoaGItLboaznWXleojan5yyiUpg8+r7OLsgsVFCqNgzR7KaZqzDSerEL1GOYDzOoTCGLdWnmEFYbRUhOEJ1bLHEQrXcWKhvVZ/UL5GXM6g7iQIlX4hiVviGJW+IZ+VF+QEJ57EjYugCFsR7cSmpszbZSemdauY6VKLEc82KVG0QWJTUKO6E+jocxRtvMdkoUyAbL2JlB9/pGtj+lTqOQGHfAPTMcaoRrP6o7B+TsE5L1oAN3mXJRcmGx6pFJf8AKCCyoQGqHWx5VDI6lWGwy+m5UHWLwe+HMtlRZ2tPz5OqOXr0/wCU1Gdmnll9Rf5Dk7Cn/HkIL0qZLbMaDm0Q1RzynmYOPRj3rzBmQejTec5g5jH0ibmhz0jjp7rcl4QN3KbTyVAlfFGNSJ8sjrJ/ETs0yOoPPk/p6f8AHlFi17Vf3xDYpcI/utmOQbABLmaxfdGYQf8A5do/wHNg51N2U9xs+cNtSl+G/wDjyHmUUBPvNATTFr1PdWAAAZhkXpSJG+4QksSSTrJvMX8XCM+5NGT/AFA8jO1TzGReyMPEWQWEZjsIlRaVWkMUY2YMMjti3FGCI74yvotuIMdWU6QbR+quwfkweuWpUlUkYswQhtdQzGqVqrd7E6ABAPT1rCw6oFwlxqk+AlzV0Hdbk6aSGaaD/IgztafnydUcvXp/y5MMNgAA5i3DumGngT7SuagphMXMBfbyYdQBBIPPF4mH4PxiYVSqMBaQjAzqD+Q5KtMKihV5kwrE9xAJhRpBja1RgXNvdnJjrUR87VQQSx5PYQkA6TcBCSzMSdpJtMFj4uM/vNBnptiPuaHmE4lT3W5ACrAgg6jEapgucqRnKjbyYSzJ1KnPEQUa5zL1WPJ10/iJWNNnADEAHMLrwZhp4E+0w08CfaXkAzsxyf09P+PL7NdDyXsoJ5TZUrH0a998/NUdVG8myCxKaKo3CDm11z+8sPMwhc3vryaKtngAJeKSDxOTpdB8+S5aSAdwyf6geRhsIII2ETDTwJ9php4E+0qmo61rAbANHJTL03JZ6a3gwZxmMwp1HVJtXwMRaZN1Vbu+G+AGuosZeuBEZHBsKsCD4GV6lP3SQO8SmKidoosaOHpuLVYfqjsH5MLpgVaYYKVMXFdD3EaCNYMwdEwmwlKl5ccn/Trjwaf9N1fwIMNoYAjcRbkXIVp8Mup0bOIztafnydUcvXp/ymqYMbSgP52vImCt8RpSKGpZjZybuTAMIINVyCENhBMwDCeAzBqtMGgAC6kTqD+Q5MCQs1FGJz3kTAVG0MwjsaDtYQ16mN+DUcLVXYTZbyG8+keAmktQMwABJAz2WGUcJ4RKOEfiIQOaOQ21E/DfevLgqh+unMMqNVRQSyNfYISCDaDpB0ET8z0xjbxmM66/xEp44SmhXORfMFPxGmCn4jcnZjk/p6f8eW+pWB7ll9R1XvJAlwHKeZg4xf8AJr4jsEVsUIATjGUcJ4RKdcVQ4dCyiGx6bB13g2iflqIG8Z7ZVx3iH/VpZt65N6hX4TyG+koOwjMcn+oHkYLQXUHcSBMFPxGmCn4jSmUV2xiLSeXBUdutc3iJVbG7N4CGUkEG8EZiDDaaDmn3AAjkwdKg/uEqvQfQDz1iYrqfEG4jYYSUxRVXyP6o7B+TsEi21qA4kjWOhDKw1i4zM4zVF1MJdUQi3UbwYtjoxVhtEqBCuak5uI0LysGwphYiatphtJJJOknSYLKtc47bNQna0/Pk6o5evT/lNRnZp5ZfUX+Q5Owp/wAeQj0lSqGA2LBzndVG8kCHMBLnaxfdGYSslNSxUBhfZMNo8BmG0eAxw+OloYCHm11tX31jhaaLaxlUioPYcYrclmIiEnkv9HjcRtnXX+InZJkdQcn9PT/jyVFRALzARTUYtNdSwfhULtrnlupoWhtd2LMdpNpmE06fpEDBSpJFsw2jwmYbR4DCC1NgLbgQRaCIc9I46+60H5BiVNxuMNj02DLvGvZGAqAc+mb1PIQABaTKpLeyxFiMdQMFqOpVtoIsl6N4jQ3fHsou1qv1GMIIItHI+drkXOxj2o3cQdRE/qB5GdqnmMjMBeZWIa3mlxih93IQABPyPWdlg/1K5I7s0qkODYzWEop2mEEEWgjODyZzSpKjb5clILxH9Udg/J2Ccg/ArkldSteRCTRexao2a4wIYAgjUYQuFAdzgSk1OoL1bMZhlVV1E4w7g1sw6pYerYvzUCYzOx2kk+ZMSywgpSPm/J2tPz5MPq/KYfV+Uw2oyPVAYGywzr0/5cmGEAWCzEXR3TDjwJ9php4E+0fGqPSVmOR1F/kOTCgFRQo5izDPBFjtUqMbySSTKZSz/Spm/wB4w2VK34a998FrMwAGsnMBP+nTC8o52DvafdN8/PTdWG8G6MGpkCo1PS4MxkdG2gqR8wZhZb31DTCGcD2blikYKjc9tDWeyILABOuv8RKxplwAxABzC68GYaeBPtMNPAn2mEF6fomawqBOoOTCyqIoCjEW4TDW4F+0rvUYXFyT4RWo4Ppci/3QYgVEFgHKc9Q47+6suqOA3ujOTBYAOUX/AIb+YhsQtiP7rRQyOpDA5wQYrVMF13lNhlRkcXMpIPcRMNY71UzCqjr1bbB4CyApSUgtW6tmrbGLYoAtOcmwXmWJhNMc06CNRlJqdQaD5jWJhdRFHs22r4G2Yaw3BRC9Sq52szGOUNUACjoG07Z/UDyMNhBBGwjPMNPAn2mGngT7TDTwJ9pUArVKS2k6QbxKbU3F6kWGYWxQaHAeYSShzFVAUGLzbee+hRLECU8VCc9h1mIwZiSH0OdYMwl0Xq5ivgZheKD1FCym1SqxuGc7ydAhBqNzqja2P6oBKVFKtuMo1PiGAhKahV3Dkph6baDKVX4hmNiJdjEmwclBKi6mAMFansR/vGrvveYMiHrWWt4nlUmmSDmJFxtF0o1PiGUanxDKNT4hlNw6MGXnmAmmxBNhIuMo1PiGUanxDKNT4hlGp8QwEJTUKu4ZAJpuAGAJEo1PiGUanxDKL/EaYJTRutZafE8iucS2wBiL5QJqJnUs5YA5ChlYEEG4gyjU42gPo0tstJN5tvMwZHOhrm8RHrqNQeUnqkdo1sUAAWAAWZuSk5qOQWsci6UanxDKNT4hlGp8Qym4fFK53JvgJp1BYwBIlGp8QyjU+IZRf4jTA6QbrEYx8Tko7OQBmcjMJRscizGJLHIQPTbRKNT4hlpCqALc5za+TBgrnShKSrhPEJQNU66jFooVQLAALABsHLRSouphBWpe4/3tjV23vMGRG61lreJ5FJQNjCwkSjU+IZRqfEMo1PiGUanxDPyqABuEoJUH9wnpqexX+8Farsd/tKa00FyqAByU1dTerAEeBlOpS9x41d9heUFpg32C/ef/AON3CqKHUzgTD8H4xGDDWDbkOqgaSbBMPwf4gmE0qh1K4JyK9NG1FgDHVlOkG0ZGE0QReC4jqwOlTaJhVHjEwqjxiYVR+IJhVH4gmFUeMSvTcgW2KwJslVEtuxmAmF0fiCYVR4xKisNhByXCgaSQBMPwcH/yCYVRqHUrg5FemjamYCV6btZcrA/s82xUF7GVTSo6KdM+ZmcnxMVhvBHnK7UzsuO8SkVq0gLWH5DbyWPUGZqhuG7WZWeox6xt8BcIrEawCR8peO4iOa9HqObT3GNapvBvB1EcnY04bcGqEBx1dTQgqQCCNvKB/wDkVP5TW/8AKL/1qmjbF+UEWL8p/TnzE1VItpOYAC0numD1PhmMyMOqSCPCMa1DWc7rCCrAEHWDyWPWGZnNyfcys9Q62No7hFY7QCfKZiO4iVDWo9Rz5GNm0g3g6jydgk7B/wBnTYqgsTsGcmZkBxaa9VYSmDIbGYXtsEwdE2gZ+8xQ2u3OJZg1X+1bVPdM+ln0sTGsrV7QDpVReRFLMxAVRnJJzACItavqOdFgAGyYOjbbLD3EQl6FQnEb6GMfQVCFqjyPJ2Kcjcw5qLE3Hq8v9RU/lNb/AMjAIona/SaqcAgE1VJ23Iih7DiVLOcDBYVJBG0Gww/6VR0hsr1+ap6o0mAsxNgF5JP1iCrXIBxTnRIoA2CYOj7SM/cYS+D1CQrHRsMP4TELVGtYbQROwSdg/wCzt9UrT4uQXIC3vHOTk3UglMQZqFMsPeJyBayIai7CvJfiYp3rzZ2KSwV6bI1JtpBtBilXUkEXEEfWOP8A5NMca6+T+oqfymt/5cva/SaqfLqqTthyGxUHidAG0y9mLHeTbMzVGapxS6jTRPHPBmooanfcMgZ8QsvvLnHIbWVTTP8AjOwSdg/7O/1C+RnWHhbldu0vxKeRd6J7fCahO0qec7FJ1qcW2qq/iqPaA0xsWohtU/fWDMz3VE6rT+oqfymt/wCXL2v0mqny6qkayohtU2A/IzCxwLK1Ss5NijadCgRDTpCwikfzPsMuE7QeQnZJkXBDyds87BJ2D/s6CTTxanDyEFgoV/eXMckc2uiuN4FkIC11NPvvGQbHqj0Sb25BzlpgtvbOZ2KTrU+RP/r1GzjqMfoZaUNgqJrX7iG1Xquy7iSRNb/y5e1+k1U+XVUihqb1QGBuIslAUa1nMcE3wFKlNiCLiCDHtwilpN7rr5Lq9IHvXMYQErA0j35xkGx3U003tyCximM29s87BJ2D/s6AQQQQdRgtpsS1JtawY9F7MdPqJhaK3UqHEMw2gP8AMGd9Vx5Cc2tT/wBRPrAPT0SWp7dYgKspsIuII8jCVYD/AFrwZh1Aj3xMJFV+pS505qKCKaA2hYv/ANeiQW2sLlHJ2KTrU+RAyOpDA6QZaabWmk/WHJ1qn8uXtvpNVLl1VJ2w5BsrAautDY6N3EaQdhh5ri0g3g6RABWpnGp/aKVZSQQcxBF4O2EggWCsM/FMOoEe+JhS1G6lLnmDEppaKdPUDFP/AMekQ1Q69IXk7BJVSmnoXzuQJh+D/EEw/B/iCV6dTFstxGBst3fs2tovUi9TrBiHCKWtPzd4iMpF4YEH5xCxNwUWn5SkaFPS9QWeAg2s5vY8hFHCDwvvmC1LOugxlglGpUJ6ik+U/BpdS9zKYSmosAHIjH8FLhFZbWp8uY3o+lWlBwynUSDtBgINr3+9y0nP4uo6ojDNTvHKpbNUuBlJxZV1cgDKwIIOkGUqjUGz03AJ7iREqf8Ax6xAPNNitcDyfhYT17w2+YK5Xrpz1g8c0o1HOgIpPlLaFLVe5iBKai7kRiPQJcJRqcJlGpwGUanCYpXPTvH7OqCNotiAbgBlU1O8CAetU1J1kCADcLP/ANJM/8QANhEAAgIBAgMFCQABAwQDAAAAAgMBBAUAERASExQVICEiIzAxMjM0NVBgJEBCRSVBRKBDcID/2gAIAQIBAQgA/wDTfSg3lsMIq1o3ZN9I+QRkEl5H0KlmN1vQxE7F/OpTLjEYe8aodJUlJTvPASkZ3iu8bQSprkyhhBP8ylMuPlhtV6/jqpEIrG6SKTIimPKdRdqxGkNRZ5oE4iDKIEpAhIbcQ+qLo/mYKRncVX2j5HCkWh5puj0qohHBFRrx5hp1WV5Zzs+ozhTjq02BplR6vj/MJosZ5nzVKnwTabYcIjfHmrzMcAc1cbBjmsZLOdn1GcK8yqiR6XkXD5HBUrnlL8e1fmH8opJuLYYCvTHmJ1xrfKNUhhSGOKm7rCxRtWSjICjbfzg8dtoLNFXNIHPMRTpSyawQG+yFqWgeCLrk+UyFa8PMDkMQWx/yNaqb53l1ldcekkiI55i4MtSaBVCzJZCYzCr694aliZ2PgpLHTsEQrHr3lhk0yMuImQFBCi0qyPSfaqHXneP4+rWlxbzZtQEdFPiAzWXMC8hBRyu/6czz1/01fnpmREY5UmZMLmPxVLcMjovt1JrnvH8ahROPliy4UL6Kv9JUeFlcodYQVdkhP8XEb+UDA0q+8kUlMlPjESOYEQoWC+MYxn/ecYz/ALPrsrzEH7gSkSghKBv1d4mJidp/iqCec+pNt3Wb7nHRvY1atvFzAGXun4w90fC9HUqqZHuaViUOHfJV+Q4aOmoajl6n8P8AHTZ7LUEI9zjVlBkcvnmcyeNcYsUunp1N6fOdLUxs7A6s1HLJ+JM9sokuaKJZZGJyTeo/kj+HpL6jx3vM6juXxJSTjEBLHoL0gdB4fKmolA9R78gRelXETIJ3FGRYPk2VUGe2lmRAI5UVrI2xJLrCCQwgnjUmvBz1zxqWxzIpqfVscpysKkWXaKZKSKf4VSTdOwDRQuOZwPopn0TFB0zpuPKI5lTExO08UjFOrLCJhkcnK7thenPY8tz9wJSJQQsgb1SDjjESU7RVouD1nNysvyI7lF48hljq7h5kOQ1BcrOJ13LWLC/efHR1IWjqHpCJezlh1gKo9JRmZzzFwRZamfJi1XFdRcxMTtOqq+q8BnIt5mQuPAtZNOAGEVKgjLe20i8pdTS4OpXmNp2njiwbHMU2YCHsgNREzO0KUmgnqtfbdYn1cAYay5gr2l3Q6L7VYqzeWeFGyDl9mdcqnWPb95URAD12WXy8uC9qtTn1MzM7yqFywYZyY7R1qpJYa9VHylo6yCoBkMjWPYtbC57dRkETR8GOAQW10tYTWEZapPlLhiciqAfzxwpVId7Q7l3eOknhjEwbSZN2xL3FwlCu7epqoAssKEsgoFWNgiZGd4Ztdoc/GJ2neKzgvolDnoNDCAv3NRHWZuVyxzz0g0EcxiOsiW0KDgIyU7D2WxpIEuk0T4WfaUVnPCtdYn0lkUrDkMeNDY6rl6mJidp4EZnO58MXPMpwTMbTtxqeyx7TjgKidixAKtCwqwsyyn3XDEFv1glg8jGDxAyWYmNu5Nvk3/cg01wUBwXPKxc6yQ+ay4Uful6s3GpcQCy89gEM8HejHgM8I+MayfmCZ445K2yyTC1RTJcsuxxTvPWxmutjNPVVKoTV8MTH1p0z5y34V/XjWDHBdywoeQKl2yywsDyn3XDED6nHppczWF/BHHa6QzGqhCFhck2vVcfOTqtUFkQ6rqlzRDWRZG4qjgAEwhEb8bVVwXDFfF2j+cvAH4rjWssrFuMhWyAcwvQxBcp6xTYgmJm0mUOIONUxVYWZX3A6xzBoI7DQIi8NREWHQubCCrtJZftayes0R1bFYN5V+CpZ6B7Taqc3tU8VrNpcoRCqCd5M5MiItLAmGIDEIx6tNabi5j4Yr4u0fzl4A/FeCmJnZXA5Vm7QXGgIlkJjIqySN4ao0lynxpUeX2779rtDNh8IGSzExuANyoL1/ta8RWrE0iKSIinw17bEeWuajZ+bu1ZeYxjUh5kdxCI5EMYbS5j4LOVmJxdCHoB4ccYyBaQTaqtU0pjkPXIegS052GxEVqAqnjjlQpbLBtZLWEc8FtNJQYBfrWB5LHd9RvmqMUkfM4PHU/MbV5tn0+4xVjlMkFdR2d5B+0QvqtENX2eYqjxx56TyVlpXL7bqz5GerSteR2kAg4geOPsRG6Dt1prs0IEc8o93WOnza9QFpWUaMbH3rrvbRZYtvS1rLB7lWoQMdWx2fH2fp90nDB1kbERA11+LefdAUgQmN24Nvp7fs0tJJcwsOWERF46Kuo8Zm66Zsem3EWaoOHwxO3wRZTZV07B3a1eORA5GxB80w2ncjY7VHoB1B4DG8jGiirjxGdWLjbE+egt2FRsMzMzvP8dXslX5tpmZnecc6PUgrKZQ4g91X9tjjDjXHmemNZafarH/AE5KYECR/sVrJpcoGJAUiXugKQISFojerQYe5xjgGWAc4xReYxi1x8wJx9YhObzhsP5g93yltv7t/wDk4sD/AGWND6hywucyL3lSzKGed6tv7dXut595VqstHsMzQoeWu+A0J0L/AKZt02VS9ziShtd6SKJEiGf2CfZUCL31K30/ZMuU+l7RfiiN/LSca9sbl3dVD6nd1U/puxr1xuE+XlPuIjfyhpRjqYgEzMzvOvhqqyL9RimFEiRDPjxDOW1y6yAdO26P2NqenTUEe+p3eT2bbVDy6qPAIyUwMKSmirqtfee6do+PBGQemdpahF9XVUQyMyJeOtETYTE5iZ6qo8GIme1FGrsRFt23jAyWQmDGG05M/wBhJEURE+/rXGV/LR1614edTkOROx8MYmPU87VgrDSLghBvOAC5VmrIRwq2CruEoyaRmAeHjGZAhKMgEWay3r44pPSWywbWdVrD/iwM1lzArIgcclg6Fd8c6G07Cvi32GNEeCVE5grHnRQEFDl/mTxT7fGGM+4xtog9kVnE808yO7bm+2kYqA9dm/eEx6CfcnUctAvn9epctYIQ5UpYQT/ohM1zuCso4fI8gXVprONCUjPMIERuAiy/zI40fTj3zPiiJmdor49SQ61o8qpfpRGYfv518oh08pZJFkfXPunerDBP7Cj90vV/7kvdBXcfyxQtzoqdofjIkM7F46+1qgStTExO06rY5hwtur1IrUrmHKlLCWURMzERY/xceCvEAEwhEU1049fWdatstHuXHG2+f/GbcrzWeQe6L8L+wo/dL1kPuS9xWosd6ik6NPyg8oz/AGTkbOhydiPiOQQ6OVzKCnDz1jWai5T8NOx2Z0Tq/T5/bp0LWjGw9d+pmZneaFPk9u67Zmy7ePApRuOAAQRjFcxWLDLB85+AClZicXK0XEeRRIzIz7g52wo/sKhctlczkdu0eOpUER6z7N4mzyL8KnMSXMAmnIr5Sck0MID8NS8df0kVeld9SyxL/wDaGJfPzCijR9TLd87PpHwJSb2CsCNGMVyi1puOTPSUseXItqTQZLPjaszTXW1kqwmMWle46h8vJ+3oVusfOV61LS6Y8FIc75IxlmY82ULIeepiYnadAZLITE4DIVeYZjbxRO3wG1YH4Fasl8Znf4+HDjHtj01hNYZlqpSZanfTrNfHh0kMYbTIz4BG5jGs1PlXjWLtR51m2sa9TS6Zqav5/wB6yex0RGOFOlBx1WuyUB6ETcszO+lZGwE+qRrZFe4sWSjID1jn9J4jORT0rG8e+xPkh88Bjch1kXnVSsFTO/nPGtHNZTGs1PtlDqJmJ3heWth8RzUT5MF+LuTyFepTUONuIBLDEIuVDpmIl+vrUjfHNPZqAekmY4SHmQQyM8pcKwc71jrKHu4A4V1dZ6w1kn8vKgOKmkkxMcgAuQuwOomYneMhENqpb4KtFln1a7Hjlek2YxTB5q5gSyIT8eM8qdieCo3YuNZr41/DQHmuJjWXqmfK8fBamW4hZnxxoc9xMazB89zl/XoX1nCGr9iQ5Ur1XsGg4mMisZFbx4Y6N7QayE722cMXG7ynVouay6Z8Ff2mMZE8D88SMzwSrqtWvWQsdnAa6tIsMrnBhkVi6uuyPjx/lj7M8ERu9UazM+0THhxUb3V6fkir22LLr4l/z934530jwh/7E4ZnNu7J2lmIV08cIvdrWatM6tlx/r8fMRZDe+MjZKZ4W/RQUBcMb91Gr/3TOGK+serP3DfDU/HO4l+I40SgbaZnKhMWubi2OlihEvHS8sa+eFaN7KdZn66o8OHHeyU6vTvbfxCw9fyHassjlPwUGqr455/sAKQISiYTkExqcdZidor0IVPUfds9dmw8Mb91Gr/3TeGK+serP3DfDU/Gv4l+I4xMxO8BKckjkIsXaGdhrYzlnqWMhbh5CAePHbOovTBCQkQlj1E20vbLMgrXLHgwg+1cWrBc1h0/uhIgncaDmsUyTY9rvn4437qNX/u2cMT9Y9WfuG+Gp+NfxL8R4IKRnccW9zRb1H2XuIoP3FKuFIOs5r8U6d2VXUpnp18pUlTJdHgxC9q7Th9SymSln7rGfRd4cb91Gr/3beGJ+serP3DfDU/Gv4l+I8OH+V+i+YvcKjdq4nNTO6I4YaN7Jzq2mLaCXDUsQcgzip7kzutOZaPk2JxV343scdT1j+4xe0rbGu6x13WOu6h1OOqDOxIq1UHzi6pUcwmF2ClqsirWIiE6NQzI57vp67BS13fS13fR0tVZaCTHd9HXd9HXSrTW7Pru6jqcQmY3DucddzjqpVCmLNFO5F42GjHKXEd7o1OYTPx73RqMwmPh30rU5lM/F1GvdWDNOxFlXmBga55T4405tU3JZMbTt+55i1zFqjJdqTrJ/c+/t/jUa5i1zFrcvcZn6aOFWo61MwHc1jU4axEeRgSzID1bKRxQbJyVpOgytZ8ctmcfQtRzV7VU6jeQtYOfOwOnDytZHGhjotCTGdgxOu78Xru/Fa7uxk/Du3GatLWpxgr9XVoy6OdkjjF+mSo1njzVzAlmQHwo/dJ1k/ufGNd5RvBAYTsfit/jEeCnjifHUZIYhXpkqFSyMlWYs0mQHxtxTkFdp5cNpMVxqu7J2i7rHutnbWJ2hxnWKX8uF1lJCKAcnCsXLZTOs2PtUzwwk/5LI1cjltvjiHlhC2/YV19Vyw1kbExIoDSWmkxMb6+slbw6TNdJuqS2RZXM5P7rwgBMIQEV1scAkc5du/pVkEWPZvvUuzzzh4bQkWNRA9Juuk3VesxjlhOTsSHLXXpLjQYmGTAXVl2R45n6dfhTvNpyW3fc6nNzt5NabjJh6v8A4yvxDyMZ1m48q08MNO1zWRja6/iP4PhQQh7pF3dmM1kqC6fTlf6yiUDaXvkQkbElxN3Yqid+9p13tOq+SlzgXrJ/deHEqiWMZNp0uew54VS7XRYs/CViatBDI75LXfJaRluq5a5yy5G1zTwtR0cWtZccwJEpExyFrkLXIWuQtcha5D1kYkcbXieOY9VWsfDFTteVrLRteZx/4PhETM7QGMvbjOs78lb9bEzE7wBovp5DPFvifSiiut7V9yz2hnlwo/dJ1lPufDiSj2waaEraYTwx0dGq5peG5+MRxiZid4W1GRTCmniLET6EY5db21m/b7Uz08a2WNSxBnfQ676HXfY6m5A0osz32Ol5kTMA1nCneuPgyHqxdYuGPLa5XnWaja2M8f8Ag+ETMTvAZe76Y1nfkrfronbzgbdkY2g2MZO58aP3SdZT7rwocSGiyLFZV8IcmYkZmJpUptTzTftLgOzJ8Nz8YjwfDQXbQRtDHNbO7PGESRCMZYoVWQgdY5fUuJjWYbz2+XwIHt+M6QmBrKRPFUza8XTlHQ62XLwL8HwosqrdM2O2YbWUvJt9IVfsMchLQYR9XF662K0luPJowrKfdeLD/F+m/VZrHfZP8fMgaKJf18Rrr4jSV4+yJwso2ko91jV9W4vWWbz2+XhhF+tzpsM6r2s446pXGudp4ZWgv5CytBnzxmacRrt2J12zDz5z2vD6u5CmdMkI/aYv6DuND7pOsp914sP8X6b9Vmsd9lY8dz8YjjhvlsaP5i91hV7Q50uPqtYzhW/xsSxngH8J+8xYzCG7zEjO06pTtaTrKxtZjxYiY53RJYkCIi0uuFSq4fHe9ONQM8MMMwL5lgkJlBe5D/FxBTwGJIhGMuUJqoQPEfwnGhXouApsDjsWZQIX64VbJLD9pETM7QqsimrqvLLFv6QsVb0dNlmsVZvLIFIMA9ZNcNUp4eLmLW5eKsqXvWuMwyN1IjVeoiqnr2TzM77LVcq3/ZOu1Cqt29ywZt4lfT1i65OtAWss2G2pGOP/AAfFFOzZEiVQx1tNpTDzH3p/taAQdpe+SZJ2JHhEyM7xf2bSS2dY94MAqzbdQ6x+8EZKYEayQxyCc5zScwmFRCG2lDOYbJPFfD4as/5GLBpe4o3jqFtqW4d885uyddKulUmZKd54/wDB8cUUrxzzHve/prWPMmM/aUmQmyspyiJFvWjSlk0xAMkQqrpRGomYneK+RAh6dksbWfHOicQ//t3Q/XdD9d0P13O/Xc79dzv13RY13PY0GGL/AOTqUMfHos2m2j5j1VbCbC2TlkTJDYHQAbDEAvyNWguvHvy/B8cdkEVkMU3vHFatsU15Gn9rWvjAdKx2bGs9UTZo0xmEtabjIz4wRDO4xasx8O12tdrta7Xa1i2saD5PtlrXbLWu2WtdstaN7j8i8FLIwsOi+auLd6h7RjqAl0nvOywmH48ZTG2ZEyX4YZ5ddowuuvhJ+PVweupg51zYPW+D1duUewkhH8LAyU7DjEOUtvUbXcmfaeMANhQAHXeHzeOBmfhww329n+NGJKRGIhGLRvJ5S2U7jWyUNnpWMjUiszmDxJcddgsAM0f+/vWmf1O1YhnzMkJYzp6o9k6s9p6mGD4dvxq/kLNBtMBM7zvww329nwUaLLjNZamir0ZV/D44YK2vfKnJWiGeFqepilmX+ixH2dniPLzDzOyKErWinnfhW/iK7ei5bNZKtLoGwrVas2yyADKNFaV1g/0WI+ys+AImTHWdiZGt/E1MgytHJM28W31G3KKWPJWMyYRGf+ixX4+1PgpZOKienPfwae3rOYz+ex9pCaVkD/8A2oMSZCMdx3NNxF1Ub6mNvKUVX2Z2VGDtbasUrFX6ilk1gLG3RdS5Opqrjn3Ak19x3NW8e+mIyzQBLDEI7juaZhroRvBDIlIlpmJtLSTp0lLHnALjB2+XfT6zqxcrV4e00BMe47mnVGpsCgu47mjwt0I8jWaikGcKlB9wSJb0nXaSj1WoWbXmucHbiN4ch1cuRqUOsFyqHB2yjebNCzV82Vca+2vqB3Hc1boupwHUq46zbjmBuGtrjeIApLkheFtmO5WaFmrG7P2aPrK1mmsUlMrxFyyyx0jySILI9MLbwxdVa0zfuyXNrHXO3rYh4I7Nk1q1n/8Ax+GE+zPRXbcEWmPc6Nmaq/c19ZprVCiV4q3ZO0KyzUBFz04xHaLYRI2wbcdVm0ia9hipwQD0nnp1u+t5c9m061Iy1xkGIAg7bb0phttJI805qQRK15K4st9WFqydGHDwg4xePXrNpgxTZGhW7VZBc5K9NOBroG/cEuaLNt941ibDXiaQwB5C6ZSWm5K0+v0TxH2Ba7bb0bmvkYbkZemmEVlZG4n4YURZcMyyb7q7JRp1+y9QqZ+zR9ZWsgNQgXFqQr4+sT61R5OyS2sz0F1ETwwkTNyZi3MTmVbZ/wD8fhg/tD1OQxUT52jU15mocXSkRnUpWi+la8i+qkV9ereosLpJyNVtZ/rxCZTVY/SFXl2xeWcr+a3xTutpnzAvJUbnKt2VoBVIWKg1LxqzbN/F6rfcp1nvkRww/polJF8Z1ja/aLa4nMLsvaALrpa/Gkh2E9Ntgll4mLzN9VJiLSJnPRPJXnjh5iKM794YrVg1m8zXUzBpAVuheOygFIQTaFouVeZrOjlsZLH1+h2mv+zT9ZWs99FGsPcGYmq2/VKjY3AWV8tWgDnBWebaFhWxCCkq7SdfUwsnRbd6XIzC2FgRzhPsz0WDtzMzq3j3UxEmarfc19ZSk24KunTw7UuBrck0bttKVZGyVBCVJ73v6SfeWOITpY1NpLNwwdjqDz5qyB9NAkk7GLWoO47euzHVupWeTpNuCqFrwTub2t+4mvX7LX1iFjXqtsmWXvTJTGOyb3WRW+7vQyIuGxWr5VIsUGCsyWxX6yajBFKHIylXosLBWYLYbmOTTriU4eOahMa7jt6sY5tU0w52Eg4Eq1Gl3dDHPrJTkbVg2Fg7MFsN9i6lAakfs4mYneGPc2NmRMjO8Me5sbMgpGd4i7biNtERHPMUTIzBD2y3qbdoomJXYeqOVfbbemPc2NmaiZGYmO2W9HZsMjYwMllzAbWNnmZpb2q+nDDgueJuWyjadDbtCIiPbbeiawzgy7Zb0VmycbFw67+Tp8ImRneGOa3bqA1ip5llctlG06iZGd4i7biNtERHPMa7L1Dyh2y3pj3N26i7D0xstj3O+pE7ecRdtxG0SRFPMX/1IAEZCIpwZzG7jwUSO6mqNDCWdXEPsCJnODXMbDcovpz66NaLj+lq7TZTbylq5joq11NgcIBCM67hDVnEhXQbYp4kbNcHTODCY9Nqm6oXKxCG2DgFhghiN2uwbBHdJCQEQlGMjsPav4/BoHlY+b11tlxaU9yC5l45U3Lu7MxdYLOzrgzGeYaDoyFNi3YkJXkDCXii9Dq5OSaGEs8t+Pr8Ln4ceFP8POlkwWDK81MdjVzUhCjjuvLnteZGyhdbWcOs5XGIW+I/C/x+FKCpsHRiSzIC1hDgbZDOYCRvEU6wQTCnHOOODyrii4862VawLSVZSqL05byx6OFz8OPDHkI4sSOi6lZ5pRkG2TsELz9vh/RpQSbVgOcKBqqHUfhf4/H3ZpN3l1SjkvarHG0antHk0VWurX69HKKEWxha4zzHcyCEI7PVw0xFzzyc733bY+6VNusywGVFSGrZD3OMcKZD3RMaq2DrOFo5FKrtcbCcZkYreyazF0rM9RKq9DGe0O9cK47m1WEH4xap7kRq0ka72KH+R3/9IT//xABAEQABAgEHBwkHAwUBAQEAAAACAAEDEBESIjEyUiAhQUKRobEwUFFhYnGSwdEEYHKBgqLwM0BTEyOywuGgcID/2gAIAQIBCT8A/wDHAVIlC8lC80VElZi9373BWy2q9x923Qzt1SWurXkg7mUKzqZYlaytb3aeZ1WUNx3OuoZaMycayxPJ1sgzdXuzVHeqxbXQ0RWq8puKKlYsTydZeSakyqnsdVx3+6oqsaqjJ+TLWn3yjudVfk60rSvxmlrCqsTf80PulmBNWTzvKMytZVYgoZRVaI6tfIKZ01bis4e6FxlmyymdQ51RbayovtdQ5kU75eeex/J1cL3Pt4ftbeK+n3NvlxVvINO6GiogqIK08jay/UHj7mXR4q6N3kdAo5hZRj2qKe1fk/JXSvK6XGQZqXuTeLkhzUVjeUq1iGkOIZBd0NuXeHN6LVzkrocfciwaysHLOYtqakn9E1EenTkFM6rDvTjMofor3FfTkXVE82Q1S1tC1s6tL3GFRPJeaLOXeyKlk3i/GZFWR0vi5K1l+oPHoyYjw+5RvPgiq/NRfNkOQFUufimLoku6yasineV6uFX5bFdHjk2uqxKDm+Fl/wAyf034q7PL+p+ZmRTDhlJxdDW4q7qy/T1q490ufPp9Vda7JeKS6i3utUZLpXlYXGTNPYqwvk/ky0yXSWvLcFXcXpLYHFXRuyDXxfNXXdDM1FWq+PFsi/z3dFXRk0vK1ZQnQzPMXCXq9JawIZnLItz72yCnl/J8jtekt5280NUetYGk6nWqUpTEyCjR56KaeXE0vXwVGZUZil1qPrljSozKr9KD7UA+FAPhUPu2y9SxS6tL1liVVEql1MsDSdDLWMvcK8PFpHmZRc/xMo05N1tJ9XctXPKM7oq2aXoFYsjD5y3XvCnoxN6GTWzqzV7pbop5xoyXy4vlFR53s1sq6Szs+r6ZAzrPELerXkvEq0Qt+R0MsWRh88gplq+cl5lViDuQzPkZhbV83VwbvrlXhdXh/Hbna8StfKrDhVUtiioiJB6Ip3ltFaOGRrNwQu4uhJCShkrxZH4y1nlKZ1Dm4KNvnUfyVY9rqqGH15C6V3vV20e7nXV5G8XFDSB0NEtiKkz5F0rvorhXUM7q3DpVUmQUtyg71B3qDvVYlmHD6oqJdXo6iMQb1dG96fsbRdBRcW51tfkLBrLU4q0cu1lDpcFZhVU0dIcgJyLasw4ZIhcePugM9KSwrqs1eStGf1lxitAftwJmK7zlarW5O0VfH8duSKixKMo6izkPX5MrtGblB5O0Zn2Zn5y7lpflLpXlde96/t7rXiQ0z2uoGbvQ0T2OqwPdLkfxnWh+cdaf05a4+5Zw4chUHeo+9mUfezquO/k/1C46XyLw/jOrW5DWFaXpbecerl7nBVhw+mTav1PzMyKgPZlKmPaX6n5mdWtyGMVgyMCx8gVEhRUifnEnzfsKwYfRFRNDLq3Vd1ZSpUpLusta95PyGh1q8HyKrPwZaxO/uWUxIJ1Em3soc7dIrWFt+d5LSVaIX5O67UuqJbs7ciBFDLozzIpuyoe9kTTNq+rq5yVwucNKKf8AZk4umpblpIXkeZ0U702Xal7XDLtRfToUHNsZACqF12KIUSFw5PQI8ecOvgurkoZKHvZQXQu3IXhzebSxG0EjYaK1ZLxZvN8oZydP/c/MzLMOqORWErvoruryWFv8ucOvgurkKoIaRbXUMR70W5USUKbeyP0QzPlXXvKsxXvWSIYt3qKfieSqw3fVXBu5Izuq0Uk//Mm0XV68KtbkehuPOOFsu6qoccoplViNl1g4dyKiSMCRgKKkfX5Mqoce/KrRSRTvIM7q9kXaUxd0yuve9eRIqOHRzvdHirg75Qd04IaXwyvM7L9QePIRjUY8vqZPnd5KoYvRNSiIp3eXpXWrpXfRQ3INVQyHvbn68XF7ZbiHNi9GUUk9JlViNtVrSXTzK6dbl8XlLVpT/KboycY8VgkcS729FA8LqHRIuqbeyzgV18i0noomKk3OFUFFz/EolJNnlxLVHjJYrrXvTI0L8Z5ere2RVDF6KLW6yUTzZDMTchiLhJiZdBZOJZ6LUSyb1X0yND0ti1QbnCri9JHq6wrWl611cJMKx5OqJesuFuMusSq1d0hf9X4z8h2uEmMeK6HydE/BDSh5u9syh0X7puCj7CZ1GZ+9lECj2VdG30yNUJtq0nzfpnWtNLeqy4SXZ4SYFjfJ7fCXC3GXpVhDLeIW4z8h2+EmMeKwZOgFjljGP1KMbtklWefbo5wtZPRiDuQz/NE1VXBlwkuzwaTAsZZPb4S4W45FWIKGl80TMI6vqrg735C9WbayaZ2V0axLVHJwMsZceeimdFPRRz5GEl2eEmBYyye3wlwtxyCmdFSozKI83IxKJE3yTi79zpx+TK6ZbHybxFwUJ/i0c94vLJwuurhJgWMsnt8JcLccnq5HGy7UmBFM/ohmfIiEKBjbqzKob/S6KlD4d/POJRtyjblG3KMW1lHz/Eyj5y7TKOXiZRrekmUe8+JlH+5lHLxMo5eJlHLxMo7USn1m0r2gvEy9pLxMozUfiae2de0F4mUYuKj7lH3KJSpeXIQqVJQC3KAW5QC3KAW5QSUAk39MiHR19KrjvQuL9eRWo5vk/PTp5MHL9jgnTp+Q6ZGzDrOjBGCGYhkwAjpD0FnUCbeyi0e7PuRT6ZOgVqm8pUYY717T97L2n72XtP3svafvZe0/eyOkLa3NhUQVHe6ieiGZ2yMGXBPYhccvscMgqMPe6cSf5vwUSYtrIZnbIs1bfJTbSVmeye2brUSLvRm4573cqP8AU+fkptpK7ONHulxjxWB5MCxlxl6H485Zh1vSUa3k6hlsUMtiAlgybxKtE3/JQwmUOafYv0y3ZQz3OChnsUM9iAmF36FmFhrekj511bHyOmRqQlqr2dvEvZ22q8UnY4S9K65NIOumXC/+UkSgNHuXtP3siJ2Ke9zdrSjSLMyg/coP3KFNS61gydVuK6avdLeHN6ZQ0qo8FAbxKA3iUOjS7SukMt56PrkDpQuhdC6F0LoXVtThkYuLSdfBaZuEuH/aWDvZdfN1UxRAQqI1XYrg3cjC2T1OtV5bPTK7HDIqxG/J2RAQqINXYrg3fXIh06OtPMvZ969n3r2feof0z9Lr2fevZ7xMNq68jscJMa0g0uH/AGlMfCuvm+MSJyycA5RVpCmAVd1vTK7HDJjGjIuQtd1+M0mq9LYtQci+GbZYhokh/thvdWBVlwt/lJDpDR71AHwKerPziNKZCPhdCPhdCNPVqrCOV0CsTrtcMu5RHr0IB8LoB8LqGL0ezNyerW2LUGjJqtRWscozj6KEQ9wsoRF9LIT2L2b7GUAfAoA+BaZtE02efnXF5S9KwNldArG67XDL7HCXq5P4fN1rFJaU77czZGF/8ufBTSYlhyugVHtfoUSleLdl9jhKPQhm5K9EH/KS11+MzZGF/wDKWNRKlZPMo85fGyu87X1Baj3oKJK7qrVdWeT5bvl6X3LVrSW8FBaj1qGwk6zgV3kbwC325nkaqFYlYA0cjD/tKFJmUOqM+luhYR510Z1YMlqvVd8n0+izhqlyjTuv1C/JmVpLFwV0R3vLeGZ983ItShleFMLF824IfqmmZW5GH/aW8JFwUXcyKkT862WbVdLjI2d1+M0o0mxeqizb2UQEYIw3owRgjBGCMEYKM30qvE2urNUZLBJZxsKQZyJXimbZnf8AYYW/ylAnpFOvZvsZBRDnYaQ4lFo/UmpF1ebq18gnZRj2qMe1Rj2qMe1GRKMe1Rj2qMe1Rj2qIZfPJGlDUUR+qbc6rH1Z9/I3B3qGObsqGPgQD4XQj4XQtsJTbCVH7kXRRHP7jNO6GjSUN25AaRKEbfLkBlxeXuba6rRC3ohH6UI1tb1Vwt2XeUES7nmXs25nUIR+n0VylV7pLtHr8kIl9Lr2b7WXs++XF5ZGYGvEmmpT7vcjr4LVFpb1X0/Z4i4S2LxdC6/cjVdVqtbu6ZB+IuhfjNZ+zxFwyG0rr9yawcO5Qq3w+ih+TIpyf9niLhkQWLtTr2beho0n93jmJ5+H/wC1dKKFtdCJfDIFLgjBBmxaFeIqKca2GQgo0qNZFC2unGthktIqO1FC2umAvhL1QzO0lCZhpUdMg0iRhOho8EQUSGkihbXTjSKbeihbXTAXcSGiUtFmHErwyBVxFYjBC4kgcnRgKGriGxEFHtIoW1041sKGYcRKifwoa1lFOAoauIbOdMY8VEIa2qjIxIdbQrTo7XQ1iu+buo5oaRNvZasUdi7Un8hcFHPxKIRfE8n8o8VEIZyK66iEYlPPSzq2g1JXRrF8lYwN/wBWqW5XqVFRDEp7uhFdROJNCBe0HtRORUxt71EIZyK6oxl8WdD/AHGGk3e1rS3ncdr53Xw+bK7eLuVV6OxlHNfCLN0uhnPiXS69oNu7Mi+rSsRKOe1RCKbEpxFraOhlFd/izq8wUkZgGrRzMipCO3586Yx4oqLUqqg0uufQrSNXZikwOsYLtSfyvwXsf2Chog9g2L2xtyiUhphW+ag/1Ge7mZ+Kh/0SLTRZHTp1qSGcj4MoJ363zXwks7PeFQ6LvizsrhavQ6GkDQgnG1ex/YK/kHisRSXaRSXRrF8lBMgHi6CiTVWpblbQ81po8JMY8VZSKXGS9j+wUNEHuigpiOnShmPYTIq0MqPeoU29lm7rHbnTGPFYlY93zZXXrCioxG2s6ihRRUohbX7leKK3FELUZ73WjCqNJfyPwRQkQ1sMn8o8UQVcSMKI1qqelRq0ut09EvJlF3Mv1LPm1ijUYrFd6O9RAoIqVDOSvFCBHC2unGlTGzvRDVxKIAj1K2jR7mk08BUSZu5kVISszNarpVvVRK7a3k6MGFRKRa3Unmiae/pZRAoqNPG4rGSOFtdGExle6FFZ27XqyiDd+SiUaT1R0owcUVI3EW9X51iEXxOrVEIm7Tp5nUc9qJydPM7KOfidRzcfidRTFup1HPxOohF8TyWso5+J1GMm+J0UxIyJ+1JEIfhdETFi0qPE2yRzYW7TqOfidGRFiUc/E6jG7fE8sU6GGfNJaohFNidGQv2VHPxSPnUc/EicnUUxbsuo5+J1EIpsTqMY9xKIZfFJHPxIp3/+SjSJ1GYOyyjzl2k1YU/9MX2r2l6Xcs4YmRUatJZxe6UkSlTm0L2ncvaftUelR6lGozz6F7U2xWPdJDSJe0TF2VFp9l8yGiTKLqUqM3ufbdFFUa6KiOLqtNWLrRURa8idiVYmql5OtUSFX4e7NOzpqwrEPCT+OHJgNX56qvU24IaxBSfyZFOiqFeFWvVJfxe5+g3VovJrAtYRkuuXBWFT4rVcfnmZfqDZ6OsQ8JP44cg0hES4qCARB7LM+5Xh1dHyX8TfbbJaRK1yX8XufnAryizF0j5so9KbpsU4iJziqsTe3co5Ufky+GcbGWAl1cGVwrzeaJirtwkLUCQtQ1o3siZyEdrL9MtyjUaWGZ2USkfXb8mWYRuijYaQUV7S+5FSYf8Axrf/xAA1EQABAwMCBAUDBAICAgMAAAACAQMEAAUREBITICExFCIwNFAyM2AVI0FCQEMkNVGgJXCA/9oACAEDAQEIAP8A0fVIU7oQr2/IJc1iIOXFmXKeRCwllludXVsstvq0ku5QFw/FmsyxyH47MlBEYJwoUJ24ulJkgANighlNDAXBUSmw3Le6MiPEkjKYFxPxmZLGG1xCjXSJI6JVzIplwbjC02LQCAEiqJIhWq4KWalR5kLhqbJKTLZK42LoEBW8iiT3I5fjJtg4O05NkjueZrxEu3OcMbUSyLiTp6SrkxFPYdynMzUbRuP9hnS5EjFxbdpm4xX+g/i6qidVl3lhnytIN1ufVZVtYhRScOzHsmii6OxmHly5d4zLKM8KP9hnSaiSbo23T1nYPq1tuMDqka6su+V1FReqficqYxEDc4T0+7ObG4lpjxvMVXQylTG4wXKKsRyO+1GfCQyLgFnaWFZvOacg3R/ajrQ7G2xqQ+MdknCtbRPSHJJ6Sraw/wCYQcmW0tpx5TUkdwfiNwuQQx2jEt788/ESm2waAQDRi2o1Mckk+yD7RNmJyLQ/tKPLYkjuDR+UzHHJkUi6v7RZaBlsWw1MBcFRORCeiHxo8OcElNq/h9yuIxA2jbrcb5+KlczrLbwbHHrMYFvjJ+ss9K/+Zd6UzZzMt0lpptkdjfNNgq0XHYgzEkjtL8NmywiME4VuhnNeKVI/xJkY4rqSGYsgZDQmn4WqoKZU1cu8/aLbYtAIBzmYtipGd3hj2W9tZ6Je2v5iy2pSEoegYCYkJCpW6VhUVFTKfhV6lcNoWAtcRIsYc+heSxExUCBGKO24YxYw9liRy72z9ma8yvozo/HZ6W1/eHCKmn2nt3D/AAdVQUVVjitxuZOl6N5eAgbbGKO2MymspViXHi1Hnx3+iU6+yymXGJbEncgczyeEmiYzn0bjri3NbGd6/g92f4MM0SzR+FF4i8sqSEZknCC7zB8xtXiK50ORcH5Z8GLFtAD530TCYTQ2wcTByLS2fmZF25N/sI1a3XF3yJUUoRi+xFkDIaE01mJIUE4AXF5tdr8t1iSxuBDOUsdqhFBERT8Fky2IobnDu8t8tsZ2HdpSCroreIgilRr0JLtkCQmm4dZJlcpwsgDLYNi2jtsiO1GiMxR2t+gYCYkJNqsCZsXUiQUysma0fkAIcg+qBEmMlvAZ8hpdrzL7byZDUX2zMgH5xVQUyrd1J+cjLNTpgw2d6xIL1yc8RJaZaZHY3pKt7EpOsd5+2SOC8JISIqVcH+BFcJLNH2tE8vI86DIE4ayZs4yFn9Pnj5kYnvsOcKUioqZTW6m0qiKRFNY7anSqiJlXXXZz3DbjxGmE6aG2DibTfjORD4rUZ9Hw3JpKjm0fGajSEfH5y6zidc8GxboAQmutPZudz4dAAtiIjJV5GDVjjXump9wCU009VyiJJjlizSCcaJkqu7DzrQcO3XBpQBg+S7GTjzLAsMiw0LY1cIyPMESWt1TYUC0nzFZ/bbhwevFf0uTyg2LaQo6Msjojzi3DZUkyBgyGCZOMZNUQkwoZiS9uqplMK82UV0XG2nRdDcPzN1neFZ2hZ4HCHxD1PFsZcOrCCKUh1aMxbFSP9RhVJdbeucc29IScG6uNppMtrT+TbtD7x8Ro9bmitzGXaFUVMpoDYNpgNLom11k0Fcii6yv3J7YLoRi3cCMpMxhxgwG3e30uQ9WypstwCWpgJiolHj8Dd809GYkKKu6SB3sPClhL3AaXb2D1QLZHkxhdNq0RWjFxNIv7l2cJNC+las3Rx5Nbq+80jKNnEuD6CpjHugoIpwLrXAulR3ZQSxad0uvdlKaxwxxpI8lwEl0OKw4W4pMSO2wZDbvb6XEujY00m1ptPwJtVt1zJCq5ATkN0QjS58ZsWwjT57jzYHUx8Y7BGtmZXDj5aOuA0BGdrXMxxQ0vP+mmvthyF/2usmMEkcEJyYB7SZfbfHcFXJpVQXUjPI8yJayQJxgxGG2bTODol8VLFE5X3FaDcjTqOhuT5W4SvCRiNLU5Iejb3+S5QfFNZG33LYvh5CKi9U0efaYDe4RP3WTgWmxaAQCnXRZbJwsyLq9TEduOGwNLx/ppr7bfIX/a8kshGO4pWwMNka0YIYkJCrsB7Ctug6O4NZMrd+01Fj8EcrymKGKirBKw+TZfKzjK4XAY4Nti0AgPLMtzMrzUjd0gdAS9Pj0M7zKPoDVulSi4kllltgNjejrYutk2VucWNJcjua3ZpSbA0iS2nWhReK3XFbo32QTJR8yZ5OprPcV50WAabRpsQTRxoHR2mcJ9gtzKTZLfRz9QdXoO2ZJ6ExEBnr6ExvKC4jDnEbFflJ0jw0ZxyrHH6OST51VETKv75b0h4YkBiZGEh4Fyg9W4MpyS2pHrc4pLtkNwZSSWupuA2m4/1SNxNteRwKctTZLkP0la/SVpLSmerTTUcMDJnKS8KOkifH+5+pooFUBhSXjnzYT0iFCTCsMK1uz8nMiBMbEDZaBhsWw57o/wYpIlsioMQt8A1hzXI58qplMLIiPxHuLGCBKlLvfK1xlb2pwp0FchEn8c+GWhLtEloVlTzJKjRGo/VKOKw4uSRERMJ+HTIQS1bUhFBERS7R1TbJCHISSwJ+lI/ZuInrILaw6tWocNuL/joQkuE+RfkNxm+I404DwC4HpOALgEBMGdtlk2aLnqnoXNoy4ZilyeHoX6m6v0m9PkCQpCZJlnafp7k9MP25JD8lfXPstJHb4LDbfqT4iSWultlqmY7vo4SsInqPviyOVTxMrrXgCpQkxuqMPi8noyU2mJoi5TPyMr/kXhsPWuEFT/AHmYE7ipwneZVx1V64strgf1CSf0ePkh9bVwZPoSLnqnoL0oBWVIIiRERMJo8Cx3hMEVFTKc8oct5phctD8jbk41zedX1p0DevGZiXDrwpHIRIKKSuvPTneG0xAZaTJIiJWEp6Cy71Rt16G5w3BJCTKc7y4acqAibTXkmp+0NML+yHoEKEmFEUFMJ8gLbYKSj68qC3I8yNyJMEuG6zJZfTIaXJ5V2sDFjpHaEdHngZDcUWT4lC0ksI+2o1AdVFJkuch3CSLFLhPE2Wss95C2IDsER/CzbBwdpu20gXfHCfIYXY+1Mju9mk49wIlp1xGmyNdr00icK2dndXE4U4VT0JTKF50amKiYc8Uzijl56Nx46iu8/RRwVLb8hJfSOybqxZKSmRdT/CNsHEwblsaLqEAeHLMFohQkwRgItGI2zs9rK80ttE5lVE6q5KMy2MjDMurngW/4OIYdUjG0vl9Mekj5C6+xeq0ezH0jlR2/qW4xEoZ0U+wmBpked/8A484XKRcplKfnCKuN1FlJHQstOI6AmirjqrP78wnOYiQUyTjhyS2AywLKdNZDO39wGXOIGfST3HyF09k9Vo9mPoSri2x5QQbhO6qFoBPuJbIqUVqjr9J26Qyu5lq4PMlskNug6O4OWXH47eEhydn7LtK02S5XgtUiIiYSXJ3ftNxWOC315DcFsdxETks8I00LQ7R5CFCEkVo1acpFRUynoJ7j5C4CpQ3kSz5SJ15ps4zPgR4luBpN7vK8w08O0yB+3ObhZeB8EMeWTDF7zCL0qL5TG4tL9S3Fr+pPSZXlCPEFnzLyOOC2O4hFyWeVBsWx2jRuC2mSAxcHcOrbfFVyo7iovDL0MJnPyKJjmuUrgt8MLdDRkOKejslhn61usdF6N3CMa4pFRUylG2LgkJApQJO1UXKZTlxmijsF1UY7A9kTHNPJctjTYoACKU8+LSYoG3JBbzAEBNo6EuEJaiJ9xafb/wBgtviQ+ZCFe3zrSeNnka6TZygXBZYtqn530gxUTFOW2OaeVCkW88K24LoCY1PZ4jO5IDvEYwvrTerraaL0SowI6ZEfI4uAKov0kuix217LF/8ACg+31RpziJyKuEzQFvT5CZcm4y7B8Zc3PMDN1cEtkgDExQh0mOcOM8VWgMMmekp3gsGaW1jdufPV5oXmyAoBk0+4wVKiKmFg/tyXW+SRLBjpSSZrnUAnOAW10DEx3Dzyur7eh/SVQuznK8uGyqM4ieReQE2vkiauLgCplMD8fLe4EdxxLXER3dIdqVFbkgqFanSEnI56XNcRSq3JiI3pdlVGASogoMZlE5H02XFtU0b6XItXT4bZHUNnjETrlPMg8O0oZk28TJc8nrIbTQ/oKofY+WR9oqBhDbEk2SB7cV4fqSSn8lITHlZBU8xavL0RKFMCKfH3UVKIeLWaFEBE0hfuXFwx0untat3tGtLt9puo3t2uWV79vVP+y1loqx3MQCRWcah55xKPO/1lN6O/aOoaeQuWSvkppMNjqoCvdAFO3IaKRinyDgC4BASK/a3yoLpEJMrJuKvpwo8CJ4ZvJaXP2tW/2jWl1+03UX27XLK9+3qn/ZaqiKmFIXYb2RGcyqdXpu5NrUSOrSbi55HkfA6RUVMpINBaLMUVRvPLKXoKUCYEfmjATTaVxjtMvNoDMZhj7etz9tVv9o3pdfshUb27XLJ9+3qP/Y8iihJhZrQNk3saZbbTI+g84rxbAAJIJgXAeTzHGdQh2cshcmKUJgXb5q6/fZpOyclz9tVv9o3pdftN1G9u1yyfft6p/wBjy3Du1Q/SPoF9JVDT7mkr6BpsuGYlQmJplNSAS7lHT+uHm6bcQ+i/MXZCR5kq/Vjr9WOv1ZyhuUokyj8mU+GwmZcllsWx8fLqQ/IkCIkEySACCePl146XXjpVeOlUZvm8Lq+Nk142VSG8j/GrxkikuDifV48q8eVPvE+o0P0jziLkgiWvCHXhDrwp14U68KVeGKhdJtcUMgF7oqL1TVxNpiSfMKiLW0a2jU4R8K5Vs9t67Cf8xysDWBrA+hD+o9HHRb7+LbrxIUJISZSgTL9EyBUrBD1FHHQ+oDQ0ylP/ANaHsmpnt6JvOt51uKt5VkqRcp8ZLuKMrw20K6ueZAnymC2yG3AdATDSd7VyrZ7bnWQyi4UTA0yPNH945yPykbXaKLMPqgyXm1w4Biabh1a4qEXDzKot6uDxNjNOi0gEqAr+3yf8mmUXi9dDTIlTHYtHk6DQ/SOq/d+RluqzHcNLXGQkJ86fZB9sgO3uKy84yfGZritVMcbKM4iW32/KZiAkREciae0RtoY8zkN1jztRZPGTaXKyqJLcVeIFcQKddEQJUiNIW5wqcbFwdpRlUHSbXWJ3LRxpHK8LSRqEUFMJTX3S1XtTH9tHfpoPoHVfuaEqonTcVCWfjbiKlEcxazQo23UWfGTHMfpCV+kpT9vRlkjq2+35bkaoIAkZpGmRFNHx4EoTHlRriyHBrwCV4BKOHsAiSGSK1jVrzyiJNYqohHWUrKVlKylZSspTX3i5GehEmjn0039Ov99dyUHxpChJhTbft729sbqwqeZ+c7J/aZhRvDh10m+1cq2+35bkP2ypo0NsSTSavEkNgPKx7tzVUz0owOMe4BmAqdTkE55G2GuEPXU4yEuU8LXhq8NSN5PYnhqWPhM1HT6l5A6OFof0lTf06/312pQ/HKiL0UocYlyoNNtpgNZvtnKtvt+V5pHmyBWXjiFw3EVFTKSZKM+VIjBKXGc5WPducqsNL3EBH6edVwmaYTJEWji4AqZTA55F8jmaRc0ZIiYoEwOv99Fz/GCoUx8jcXngNsQ4VyrhXKnW5yASuW72/NcezdNfbCpnuG+faayHOHw5lcOZRFIa27kXKek8uGyphMBo+v0pQpgUTUyXO1OGS90AkrhlW062nW0qEVzlflLl95uk0me2cq3e35rj2bpr7YVM9w3zse6c1md26H6R9KQudo0KbUFNC8z2OT/b85cSRXmsCSEmUqWmY7lW5f2C5rgi4bWhnEIilG6T7za87HWS4ustUVRoFRU6eivmf0WmkyRFyf7dSVU7bipFynyqqiJlXJD8t3hsja0x5jYkQ13hGfR9vdTgbwIagHsdcaLmwNYHmcNAAiqGP1GtOOm6WxsYnTzEy6z5gac4g+inke604uBxTSYHk/26qqJSqipQ9vlZxqMYsW9tBY3aKiEmFh5alONpU1kgLjtxpIvj6iqiJlXDKQYgAAgCgo+W1olSICIClq2myRtT0DBDpEeHogtkq5Lk/wBmpd62pXb5WW2rkcxS3PIocJadcFoCMoAk4+48tKmeivQyEt7IzX2/K6lwa/n9Qar9Qarx7VeParxzVeOarxrdeNbopqf12yJC+ZpoWkwlOhvAhqKaIhAtESCmVZRTeI/8D++qjlc1haT5aRCLdxWEkTw8qoxKlFl1tsWhQB1URLusdmvDsV4divDs1MAAIEFGGq4DVcBquC1QtgPbkdY3LuBHJA9F2Pur5gBATCc7hbUwmHlrDtYdrDtYdrB156EVzlfwVVREystwHCHa26Dn085EgplUMF7ek79Q/hqqiJlVV2W7hBhtInV2LsTe3Ge4g4XmIENMKsVP44DidtkhOw5wmaPfjyYfWuG6vdGF/nR3uPIRYoCVe/4PKVUZLEMURrOrXllEKf4Tn1DyICquSD8IdDiAQ1Fd2KTZ044LY5WMCkZOL/hOfUPKH4S9GF3qiMyh6CEUyXLgigphP8I/qHkIcrW38fUVUv8A9rZrKa51Rc6KuK3Ui51zWU1zrnTNbtN1ZTkVcaqtZ1zSLSrW6kXNKtZ0zSLn5UaVKTtSdawlKmK/ih0KsJyDSolJ2pax00KsJSdK/msJoNYSuy691oaWkTNYSsYrutYTRe9YTRO9YSl7UmKx8qma70vah0Wk7UOhVhdMrX8UlKi6LXShpUzWFpFr+awug6L30Wkpe9LSdtFodV71hdFSuqV3rFIvyo0qfzSLmu1ZrvX8Ui4rNFW6kXOqLis0nSk61hK7LSrit1ClfzWa7pSLit1In86L3rCUqUnVKzis0i12rdSLml71upFzW7/yq5rtW5KTqufmcJrhKwmmE5MJz4TXCaYT0cJrhNcJy4T/AOp91btFWt1IuaVcUi50Rc1urdSFSrW6kXOm6t2n8/h5UiY0XolImi9KXtXbRO+id9F76J3peq6KlDX9vw9e+q0nbQqXtSdqTpSd9E76L3pcpSV/Oo1/b8PVM1lUrKrp1St1In/laTtSpmk0TvovelpOlKlZWsqtImKXvWf/AE1//8QAPBEAAQIBBwkGBQQCAwEAAAAAAgABMgMQERIgIlIhMDFBQmGhsdFQYGKBkcEzcXKC8ARAUZIjohNwoLD/2gAIAQMBCT8A/wDD66fvCV7ZHWhqj4fd1+oGnzdfqBrebIaw7+qK9tDr7vadne6K5z3IaotONLOnu8lp2tz92hpvUKUqlhLJNCN310utAzfqB/s6losJPqWlwZNkJQlk9NHdoWId6L/jL1ZfqBIfqpZRVXKcScvCmIatMSwDym8JejqUoLCWTuzfLgrsn6MjryhXR1NStoHGeTEnUmI00rAPKbwj7uiqF6srwerK4XDuqX0jrdDVkuCvn4ptnm6hGqPmy1rSiL+zK9VxEy2RWpfjvPcPwoa0nw8nRfbr7pXpUtn+N7oiqv6uhqi051qaavmtBIa0mXFF9uucvt1q7JtwWgbA0i6K7yWQ+6GWVKHcstN4RLXve2NZlKeqrF6Oqw+jKU9ENDW8lEQ/xvZRj3Oi2R/l1lHm/wC1yDyWna7m/CHkmoEcwVAsiIvpZSJqRNav5zOh18MuXcyI4vkmvneLpmdo2UnSRKRD0ZSIejLxD6PmohhUQ8pipq9yYBveTaGzRUux3lgacbsXs6KqWEpioRZWtwll6rayKI+5ER3VFKXvK19u91JCQl5KsBISq8XRViw6rAsTIqpYdSrU+vFSnu6h5LTtWIlJ+zorw7OtbN1au4xfbrdSPCl0NNGJ2QkQj8nUnV8TaEVLWPhihuspOq/hQ/drzLZHUBctT2ZOv81Job3kpP2dFYK83b0nWksWuaJ4RRXOaGq041TxL4a0TRFdHzUR8msvkZXR8Pu6lr31Oh6tZ+IPJRVZ/h/mV0NJYpxpZFd5KLasRNF25l1FvXxCiKaAbvkyagWQ0ymyhL+rIoiG7Q2uZr43h6KINHymGswxL/GQ3R/h7P475FqmG8F4Vscp4yUWHrPpLkoiimK7h8lEipetNCXKxD238SUh3If8hQ7mm2QJ1FkGYqBZS4IqzVgnhKsPvPdlODoqzDDYhu8HsDRP+UWPD1nhHoiyksU+sZ9CKmntqTrVYZ9YFyW4pt3NEVbLCnOsL06Z9ki6WMLTlVrUq99yIqPqUoX9lKF/ZSheKfesM/h6ThlQ5W3usU+Fu4UBcnmGsWTmpDJ4hdfp7rleuu02nZ+a2sgzlQLIf8ZVuc+9YGsYm5TxNCSvSfDyRTbORRbXzniQ0PNCPJrQ09rxaB+aKmsV35WfiDDv3K7VhIuT2CoZXZMeDLQM2gVdkx9GTT71gaxiblZ2vabQ6yyZcUVNmIrWtQl2tCOTq60DauymJXg9WUiNbzZCA8VKUD6uhoafQS2udjZ90VBCjFGKlBUI3vZrH461Tsip5qT4UKSV0fRZSzGytPakWz81EWQczCN7y0Miqyg3SRVg3ZWUnVJrEQxdVGMXVFQyrUYtSvCSNx4qW4KW4KW4K6yixdENYd6CqfBfb1/ZFp7UKigqyhHMRHdQ/F5LQWTz1W69D4dW5SlXmosSvB6shqlYK6PospYpg7oFRVWhlEMXs6i2vnmtqjpPgdYv279pFdT0iWb0Evhly1PmhrVVJKRUndLd1UVbuT9S2QbORjD0UQw9M22c0q6PBSiKsK09twiQ8Mr56Pa3rJKc8xfJSPN1J8HZXSzcI2Iczq7S2axcaM/Hh/lXSxdbOhQfmV0NYt840EoFozGF7OLtsRZy0/sLspi6oawIus+1EotqcaKs0WytnMa1tWdXcsaWRKTp4OjofxLZJ+GSbUroit0+0TccmZKqSyokKi7aamqho/ZjSnq8V4hmGlk1DVXW6fw88ySIleFDVLtvdzWJ81KipTg6lfZFTmISy9Zw8KGmstc0I2tChWmzp7a3c1ifMXj4K6HoylCL6ciEvVOQqUrcHQ9UVLWohhV2iHpMA+ikx9Jvu6KIorV0bcPbWFY3t/SRezK8fBrQq9JvbumhrChJCSGqKvFaujO/caMuDIf8hcGnOhMaKr9U7ZHUBcsxJipMc1EobZUOi7egHk0/xEWXD1Ukyaq6vSfBaHmiFRDk/ZXqtnDPkRIlp7VvHyUnd3CpNPSzz4eeRbRcptK07PWz+O0/5RYykhu/SpNPkze7t/Sr167NFsktmfEK3zY1hs7RD0nxPyn1K91n/HzHh5zYbcSJCh7W1ULZpnhvPPiFb+c2JYGs+HnPi9rGos3umw5oUPaugkNaTLiiIfJCV7a1+SjKfEy385sSwNZ8PO3ekyWSaIs1rWvuANLIaokpOixjFb+c2NYGs+HnmBorUocuZGeIbRdt4fezjFb+c2JYGs+HnmN+cxWmRTRds4VIcVIcVIj6qTH0dSN36XUjkHwupH/V1J6PC6kYfC6kf9XUjwdSP+rqR/1dSd4fC+pSPB1I8HUne+lSfB1JqS4qS4oatXMEjRI0SJEryydvsmTLFn9+eEk0+9CiQ5gUKFCh7NGtKcGVbgyk/Z09IvYxW5QfVFTb32LxTDmBFCKh7d0q8WzOV33ZSgeqlB9VKCsVnQyuyalCRU81GPG1vRCiFFlzWlEin39t6lpEpyqjlJS3BS3BSlajcsVnasbWXraKreJSnBSnBFWoWruToV6T/MjoSEkEXqoyisYrWuf8pteKxCmQqJ7BVUSJEiRIu3pEUAjZxWhuzNeK3vsgho7llVRF/ZEX9kRVfqWK1vWFl4eduKsSLii4ov2xdsYfexitb1hZeHnb3z7+5xWMVrepPQhw29/dCH8yupS8irCotpa1+O37HQiRKLuVryLSU8OXhN93VRZ2Gfa7m6VEM2hflM/9eik/ZCSEkJISQkhJCSEkJIVdHulFh6KTreSujZFSYqTFSYqTFDQpMVJipMVJihsxIVD3YKmqizJd2boisqLQohzBIkS02CRd0dqff/2LdJFxRf8Ayy//2Q==;fillColor=#CCFFE6;" vertex="1" parent="1">
          <mxGeometry x="-420" y="540" width="150" height="150" as="geometry" />
        </mxCell>
        <mxCell id="uU7pM81MEspVorwHv3w6-189" value="&lt;font style=&quot;font-size: 22px;&quot;&gt;&lt;b&gt;Storage&amp;nbsp; Account Reader role&lt;/b&gt;&lt;/font&gt;" style="text;html=1;align=center;verticalAlign=middle;whiteSpace=wrap;rounded=0;" vertex="1" parent="1">
          <mxGeometry x="-680" y="780" width="188.33" height="30" as="geometry" />
        </mxCell>
        <mxCell id="uU7pM81MEspVorwHv3w6-190" value="&lt;font style=&quot;font-size: 22px;&quot;&gt;&lt;b&gt;Storage&amp;nbsp; Account Reader role&lt;/b&gt;&lt;/font&gt;" style="text;html=1;align=center;verticalAlign=middle;whiteSpace=wrap;rounded=0;" vertex="1" parent="1">
          <mxGeometry x="-201.5" y="780" width="188.33" height="30" as="geometry" />
        </mxCell>
        <mxCell id="uU7pM81MEspVorwHv3w6-191" value="&lt;font style=&quot;font-size: 18px;&quot;&gt;Storage Blob Data Contributor&lt;/font&gt;" style="text;html=1;align=center;verticalAlign=middle;whiteSpace=wrap;rounded=0;" vertex="1" parent="1">
          <mxGeometry x="-120" y="1020" width="140" height="30" as="geometry" />
        </mxCell>
        <mxCell id="uU7pM81MEspVorwHv3w6-192" value="&lt;font style=&quot;font-size: 18px;&quot;&gt;Storage Blob Data Contributor&lt;/font&gt;" style="text;html=1;align=center;verticalAlign=middle;whiteSpace=wrap;rounded=0;" vertex="1" parent="1">
          <mxGeometry x="-720" y="1020" width="140" height="30" as="geometry" />
        </mxCell>
        <mxCell id="uU7pM81MEspVorwHv3w6-193" value="" style="whiteSpace=wrap;html=1;aspect=fixed;fillColor=#D5E8D4;" vertex="1" parent="1">
          <mxGeometry x="-500" y="1220" width="315" height="315" as="geometry" />
        </mxCell>
        <mxCell id="uU7pM81MEspVorwHv3w6-194" value="" style="shape=image;verticalLabelPosition=bottom;labelBackgroundColor=default;verticalAlign=top;aspect=fixed;imageAspect=0;editableCssRules=.*;image=data:image/svg+xml,PHN2ZyB4bWxucz0iaHR0cDovL3d3dy53My5vcmcvMjAwMC9zdmciIHZpZXdCb3g9IjAuOTkyMzUwODc2MzMxMzI5MyAwLjQ5OTU5MzAxOTQ4NTQ3MzYzIDE2LjAwNzY0ODQ2ODAxNzU3OCAxNi45NzgxMTUwODE3ODcxMSIgaWQ9ImUwYzJhMmYwLWU2NDctNGYwMS1iOTFiLWFmYjdiZjE1MDQwZCIgd2lkdGg9IjE2LjAwNzY0ODQ2ODAxNzU3OCIgaGVpZ2h0PSIxNi45NzgxMTUwODE3ODcxMSI+PGRlZnM+PGxpbmVhckdyYWRpZW50IGdyYWRpZW50VW5pdHM9InVzZXJTcGFjZU9uVXNlIiB5Mj0iNi4yNCIgeDI9IjguNDUiIHkxPSIxMS40NyIgeDE9IjguNDUiIGlkPSJhN2Y3MzFhOS01YzU4LTQ0ZjQtODAzNy0zYzM2MjdlOTgwMDgiPjxzdG9wIHN0b3AtY29sb3I9IiMxOThhYjMiIG9mZnNldD0iMCIvPjxzdG9wIHN0b3AtY29sb3I9IiMxZjlhYzIiIG9mZnNldD0iMC4xNiIvPjxzdG9wIHN0b3AtY29sb3I9IiMyOWJhZGUiIG9mZnNldD0iMC41Ii8+PHN0b3Agc3RvcC1jb2xvcj0iIzMwY2RlZiIgb2Zmc2V0PSIwLjgiLz48c3RvcCBzdG9wLWNvbG9yPSIjMzJkNGY1IiBvZmZzZXQ9IjEiLz48L2xpbmVhckdyYWRpZW50PjwvZGVmcz48dGl0bGU+SWNvbi1tYW5hZ2UtMzE2PC90aXRsZT48ZWxsaXBzZSBmaWxsPSJ1cmwoI2E3ZjczMWE5LTVjNTgtNDRmNC04MDM3LTNjMzYyN2U5ODAwOCkiIHJ5PSIyLjYxIiByeD0iMi42IiBjeT0iOC44NSIgY3g9IjguNDUiLz48ZWxsaXBzZSBmaWxsPSIjMzJiZWRkIiByeT0iMS4yOCIgcng9IjEuMjciIGN5PSI0Ljc3IiBjeD0iMTUuNzMiLz48ZWxsaXBzZSBmaWxsPSIjMzJiZWRkIiByeT0iMS4yOCIgcng9IjEuMjciIGN5PSI4Ljk1IiBjeD0iMTUuNzMiLz48ZWxsaXBzZSBmaWxsPSIjMzJiZWRkIiByeT0iMS4yOCIgcng9IjEuMjciIGN5PSIxMy4xMiIgY3g9IjE1LjczIi8+PGVsbGlwc2UgZmlsbD0iIzUwZTZmZiIgcnk9IjEuMjgiIHJ4PSIxLjI3IiBjeT0iNi45MSIgY3g9IjEyLjgzIi8+PGVsbGlwc2UgZmlsbD0iIzUwZTZmZiIgcnk9IjEuMjgiIHJ4PSIxLjI3IiBjeT0iMTEuMDkiIGN4PSIxMi44MyIvPjxwYXRoIGZpbGw9IiM5NDk0OTQiIGQ9Ik0yLjQxLDUuNThBLjI0LjI0LDAsMCwxLDIuNSw1LjVMOC4zMiwyLjExYy4wOCwwLDUsMi43OCw1LDIuNzhhLjI0LjI0LDAsMCwwLC4zNi0uMjFWMy41OWEuMjQuMjQsMCwwLDAtLjEyLS4yMVM4LjQuNDYsOC4zMy41TDEuMTEsNC42NCwxLDQuNzJaIi8+PHBhdGggZmlsbD0iIzk0OTQ5NCIgZD0iTTEzLjMsMTMuMTQsOC41NiwxNS44N2EuMzUuMzUsMCwwLDEtLjExLDB2MS42YS4yLjIsMCwwLDAsLjExLDBsNS0yLjg2YS4yNC4yNCwwLDAsMCwuMTItLjJWMTMuMzVBLjI0LjI0LDAsMCwwLDEzLjMsMTMuMTRaIi8+PHBhdGggZmlsbD0iI2IzYjNiMyIgZD0iTTguNDUsMTUuOWEuMzEuMzEsMCwwLDEtLjEzLDBMMi41LDEyLjQ3YS4yMi4yMiwwLDAsMS0uMTItLjJWNS43YS4yNy4yNywwLDAsMSwwLS4xMkwxLDQuNzJhLjI4LjI4LDAsMCwwLDAsLjEzdjguMjdhLjI0LjI0LDAsMCwwLC4xMS4yMWw3LjIyLDQuMTRhLjI0LjI0LDAsMCwwLC4xMiwwWiIvPjwvc3ZnPg==;" vertex="1" parent="1">
          <mxGeometry x="-400.67" y="1270" width="111.33" height="118.28" as="geometry" />
        </mxCell>
        <mxCell id="uU7pM81MEspVorwHv3w6-195" value="&lt;font style=&quot;font-size: 22px;&quot;&gt;Lifecycle management policy for&amp;nbsp;cost optimization&lt;/font&gt;" style="text;html=1;align=center;verticalAlign=middle;whiteSpace=wrap;rounded=0;" vertex="1" parent="1">
          <mxGeometry x="-485" y="1430" width="280" height="40" as="geometry" />
        </mxCell>
        <mxCell id="uU7pM81MEspVorwHv3w6-196" value="" style="endArrow=classic;html=1;rounded=0;entryX=0.5;entryY=1;entryDx=0;entryDy=0;exitX=0;exitY=0.5;exitDx=0;exitDy=0;" edge="1" parent="1" source="uU7pM81MEspVorwHv3w6-194" target="uU7pM81MEspVorwHv3w6-166">
          <mxGeometry width="50" height="50" relative="1" as="geometry">
            <mxPoint x="240" y="1520" as="sourcePoint" />
            <mxPoint x="290" y="1470" as="targetPoint" />
            <Array as="points">
              <mxPoint x="-467" y="1329" />
            </Array>
          </mxGeometry>
        </mxCell>
        <mxCell id="uU7pM81MEspVorwHv3w6-197" value="" style="endArrow=classic;html=1;rounded=0;exitX=1;exitY=0.5;exitDx=0;exitDy=0;entryX=0.5;entryY=1;entryDx=0;entryDy=0;" edge="1" parent="1" source="uU7pM81MEspVorwHv3w6-194" target="uU7pM81MEspVorwHv3w6-167">
          <mxGeometry width="50" height="50" relative="1" as="geometry">
            <mxPoint x="240" y="1520" as="sourcePoint" />
            <mxPoint x="290" y="1470" as="targetPoint" />
            <Array as="points">
              <mxPoint x="-231" y="1329" />
            </Array>
          </mxGeometry>
        </mxCell>
        <mxCell id="uU7pM81MEspVorwHv3w6-198" value="&lt;font style=&quot;font-size: 36px;&quot;&gt;Managed Identities&lt;/font&gt;" style="text;html=1;align=center;verticalAlign=middle;whiteSpace=wrap;rounded=0;" vertex="1" parent="1">
          <mxGeometry x="-513.75" y="330" width="328.75" height="30" as="geometry" />
        </mxCell>
        <mxCell id="uU7pM81MEspVorwHv3w6-199" value="&lt;font style=&quot;font-size: 36px;&quot;&gt;&lt;b style=&quot;&quot;&gt;Azure&lt;/b&gt;&lt;/font&gt;&lt;div&gt;&lt;font style=&quot;font-size: 36px;&quot;&gt;&lt;b style=&quot;&quot;&gt;Resource Manager&lt;/b&gt;&lt;/font&gt;&lt;/div&gt;&lt;div&gt;&lt;font style=&quot;font-size: 36px;&quot;&gt;&lt;b style=&quot;&quot;&gt;(ARM)&lt;/b&gt;&lt;/font&gt;&lt;/div&gt;" style="rounded=0;whiteSpace=wrap;html=1;direction=south;" vertex="1" parent="1">
          <mxGeometry x="90" y="380" width="190" height="900" as="geometry" />
        </mxCell>
        <mxCell id="uU7pM81MEspVorwHv3w6-202" value="&lt;font style=&quot;font-size: 24px;&quot;&gt;Create SP to permit Terraform&lt;/font&gt;&lt;div&gt;&lt;font style=&quot;font-size: 24px;&quot;&gt;&amp;nbsp;to create and config infra in azure&lt;/font&gt;&lt;/div&gt;" style="text;html=1;align=center;verticalAlign=middle;resizable=0;points=[];autosize=1;strokeColor=none;fillColor=none;" vertex="1" parent="1">
          <mxGeometry x="580" y="540" width="390" height="70" as="geometry" />
        </mxCell>
        <mxCell id="uU7pM81MEspVorwHv3w6-205" style="edgeStyle=orthogonalEdgeStyle;rounded=0;orthogonalLoop=1;jettySize=auto;html=1;entryX=0.5;entryY=1;entryDx=0;entryDy=0;" edge="1" parent="1" source="uU7pM81MEspVorwHv3w6-203" target="uU7pM81MEspVorwHv3w6-74">
          <mxGeometry relative="1" as="geometry" />
        </mxCell>
        <mxCell id="uU7pM81MEspVorwHv3w6-203" value="&lt;span style=&quot;font-size: 36px;&quot;&gt;&lt;b&gt;Hashicorp/azurerm&lt;/b&gt;&lt;/span&gt;&lt;div&gt;&lt;span style=&quot;font-size: 36px;&quot;&gt;&lt;b&gt;azuread&lt;/b&gt;&lt;/span&gt;&lt;/div&gt;" style="rounded=0;whiteSpace=wrap;html=1;direction=south;" vertex="1" parent="1">
          <mxGeometry x="350" y="860" width="450" height="260" as="geometry" />
        </mxCell>
        <mxCell id="uU7pM81MEspVorwHv3w6-208" value="&lt;font style=&quot;font-size: 48px;&quot;&gt;Terraform Providers&lt;/font&gt;" style="text;html=1;align=center;verticalAlign=middle;resizable=0;points=[];autosize=1;strokeColor=none;fillColor=none;" vertex="1" parent="1">
          <mxGeometry x="360" y="1130" width="440" height="70" as="geometry" />
        </mxCell>
      </root>
    </mxGraphModel>
  </diagram>
</mxfile>
